<svg height="128" viewBox="0 0 64 64" width="128" xmlns="http://www.w3.org/2000/svg"><path d="m60 25.09a.94.94 0 0 0 -.8-.64l-20-1.82-7.36-18a.94.94 0 0 0 -1.73 0l-7.36 18-20 1.82a.94.94 0 0 0 -.53 1.64l15.09 13.2-4.64 19a.94.94 0 0 0 1.4 1l16.85-10.49 16.9 10.46a.94.94 0 0 0 1.4-1l-4.64-19 15.09-13.2a.94.94 0 0 0 .33-.97z" fill="#f9e3ae"/><path d="m60 25.09a.94.94 0 0 0 -.8-.64l-20-1.82-7.36-18a.93.93 0 0 0 -.84-.63v44.84l16.82 10.42a.94.94 0 0 0 1.4-1l-4.64-19 15.09-13.2a.94.94 0 0 0 .33-.97z" fill="#f6d397"/><g fill="#8d6c9f"><path d="m62 24.69a1 1 0 0 0 -.86-.69l-21.42-1.94-7.87-19.29a1 1 0 0 0 -1.85 0l-7.87 19.29-21.37 1.94a1 1 0 0 0 -.57 1.75l16.13 14.1-5 20.26a1 1 0 0 0 1.5 1.09l18.1-11.2 18.08 11.21a1 1 0 0 0 1.5-1.09l-5-20.26 16.13-14.1a1 1 0 0 0 .37-1.07zm-18.25 14.06a1 1 0 0 0 -.31 1l4.56 18.47-16.55-10.22a1 1 0 0 0 -1.05 0l-16.51 10.22 4.52-18.48a1 1 0 0 0 -.31-1l-14.83-13 19.65-1.74a1 1 0 0 0 .83-.62l7.17-17.58 7.18 17.58a1 1 0 0 0 .83.62l19.65 1.79z"/><path d="m3 39a1 1 0 0 0 -1 1v2a1 1 0 0 0 2 0v-2a1 1 0 0 0 -1-1z"/><path d="m8 39a1 1 0 0 0 -1 1v2a1 1 0 0 0 2 0v-2a1 1 0 0 0 -1-1z"/><path d="m14 42v-2a1 1 0 0 0 -2 0v2a1 1 0 0 0 2 0z"/><path d="m48 40v2a1 1 0 0 0 2 0v-2a1 1 0 0 0 -2 0z"/><path d="m54 39a1 1 0 0 0 -1 1v2a1 1 0 0 0 2 0v-2a1 1 0 0 0 -1-1z"/><path d="m59 39a1 1 0 0 0 -1 1v2a1 1 0 0 0 2 0v-2a1 1 0 0 0 -1-1z"/><path d="m32 24a1 1 0 0 0 -2 0v8h-8a1 1 0 0 0 0 2h8v8a1 1 0 0 0 2 0v-8h8a1 1 0 0 0 0-2h-8z"/></g></svg>