<svg height="128" viewBox="0 0 64 64" width="128" xmlns="http://www.w3.org/2000/svg"><rect fill="#72caaf" height="50" rx="2" width="50" x="7" y="7"/><circle cx="32" cy="32" fill="#5dbc9d" r="12"/><circle cx="54.5" cy="9.5" fill="#f283a5" r="6.5"/><g fill="#8d6c9f"><path d="m46 32a1 1 0 0 0 -1-1h-2a1 1 0 0 0 0 2h2a1 1 0 0 0 1-1z"/><path d="m21 31h-2a1 1 0 0 0 0 2h2a1 1 0 0 0 0-2z"/><path d="m33 19a1 1 0 0 0 -2 0v2a1 1 0 0 0 2 0z"/><path d="m32 42a1 1 0 0 0 -1 1v2a1 1 0 0 0 2 0v-2a1 1 0 0 0 -1-1z"/><path d="m25 19.88a1 1 0 0 0 -.37 1.37l1 1.73a1 1 0 0 0 1.73-1l-1-1.73a1 1 0 0 0 -1.36-.37z"/><path d="m37 40.66a1 1 0 0 0 -.37 1.34l1 1.73a1 1 0 1 0 1.73-1l-1-1.73a1 1 0 0 0 -1.36-.34z"/><path d="m23.34 27a1 1 0 0 0 -.34-1.37l-1.73-1a1 1 0 1 0 -1 1.73l1.73 1a1 1 0 0 0 1.34-.36z"/><path d="m42 36.63a1 1 0 1 0 -1 1.73l1.73 1a1 1 0 0 0 1-1.73z"/></g><path d="m49.84 38.62a1 1 0 0 0 -1.31.52 18 18 0 0 1 -31.53 2.86h6a1 1 0 0 0 0-2h-8a1 1 0 0 0 -1 1v8.08a1 1 0 0 0 2 0v-5.08a20 20 0 0 0 34.36-4.06 1 1 0 0 0 -.52-1.32z" fill="#faefde"/><path d="m51 31a1 1 0 0 0 -1 1 18.17 18.17 0 0 1 -.37 3.63 1 1 0 0 0 .78 1.18h.2a1 1 0 0 0 1-.8 20.14 20.14 0 0 0 .39-4.01 1 1 0 0 0 -1-1z" fill="#faefde"/><path d="m14.11 25.51a1 1 0 0 0 1.31-.51 18 18 0 0 1 31.58-2.92h-6a1 1 0 0 0 0 2h8a1 1 0 0 0 1-1v-6.08a1 1 0 0 0 -2 0v3a20 20 0 0 0 -34.42 4.2 1 1 0 0 0 .53 1.31z" fill="#faefde"/><path d="m14.28 28.83a1 1 0 1 0 -2-.35 20.15 20.15 0 0 0 -.28 3.52 1 1 0 0 0 2 0 18.24 18.24 0 0 1 .28-3.17z" fill="#faefde"/><path d="m62 9.5a7.5 7.5 0 0 0 -14.13-3.5h-38.87a3 3 0 0 0 -3 3v46a3 3 0 0 0 3 3h46a3 3 0 0 0 3-3v-38.87a7.5 7.5 0 0 0 4-6.63zm-6 45.5a1 1 0 0 1 -1 1h-46a1 1 0 0 1 -1-1v-46a1 1 0 0 1 1-1h38.15a7.5 7.5 0 0 0 8.85 8.85zm-1.5-40a5.5 5.5 0 1 1 5.5-5.5 5.51 5.51 0 0 1 -5.5 5.5z" fill="#8d6c9f"/></svg>