<svg height="128" viewBox="0 0 64 64" width="128" xmlns="http://www.w3.org/2000/svg"><path d="m5 9h54v36h-54z" fill="#c5e4fa"/><path d="m59 12.51-32.49 32.49h17.25l15.24-15.24z" fill="#e3f2ff"/><path d="m15.9 45h7.7l35.92-35.92h-7.7z" fill="#e3f2ff"/><path d="m12.9 45h-2.3l35.92-35.92h2.3z" fill="#e3f2ff"/><path d="m5 45h54a0 0 0 0 1 0 0v7a3 3 0 0 1 -3 3h-48a3 3 0 0 1 -3-3v-7a0 0 0 0 1 0 0z" fill="#ced8ed"/><path d="m33 35h6v9h-6z" fill="#ed7899"/><path d="m39 37h6v7h-6z" fill="#72caaf"/><path d="m27 39h6v5h-6z" fill="#ffeb9b"/><path d="m21 39h6v5h-6z" fill="#85cbf8"/><path d="m15 41h6v3h-6z" fill="#fff8f8"/><path d="m45 31h6v13h-6z" fill="#faefde"/><circle cx="42" cy="25" fill="#fff8f8" r="2"/><circle cx="36" cy="20" fill="#fff8f8" r="2"/><circle cx="29" cy="29" fill="#fff8f8" r="2"/><circle cx="23" cy="24" fill="#fff8f8" r="2"/><circle cx="15" cy="31" fill="#fff8f8" r="2"/><g fill="#8d6c9f"><path d="m57 8h-50a3 3 0 0 0 -3 3v42a3 3 0 0 0 3 3h50a3 3 0 0 0 3-3v-42a3 3 0 0 0 -3-3zm-50 2h50a1 1 0 0 1 1 1v33h-6v-13a1 1 0 0 0 -1-1h-6a1 1 0 0 0 -1 1v5h-4v-1a1 1 0 0 0 -1-1h-6a1 1 0 0 0 -1 1v3h-11a1 1 0 0 0 -1 1v1h-5a1 1 0 0 0 -1 1v3h-8v-33a1 1 0 0 1 1-1zm33 34v-6h4v6zm-6 0v-8h4v8zm-6 0v-4h4v4zm-6 0v-4h4v4zm-6 0v-2h4v2zm30-7v-5h4v12h-4zm11 17h-50a1 1 0 0 1 -1-1v-7h52v7a1 1 0 0 1 -1 1z"/><path d="m20 48a1 1 0 0 0 -1 1v2a1 1 0 0 0 2 0v-2a1 1 0 0 0 -1-1z"/><path d="m15 48a1 1 0 0 0 -1 1v2a1 1 0 0 0 2 0v-2a1 1 0 0 0 -1-1z"/><path d="m10 48a1 1 0 0 0 -1 1v2a1 1 0 0 0 2 0v-2a1 1 0 0 0 -1-1z"/><path d="m35 48a1 1 0 0 0 -1 1v2a1 1 0 0 0 2 0v-2a1 1 0 0 0 -1-1z"/><path d="m40 48a1 1 0 0 0 -1 1v2a1 1 0 0 0 2 0v-2a1 1 0 0 0 -1-1z"/><path d="m45 48a1 1 0 0 0 -1 1v2a1 1 0 0 0 2 0v-2a1 1 0 0 0 -1-1z"/><path d="m50 48a1 1 0 0 0 -1 1v2a1 1 0 0 0 2 0v-2a1 1 0 0 0 -1-1z"/><path d="m55 48a1 1 0 0 0 -1 1v2a1 1 0 0 0 2 0v-2a1 1 0 0 0 -1-1z"/><path d="m25 48a1 1 0 0 0 -1 1v2a1 1 0 0 0 2 0v-2a1 1 0 0 0 -1-1z"/><path d="m30 48a1 1 0 0 0 -1 1v2a1 1 0 0 0 2 0v-2a1 1 0 0 0 -1-1z"/><path d="m15 34a3 3 0 0 0 2.78-4.11l3.76-3.28a2.9 2.9 0 0 0 3 0l1.66 1.39a3 3 0 0 0 -.2 1 3 3 0 1 0 5.45-1.72l3.55-4.46a2.86 2.86 0 0 0 2.5-.25l1.7 1.43a3 3 0 0 0 -.2 1 3 3 0 0 0 6 0 3 3 0 0 0 -.37-1.42l5.38-6v3.88a1 1 0 0 0 2 0v-6.46a1.24 1.24 0 0 0 -.31-.7 1 1 0 0 0 -.12-.07.66.66 0 0 0 -.4-.16 1 1 0 0 0 -.18-.07h-6.49a1 1 0 0 0 0 2h4.24l-5.61 6.23a2.94 2.94 0 0 0 -2.67.2l-1.67-1.43a3 3 0 0 0 .2-1 3 3 0 0 0 -6 0 3 3 0 0 0 .46 1.58l-3.64 4.55a2.83 2.83 0 0 0 -2.34.3l-1.68-1.43a3 3 0 0 0 .2-1 3 3 0 1 0 -5.78 1.1l-3.76 3.29a3 3 0 0 0 -1.46-.39 3 3 0 0 0 0 6zm28-9a1 1 0 1 1 -1-1 1 1 0 0 1 1 1zm-7-6a1 1 0 1 1 -1 1 1 1 0 0 1 1-1zm-6 10a1 1 0 1 1 -1-1 1 1 0 0 1 1 1zm-7-6a1 1 0 1 1 -1 1 1 1 0 0 1 1-1zm-8 7a1 1 0 1 1 -1 1 1 1 0 0 1 1-1z"/></g><path d="m13.5 13 1.24 2.26 2.26 1.24-2.26 1.24-1.24 2.26-1.24-2.26-2.26-1.24 2.26-1.24z" fill="#fff8f8"/><path d="m26.42 14.16.85 1.57 1.57.85-1.57.86-.85 1.56-.86-1.56-1.56-.86 1.56-.85z" fill="#fff8f8"/><path d="m10.65 24.7.58 1.07 1.07.58-1.07.58-.58 1.07-.59-1.07-1.06-.58 1.06-.58z" fill="#fff8f8"/></svg>