<svg height="64" viewBox="0 0 64 64" width="64" xmlns="http://www.w3.org/2000/svg"><path d="m16 5h33c1.105469 0 2 .894531 2 2v44c0 1.105469-.894531 2-2 2h-33c-1.105469 0-2-.894531-2-2v-44c0-1.105469.894531-2 2-2z" fill="#faefde"/><path d="m12 5h7v48h-10v-45c0-1.65625 1.34375-3 3-3z" fill="#cda1a7"/><path d="m11 53h36c1.105469 0 2 .894531 2 2v2c0 1.105469-.894531 2-2 2h-36c-1.105469 0-2-.894531-2-2v-2c0-1.105469.894531-2 2-2z" fill="#efd8be"/><path d="m51 31h4v12h-4z" fill="#f9e3ae"/><path d="m51 21h4v12h-4z" fill="#97e0bb"/><path d="m51 11h4v12h-4z" fill="#ed7899"/><path d="m35 19c2.210938 0 4 1.789063 4 4v2c0 2.210938-1.789062 4-4 4-2.210937 0-4-1.789062-4-4v-2c0-2.210937 1.789063-4 4-4z" fill="#fff7f0"/><path d="m41 42h-4c-.550781 0-1 .449219-1 1s.449219 1 1 1h4c.550781 0 1-.449219 1-1s-.449219-1-1-1z" fill="#f75f83"/><path d="m33 42h-4c-.550781 0-1 .449219-1 1s.449219 1 1 1h4c.550781 0 1-.449219 1-1s-.449219-1-1-1z" fill="#f75f83"/><path d="m39 40c.550781 0 1-.449219 1-1s-.449219-1-1-1h-8c-.550781 0-1 .449219-1 1s.449219 1 1 1z" fill="#f75f83"/><g fill="#8d6c9f"><path d="m19 8c-.550781 0-1 .449219-1 1v4c0 .550781.449219 1 1 1s1-.449219 1-1v-4c0-.550781-.449219-1-1-1z"/><path d="m15 8h-2c-.550781 0-1 .449219-1 1s.449219 1 1 1h2c.550781 0 1-.449219 1-1s-.449219-1-1-1z"/><path d="m15 13h-2c-.550781 0-1 .449219-1 1s.449219 1 1 1h2c.550781 0 1-.449219 1-1s-.449219-1-1-1z"/><path d="m15 18h-2c-.550781 0-1 .449219-1 1s.449219 1 1 1h2c.550781 0 1-.449219 1-1s-.449219-1-1-1z"/><path d="m15 23h-2c-.550781 0-1 .449219-1 1s.449219 1 1 1h2c.550781 0 1-.449219 1-1s-.449219-1-1-1z"/><path d="m15 28h-2c-.550781 0-1 .449219-1 1s.449219 1 1 1h2c.550781 0 1-.449219 1-1s-.449219-1-1-1z"/><path d="m15 33h-2c-.550781 0-1 .449219-1 1s.449219 1 1 1h2c.550781 0 1-.449219 1-1s-.449219-1-1-1z"/><path d="m15 38h-2c-.550781 0-1 .449219-1 1s.449219 1 1 1h2c.550781 0 1-.449219 1-1s-.449219-1-1-1z"/><path d="m15 43h-2c-.550781 0-1 .449219-1 1s.449219 1 1 1h2c.550781 0 1-.449219 1-1s-.449219-1-1-1z"/><path d="m15 48h-2c-.550781 0-1 .449219-1 1s.449219 1 1 1h2c.550781 0 1-.449219 1-1s-.449219-1-1-1z"/><path d="m39.238281 27.621094c.492188-.785156.757813-1.695313.761719-2.621094v-2c0-2.761719-2.238281-5-5-5s-5 2.238281-5 5v2c.003906.925781.269531 1.835938.761719 2.621094-2.691406 1.035156-4.71875 3.296875-5.460938 6.078125-.117187.355469-.027343.742187.230469 1.011719.257813.265625.644531.367187 1 .261718.355469-.105468.625-.398437.699219-.761718.660156-2.476563 2.621094-4.394532 5.109375-5 1.617187 1.039062 3.691406 1.039062 5.308594 0 2.496093.601562 4.460937 2.519531 5.121093 5 .167969.5.695313.785156 1.207032.652343.507812-.136718.828125-.644531.722656-1.164062-.742188-2.78125-2.769531-5.042969-5.460938-6.078125zm-7.359375-4.621094c.09375-1.65625 1.464844-2.953125 3.125-2.953125 1.660157 0 3.03125 1.296875 3.125 2.953125v2c-.09375 1.65625-1.464843 2.953125-3.125 2.953125-1.660156 0-3.03125-1.296875-3.125-2.953125z"/><path d="m56 12c0-1.105469-.894531-2-2-2h-2v-3c0-1.65625-1.34375-3-3-3h-37c-2.210937 0-4 1.789063-4 4v48c0 2.210938 1.789063 4 4 4h35c1.65625 0 3-1.34375 3-3v-3.179687c1.195313-.421875 1.996094-1.550782 2-2.820313v-6.378906l2.890625-1.449219c.679688-.339844 1.109375-1.03125 1.109375-1.792969zm-4 12.621094 2-1v7.757812l-2 1zm2-12.621094v9.378906l-2 1v-10.378906zm-7 46h-35c-1.105469 0-2-.894531-2-2 .117188-1.054687.945313-1.882812 2-2h36v3c0 .550781-.449219 1-1 1zm3-7c0 .550781-.449219 1-1 1h-29v-35c0-.550781-.449219-1-1-1s-1 .449219-1 1v35h-6c-.710937.027344-1.402344.242188-2 .628906v-44.628906c0-1.105469.894531-2 2-2h37c.550781 0 1 .449219 1 1zm2-8.621094v-7.757812l2-1v7.757812z"/></g></svg>