<svg height="128" viewBox="0 0 64 64" width="128" xmlns="http://www.w3.org/2000/svg"><circle cx="29" cy="31" fill="#c5e4fa" r="28"/><path d="m10.71 52.29a28 28 0 0 0 9.18 5.82l34.11-34.11v-6.43a28.1 28.1 0 0 0 -3.71-4.86z" fill="#e3f2ff"/><path d="m8.76 50.24 39.24-39.24h-6l-35.78 35.78a28.08 28.08 0 0 0 2.54 3.46z" fill="#e3f2ff"/><path d="m5.79 43.21 33.21-33.21-3-2-31.64 31.64a27.81 27.81 0 0 0 1.43 3.57z" fill="#e3f2ff"/><path d="m29 3a28 28 0 1 0 28 28 28 28 0 0 0 -28-28zm0 50a22 22 0 1 1 15.17-37.93l.68.67q.39.4.75.82a22 22 0 0 1 -16.6 36.44z" fill="#72caaf"/><path d="m29 53a22 22 0 0 1 -22-22h-1.66a4 4 0 0 0 -3.95 4.71 28 28 0 0 0 55.21 0 4 4 0 0 0 -3.94-4.71h-1.66a22 22 0 0 1 -22 22z" fill="#66bfa1"/><path d="m60.32 63h-30.32a2 2 0 0 1 -1.68-3.09l15.18-23.33a2 2 0 0 1 3.36 0l15.14 23.33a2 2 0 0 1 -1.68 3.09z" fill="#f6d397"/><path d="m29 18a1 1 0 0 0 1-1v-2a1 1 0 0 0 -2 0v2a1 1 0 0 0 1 1z" fill="#ed7899"/><path d="m15 30h-2a1 1 0 0 0 0 2h2a1 1 0 0 0 0-2z" fill="#8d6c9f"/><path d="m42 31a1 1 0 0 0 1 1h2a1 1 0 0 0 0-2h-2a1 1 0 0 0 -1 1z" fill="#ed7899"/><path d="m29 44a1 1 0 0 0 -1 1v2a1 1 0 0 0 2 0v-2a1 1 0 0 0 -1-1z" fill="#8d6c9f"/><path d="m33.87 18.95a1 1 0 0 0 1.3-.55l.75-1.85a1 1 0 0 0 -1.85-.75l-.75 1.85a1 1 0 0 0 .55 1.3z" fill="#ed7899"/><path d="m38 20.24a1 1 0 0 0 1.44 1.39l1.39-1.44a1 1 0 0 0 -1.44-1.39z" fill="#ed7899"/><path d="m40.88 25.71a1 1 0 0 0 .91.59 1 1 0 0 0 .41-.09l1.8-.8a1 1 0 0 0 -.81-1.83l-1.83.81a1 1 0 0 0 -.48 1.32z" fill="#ed7899"/><g fill="#8d6c9f"><path d="m30.93 31.51a1.94 1.94 0 0 0 -.93-2.23v-8.28a1 1 0 0 0 -2 0v8.28a2 2 0 0 0 1.51 3.65l6.28 6.28a1 1 0 0 0 1.41-1.41z"/><path d="m36.35 11.32a21.1 21.1 0 0 1 2.1.92 1 1 0 0 0 .45.11 1 1 0 0 0 .45-1.89 22.71 22.71 0 0 0 -2.3-1 1 1 0 0 0 -.7 1.87z"/><path d="m62.83 59.37-8.83-13.67a29 29 0 1 0 -26.75 14.23 3 3 0 0 0 2.75 4.07h30.32a3 3 0 0 0 2.52-4.63zm-60.83-28.37a27 27 0 1 1 50.74 12.82l-2.56-3.95a23 23 0 0 0 -7-27 1 1 0 1 0 -1.23 1.57 21.27 21.27 0 0 1 1.91 1.7 21 21 0 0 1 5 21.67l-1.17-1.81a3 3 0 0 0 -2.52-1.37 3 3 0 0 0 -2.51 1.37l-10.14 15.67a20.81 20.81 0 0 1 -12.11-1.5 21 21 0 0 1 11.93-39.9 1 1 0 1 0 .32-2 23 23 0 1 0 -3.66 45.73c.71 0 1.41 0 2.11-.11l-2.69 4.11a27 27 0 0 1 -26.42-27zm59.2 30.48a1 1 0 0 1 -.88.52h-30.32a1 1 0 0 1 -.84-1.54l15.18-23.33a1 1 0 0 1 .84-.46 1 1 0 0 1 .84.46l15.14 23.33a1 1 0 0 1 .04 1.02z"/><circle cx="45" cy="57" r="2"/><path d="m45 54a1 1 0 0 0 1-.89l.93-8a1.93 1.93 0 0 0 -.51-1.46 2 2 0 0 0 -2.83 0 2 2 0 0 0 -.5 1.49l.92 8a1 1 0 0 0 .99.86z"/></g></svg>