<svg height="128" viewBox="0 0 64 64" width="128" xmlns="http://www.w3.org/2000/svg"><path d="m14 43h28s6 9 11 8c-1-4-1.67-8-1.67-8h6.67a3 3 0 0 0 3-3v-30a3 3 0 0 0 -3-3h-44a3 3 0 0 0 -3 3v30a3 3 0 0 0 3 3z" fill="#f9e3ae"/><path d="m18.65 16 .58 1.07 1.07.58-1.07.58-.58 1.07-.58-1.07-1.07-.58 1.07-.58z" fill="#fff8f8"/><path d="m43 43 17.56-17.56-.56-13.44-31 31z" fill="#ffefca"/><path d="m20 44-2-1 36-36h4.5l.88 1.19-38.38 38.37z" fill="#ffefca"/><path d="m13 43h-4l36-36h4z" fill="#ffefca"/><path d="m51.5 30 1.24 2.26 2.26 1.24-2.26 1.24-1.24 2.26-1.24-2.26-2.26-1.24 2.26-1.24z" fill="#fff8f8"/><path d="m46.42 12 .85 1.56 1.57.86-1.57.85-.85 1.57-.86-1.57-1.56-.85 1.56-.86z" fill="#fff8f8"/><path d="m61 42a1 1 0 0 1 -1 1h-8.67s.67 4 1.67 8c-5 1-11-8-11-8h-28a3 3 0 0 1 -3-3v-2h46a4 4 0 0 1 4 4z" fill="#f6d397"/><path d="m30 51h-11s-4 8-9 7c1-4 1.67-7 1.67-7h-5.67a3 3 0 0 1 -3-3v-20a3 3 0 0 1 3-3h24a3 3 0 0 1 3 3v20a3 3 0 0 1 -3 3z" fill="#85cbf8"/><path d="m19 30h-2a5 5 0 0 0 -5 5v6a5 5 0 0 0 5 5h2a4.93 4.93 0 0 0 1.43-.23l.64 1.6a1 1 0 0 0 1.86-.74l-.73-1.82a5 5 0 0 0 1.8-3.81v-6a5 5 0 0 0 -5-5zm1.93 11.63a1 1 0 0 0 -1.86.74l.62 1.54a3 3 0 0 1 -.69.09h-2a3 3 0 0 1 -3-3v-6a3 3 0 0 1 3-3h2a3 3 0 0 1 3 3v6a3 3 0 0 1 -.61 1.79z" fill="#f9efde"/><g fill="#8d6c9f"><path d="m59 6h-46a3 3 0 0 0 -3 3v15h-5a3 3 0 0 0 -3 3v22a3 3 0 0 0 3 3h5.21a12 12 0 0 1 -1.14 5.63 1 1 0 0 0 .93 1.37h.14a10.16 10.16 0 0 0 8.62-7h12.24a3 3 0 0 0 3-3v-5h7.34c.84 1.74 3.72 6.26 11.44 8h.22a1 1 0 0 0 .86-1.51c-1.89-3.15-2.07-5.42-2-6.49h7.14a3 3 0 0 0 3-3v-32a3 3 0 0 0 -3-3zm-27 43a1 1 0 0 1 -1 1h-13a1 1 0 0 0 -1 .83 7.87 7.87 0 0 1 -5.46 5.8c1.26-4 .45-5.86.34-6.08a1 1 0 0 0 -.88-.55h-6a1 1 0 0 1 -1-1v-22a1 1 0 0 1 1-1h26a1 1 0 0 1 1 1zm28-8a1 1 0 0 1 -1 1h-8a1 1 0 0 0 -.95.68c0 .12-.83 2.63 1 6.74-6.46-2.19-8-6.54-8.1-6.74a1 1 0 0 0 -.95-.68h-8v-15a3 3 0 0 0 -1.49-2.58l3.49-8.73 4.92 12.31h-3.92a1 1 0 0 0 0 2h4.72l1.35 3.37a1 1 0 0 0 1.86-.74l-8-20a1 1 0 0 0 -1.86 0l-4.55 11.37h-18.52v-15a1 1 0 0 1 1-1h46a1 1 0 0 1 1 1z"/><path d="m57 36a1 1 0 0 0 -1 1v2a1 1 0 0 0 2 0v-2a1 1 0 0 0 -1-1z"/><path d="m52 36a1 1 0 0 0 -1 1v2a1 1 0 0 0 2 0v-2a1 1 0 0 0 -1-1z"/><path d="m47 36a1 1 0 0 0 -1 1v2a1 1 0 0 0 2 0v-2a1 1 0 0 0 -1-1z"/><path d="m42 36a1 1 0 0 0 -1 1v2a1 1 0 0 0 2 0v-2a1 1 0 0 0 -1-1z"/><path d="m37 36a1 1 0 0 0 -1 1v2a1 1 0 0 0 2 0v-2a1 1 0 0 0 -1-1z"/></g></svg>