<svg height="128" viewBox="0 0 64 64" width="128" xmlns="http://www.w3.org/2000/svg"><circle cx="30" cy="29" fill="#72caaf" r="28"/><path d="m30 1a28 28 0 1 0 28 28 28 28 0 0 0 -28-28zm0 50a22 22 0 1 1 15.17-37.93l.68.67q.39.4.75.82a22 22 0 0 1 -16.6 36.44z" fill="#f9e3ae"/><path d="m30 51a22 22 0 0 1 -22-22h-3.92a2 2 0 0 0 -2 2.15 28 28 0 0 0 55.52 2.55 4 4 0 0 0 -3.94-4.7h-1.66a22 22 0 0 1 -22 22z" fill="#f6d397"/><g fill="#8d6c9f"><path d="m33.67 6.29a23 23 0 0 0 -26.67 22.71 22.84 22.84 0 0 0 6.75 16.28 1 1 0 0 0 1.41-1.42 21 21 0 0 1 14.84-35.86 21.19 21.19 0 0 1 3.35.27 1 1 0 0 0 .32-2z"/><path d="m59 29a29 29 0 1 0 -30 29h2a29 29 0 0 0 28-29zm-28 27h-2a27 27 0 1 1 2 0z"/><path d="m37 48.08a1 1 0 0 0 -1.93.52l.52 1.93a1 1 0 0 0 1.94-.53z"/><path d="m17.75 49a1 1 0 0 0 1.37-.37l1-1.73a1 1 0 0 0 -1.73-1l-1 1.73a1 1 0 0 0 .36 1.37z"/><path d="m41.62 45.89a1 1 0 0 0 -1.73 1l1 1.73a1 1 0 0 0 1.73-1z"/><path d="m23.18 51.23a1 1 0 0 0 1.22-.71l.52-1.93a1 1 0 0 0 -1.92-.51l-.53 1.92a1 1 0 0 0 .71 1.23z"/><path d="m40.35 8.46a22.82 22.82 0 0 0 -2.3-1 1 1 0 1 0 -.7 1.87 21.2 21.2 0 0 1 2.1.92 1 1 0 1 0 .9-1.79z"/><path d="m46.26 12.74a23.35 23.35 0 0 0 -2.09-1.86 1 1 0 1 0 -1.23 1.57 21.35 21.35 0 0 1 1.91 1.7 21 21 0 0 1 0 29.7 1 1 0 1 0 1.41 1.41 23 23 0 0 0 0-32.52z"/></g><path d="m27 63v-29l-4 4-4-4 11-11 11 11-4 4-4-4v29z" fill="#faefde"/><path d="m29.29 22.29-11 11a1 1 0 0 0 0 1.41l4 4a1 1 0 0 0 1.41 0l2.3-2.29v26.59a1 1 0 0 0 1 1h6a1 1 0 0 0 1-1v-26.59l2.29 2.29a1 1 0 0 0 1.41 0l4-4a1 1 0 0 0 0-1.41l-11-11a1 1 0 0 0 -1.41 0zm10.3 11.71-2.59 2.59-3.29-3.29a1 1 0 0 0 -1.71.7v28h-4v-28a1 1 0 0 0 -1.71-.71l-3.29 3.3-2.59-2.59 9.59-9.59z" fill="#8d6c9f"/></svg>