<svg height="128" viewBox="0 0 64 64" width="128" xmlns="http://www.w3.org/2000/svg"><rect fill="#85cbf8" height="50" rx="2" width="54" x="5" y="7"/><path d="m9 52h46a4 4 0 0 1 4 4 1 1 0 0 1 -1 1h-52a1 1 0 0 1 -1-1 4 4 0 0 1 4-4z" fill="#6fc6f0"/><g fill="#8d6c9f"><path d="m57 6h-50a3 3 0 0 0 -3 3v46a3 3 0 0 0 3 3h50a3 3 0 0 0 3-3v-46a3 3 0 0 0 -3-3zm1 49a1 1 0 0 1 -1 1h-50a1 1 0 0 1 -1-1v-46a1 1 0 0 1 1-1h50a1 1 0 0 1 1 1z"/><path d="m14 50a1 1 0 0 0 -1 1v2a1 1 0 0 0 2 0v-2a1 1 0 0 0 -1-1z"/><path d="m9 50a1 1 0 0 0 -1 1v2a1 1 0 0 0 2 0v-2a1 1 0 0 0 -1-1z"/><path d="m29 50a1 1 0 0 0 -1 1v2a1 1 0 0 0 2 0v-2a1 1 0 0 0 -1-1z"/><path d="m34 50a1 1 0 0 0 -1 1v2a1 1 0 0 0 2 0v-2a1 1 0 0 0 -1-1z"/><path d="m39 50a1 1 0 0 0 -1 1v2a1 1 0 0 0 2 0v-2a1 1 0 0 0 -1-1z"/><path d="m44 50a1 1 0 0 0 -1 1v2a1 1 0 0 0 2 0v-2a1 1 0 0 0 -1-1z"/><path d="m49 50a1 1 0 0 0 -1 1v2a1 1 0 0 0 2 0v-2a1 1 0 0 0 -1-1z"/><path d="m54 50a1 1 0 0 0 -1 1v2a1 1 0 0 0 2 0v-2a1 1 0 0 0 -1-1z"/><path d="m19 50a1 1 0 0 0 -1 1v2a1 1 0 0 0 2 0v-2a1 1 0 0 0 -1-1z"/><path d="m24 50a1 1 0 0 0 -1 1v2a1 1 0 0 0 2 0v-2a1 1 0 0 0 -1-1z"/></g><path d="m47 20h-4a1 1 0 0 0 0 2h4a1 1 0 0 0 0-2z" fill="#faefde"/><path d="m17 22h22a1 1 0 0 0 0-2h-22a1 1 0 0 0 0 2z" fill="#faefde"/><path d="m17 28h26a1 1 0 0 0 0-2h-26a1 1 0 0 0 0 2z" fill="#faefde"/><path d="m45 38h-28a1 1 0 0 0 0 2h28a1 1 0 0 0 0-2z" fill="#faefde"/><path d="m17 34h20a1 1 0 0 0 0-2h-20a1 1 0 0 0 0 2z" fill="#faefde"/></svg>