<svg height="128" viewBox="0 0 64 64" width="128" xmlns="http://www.w3.org/2000/svg"><rect fill="#cda1a7" height="56" rx="2" width="50" x="7" y="5"/><rect fill="#deb4ba" height="48" rx="1" transform="matrix(0 -1 1 0 25 39)" width="2" x="31" y="-17"/><path d="m13 55h30l8-8v-36h-38z" fill="#faefde"/><path d="m43 47h8l-8 8z" fill="#bbdef9"/><path d="m51 35.47v-20.84l-33.43 40.25h16.31z" fill="#fff7f0"/><path d="m13.4 53.4 35.1-42.4h-4.5l-31.5 38.6z" fill="#fff7f0"/><path d="m13 43.42 26.5-32.42h-1.5l-25 30.53z" fill="#fff7f0"/><path d="m45.5 29 1.24 2.26 2.26 1.24-2.26 1.24-1.24 2.26-1.24-2.26-2.26-1.24 2.26-1.24z" fill="#fff"/><path d="m42 6-10-5-10 5-1 7h22z" fill="#f9e3ae"/><path d="m29.42 20 .85 1.56 1.57.86-1.57.85-.85 1.57-.86-1.57-1.56-.85 1.56-.86z" fill="#fff"/><path d="m23.65 49 .58 1.06 1.07.59-1.07.58-.58 1.07-.58-1.07-1.07-.58 1.07-.59z" fill="#fff"/><g fill="#8d6c9f"><path d="m55 4h-14.42l-2.7-2a10 10 0 0 0 -11.76 0l-2.7 2h-14.42a3 3 0 0 0 -3 3v52a3 3 0 0 0 3 3h46a3 3 0 0 0 3-3v-52a3 3 0 0 0 -3-3zm-27.71-.34a8 8 0 0 1 9.42 0l.47.34 2.74 2 .84.61a3 3 0 0 1 1.24 2.39v2a1 1 0 0 1 -1 1h-18a1 1 0 0 1 -1-1v-2a3 3 0 0 1 1.24-2.43l.84-.57 2.74-2zm22.71 42.34h-6a2 2 0 0 0 -2 2v6h-28v-42h6.18a3 3 0 0 0 2.82 2h18a3 3 0 0 0 2.82-2h6.18zm-1.41 2-4.59 4.59v-4.59zm7.41 11a1 1 0 0 1 -1 1h-46a1 1 0 0 1 -1-1v-52a1 1 0 0 1 1-1h12a5 5 0 0 0 -1 3v1h-6a2 2 0 0 0 -2 2v42a2 2 0 0 0 2 2h28.17a3 3 0 0 0 2.12-.88l6.83-6.83a3 3 0 0 0 .88-2.12v-34.17a2 2 0 0 0 -2-2h-6v-1a5 5 0 0 0 -1-3h12a1 1 0 0 1 1 1z"/><path d="m17 16a1 1 0 0 0 -1 1v2a1 1 0 0 0 2 0v-2a1 1 0 0 0 -1-1z"/><path d="m22 20a1 1 0 0 0 1-1v-2a1 1 0 0 0 -2 0v2a1 1 0 0 0 1 1z"/><path d="m27 20a1 1 0 0 0 1-1v-2a1 1 0 0 0 -2 0v2a1 1 0 0 0 1 1z"/><path d="m32 20a1 1 0 0 0 1-1v-2a1 1 0 0 0 -2 0v2a1 1 0 0 0 1 1z"/><path d="m37 20a1 1 0 0 0 1-1v-2a1 1 0 0 0 -2 0v2a1 1 0 0 0 1 1z"/><path d="m42 20a1 1 0 0 0 1-1v-2a1 1 0 0 0 -2 0v2a1 1 0 0 0 1 1z"/><path d="m47 20a1 1 0 0 0 1-1v-2a1 1 0 0 0 -2 0v2a1 1 0 0 0 1 1z"/><circle cx="32" cy="6" r="2"/><path d="m26 27a1 1 0 0 0 1 1h18a1 1 0 0 0 0-2h-18a1 1 0 0 0 -1 1z"/><path d="m27 36h14a1 1 0 0 0 0-2h-14a1 1 0 0 0 0 2z"/><path d="m43 42h-16a1 1 0 0 0 0 2h16a1 1 0 0 0 0-2z"/><path d="m20.46 25.83.54-.27v3.44a1 1 0 0 0 2 0v-5a1 1 0 0 0 -1.44-.9l-2 1a1 1 0 1 0 .89 1.79z"/><path d="m22.16 41h-1.69a1 1 0 0 0 0 2h1.53v.57h-.69a1 1 0 0 0 0 2h.69v.43h-1.53a1 1 0 0 0 0 2h1.69a1.85 1.85 0 0 0 1.84-1.83v-3.38a1.85 1.85 0 0 0 -1.84-1.79z"/><path d="m20.48 32a1 1 0 0 0 0 2h1.52v.5h-.67a1.84 1.84 0 0 0 -1.83 1.83v.83a1.84 1.84 0 0 0 1.83 1.83h1.67a1 1 0 0 0 0-2h-1.5v-.5h.67a1.84 1.84 0 0 0 1.83-1.87v-.83a1.84 1.84 0 0 0 -1.85-1.79z"/></g></svg>