<svg height="128" viewBox="0 0 64 64" width="128" xmlns="http://www.w3.org/2000/svg"><rect fill="#85cbf8" height="20" rx="2" width="20" x="7" y="37"/><path d="m10 47h14a3 3 0 0 1 3 3v5a2 2 0 0 1 -2 2h-16a2 2 0 0 1 -2-2v-5a3 3 0 0 1 3-3z" fill="#6fc6f0"/><rect fill="#85cbf8" height="20" rx="2" width="20" x="37" y="7"/><path d="m40 17h14a3 3 0 0 1 3 3v5a2 2 0 0 1 -2 2h-16a2 2 0 0 1 -2-2v-5a3 3 0 0 1 3-3z" fill="#6fc6f0"/><path d="m27 13h10v6h-10z" fill="#f9dd8f"/><path d="m27 45h10v6h-10z" fill="#f9dd8f"/><rect fill="#ed7899" height="20" rx="2" width="20" x="7" y="7"/><rect fill="#85cbf8" height="20" rx="2" width="20" x="37" y="37"/><path d="m13 27h6v10h-6z" fill="#f9dd8f"/><path d="m45 27h6v10h-6z" fill="#f9dd8f"/><g fill="#8d6c9f"><path d="m55 28a3 3 0 0 0 3-3v-16a3 3 0 0 0 -3-3h-16a3 3 0 0 0 -3 3v3h-8v-3a3 3 0 0 0 -3-3h-16a3 3 0 0 0 -3 3v16a3 3 0 0 0 3 3h3v8h-3a3 3 0 0 0 -3 3v16a3 3 0 0 0 3 3h16a3 3 0 0 0 3-3v-3h8v3a3 3 0 0 0 3 3h16a3 3 0 0 0 3-3v-16a3 3 0 0 0 -3-3h-3v-8zm-17-19a1 1 0 0 1 1-1h16a1 1 0 0 1 1 1v16a1 1 0 0 1 -1 1h-16a1 1 0 0 1 -1-1zm6 27h-5a3 3 0 0 0 -3 3v5h-8v-5a3 3 0 0 0 -3-3h-5v-8h5a3 3 0 0 0 3-3v-5h8v5a3 3 0 0 0 3 3h5zm-8-22v4h-8v-4zm-28 11v-16a1 1 0 0 1 1-1h16a1 1 0 0 1 1 1v16a1 1 0 0 1 -1 1h-16a1 1 0 0 1 -1-1zm6 3h4v8h-4zm12 27a1 1 0 0 1 -1 1h-16a1 1 0 0 1 -1-1v-16a1 1 0 0 1 1-1h16a1 1 0 0 1 1 1zm2-5v-1.94s0 0 0-.06v-2h8v4zm28-11v16a1 1 0 0 1 -1 1h-16a1 1 0 0 1 -1-1v-16a1 1 0 0 1 1-1h16a1 1 0 0 1 1 1zm-6-3h-4v-8h4z"/><path d="m12 45a1 1 0 0 0 -1 1v2a1 1 0 0 0 2 0v-2a1 1 0 0 0 -1-1z"/><path d="m17 45a1 1 0 0 0 -1 1v2a1 1 0 0 0 2 0v-2a1 1 0 0 0 -1-1z"/><path d="m22 45a1 1 0 0 0 -1 1v2a1 1 0 0 0 2 0v-2a1 1 0 0 0 -1-1z"/><path d="m42 19a1 1 0 0 0 1-1v-2a1 1 0 0 0 -2 0v2a1 1 0 0 0 1 1z"/><path d="m47 19a1 1 0 0 0 1-1v-2a1 1 0 0 0 -2 0v2a1 1 0 0 0 1 1z"/><path d="m52 19a1 1 0 0 0 1-1v-2a1 1 0 0 0 -2 0v2a1 1 0 0 0 1 1z"/></g></svg>