<svg height="128" viewBox="0 0 64 64" width="128" xmlns="http://www.w3.org/2000/svg"><circle cx="31" cy="31" fill="#72caaf" r="28"/><circle cx="31" cy="31" fill="#88d7b6" r="12"/><g fill="#8d6c9f"><path d="m31 37a1 1 0 0 0 -1 1v2a1 1 0 0 0 2 0v-2a1 1 0 0 0 -1-1z"/><path d="m30 22v2a1 1 0 0 0 2 0v-2a1 1 0 0 0 -2 0z"/><path d="m38 32h2a1 1 0 0 0 0-2h-2a1 1 0 0 0 0 2z"/><path d="m25 31a1 1 0 0 0 -1-1h-2a1 1 0 0 0 0 2h2a1 1 0 0 0 1-1z"/><path d="m38.07 36.66-1.41-1.41a1 1 0 0 0 -1.41 1.41l1.41 1.41a1 1 0 0 0 1.41-1.41z"/><path d="m23.93 25.34 1.41 1.41a1 1 0 0 0 1.41-1.41l-1.41-1.41a1 1 0 0 0 -1.41 1.41z"/><path d="m38.07 23.93a1 1 0 0 0 -1.41 0l-1.41 1.41a1 1 0 1 0 1.41 1.41l1.41-1.41a1 1 0 0 0 0-1.41z"/><path d="m24.64 38.36a1 1 0 0 0 .71-.29l1.41-1.41a1 1 0 0 0 -1.41-1.41l-1.41 1.41a1 1 0 0 0 .71 1.71z"/><path d="m31 2a29 29 0 1 0 29 29 29 29 0 0 0 -29-29zm0 56a27 27 0 1 1 27-27 27 27 0 0 1 -27 27z"/></g><path d="m12.41 35.07a1 1 0 0 0 .83-1.15 18 18 0 0 1 8.76-18.51v4.59a1 1 0 0 0 2 0v-7a1 1 0 0 0 -1-1h-7.08a1 1 0 0 0 0 2h4.57a20 20 0 0 0 -9.22 20.24 1 1 0 0 0 1 .84z" fill="#faefde"/><path d="m33.84 48.78a18 18 0 0 1 -18.42-8.78h4.58a1 1 0 0 0 0-2h-7a1 1 0 0 0 -1 1v7.08a1 1 0 0 0 2 0v-4.56a20 20 0 0 0 20.15 9.24 1 1 0 1 0 -.31-2z" fill="#faefde"/><path d="m51 31a20.18 20.18 0 0 0 -.26-3.22 1 1 0 1 0 -2 .32 18 18 0 0 1 -8.74 18.48v-4.58a1 1 0 0 0 -2 0v7a1 1 0 0 0 1 1h7.08a1 1 0 0 0 0-2h-4.56a20.08 20.08 0 0 0 9.48-17z" fill="#faefde"/><path d="m34.64 13.37a18.1 18.1 0 0 1 11.94 8.63h-4.58a1 1 0 0 0 0 2h7a1 1 0 0 0 1-1v-7.08a1 1 0 0 0 -2 0v4.55a20.11 20.11 0 0 0 -13-9.06 1 1 0 1 0 -.4 2z" fill="#faefde"/><path d="m28 13.23h.16a18.17 18.17 0 0 1 2.43-.23 1 1 0 0 0 0-2 20.14 20.14 0 0 0 -2.69.24 1 1 0 0 0 .15 2z" fill="#faefde"/></svg>