<svg height="128" viewBox="0 0 64 64" width="128" xmlns="http://www.w3.org/2000/svg"><rect fill="#7bbeeb" height="42" rx="2" width="50" x="10" y="7"/><rect fill="#85cbf8" height="42" rx="2" width="50" x="2" y="17"/><path d="m3 17h48a1 1 0 0 1 1 1v9a0 0 0 0 1 0 0h-50a0 0 0 0 1 0 0v-9a1 1 0 0 1 1-1z" fill="#ced8ed"/><path d="m8 35h16v14h-16z" fill="#f9efde"/><path d="m11 7h48a1 1 0 0 1 1 1v9a0 0 0 0 1 0 0h-50a0 0 0 0 1 0 0v-9a1 1 0 0 1 1-1z" fill="#ced8ed"/><g fill="#8d6c9f"><path d="m58 6h-46a3 3 0 0 0 -3 3v7h-5a3 3 0 0 0 -3 3v38a3 3 0 0 0 3 3h46a3 3 0 0 0 3-3v-7h5a3 3 0 0 0 3-3v-38a3 3 0 0 0 -3-3zm-54 12h46a1 1 0 0 1 1 1v7h-48v-7a1 1 0 0 1 1-1zm47 39a1 1 0 0 1 -1 1h-46a1 1 0 0 1 -1-1v-29h48zm7-9h-5v-29a3 3 0 0 0 -3-3h-39v-7a1 1 0 0 1 1-1h46a1 1 0 0 1 1 1v7h-4a1 1 0 0 0 0 2h4v29a1 1 0 0 1 -1 1z"/><path d="m25 10a1 1 0 0 0 -1 1v2a1 1 0 0 0 2 0v-2a1 1 0 0 0 -1-1z"/><path d="m20 10a1 1 0 0 0 -1 1v2a1 1 0 0 0 2 0v-2a1 1 0 0 0 -1-1z"/><path d="m15 10a1 1 0 0 0 -1 1v2a1 1 0 0 0 2 0v-2a1 1 0 0 0 -1-1z"/><path d="m40 10a1 1 0 0 0 -1 1v2a1 1 0 0 0 2 0v-2a1 1 0 0 0 -1-1z"/><path d="m45 10a1 1 0 0 0 -1 1v2a1 1 0 0 0 2 0v-2a1 1 0 0 0 -1-1z"/><path d="m50 10a1 1 0 0 0 -1 1v2a1 1 0 0 0 2 0v-2a1 1 0 0 0 -1-1z"/><path d="m55 14a1 1 0 0 0 1-1v-2a1 1 0 0 0 -2 0v2a1 1 0 0 0 1 1z"/><path d="m30 10a1 1 0 0 0 -1 1v2a1 1 0 0 0 2 0v-2a1 1 0 0 0 -1-1z"/><path d="m35 10a1 1 0 0 0 -1 1v2a1 1 0 0 0 2 0v-2a1 1 0 0 0 -1-1z"/><path d="m17 24a1 1 0 0 0 1-1v-2a1 1 0 0 0 -2 0v2a1 1 0 0 0 1 1z"/><path d="m12 24a1 1 0 0 0 1-1v-2a1 1 0 0 0 -2 0v2a1 1 0 0 0 1 1z"/><path d="m7 24a1 1 0 0 0 1-1v-2a1 1 0 0 0 -2 0v2a1 1 0 0 0 1 1z"/><path d="m32 24a1 1 0 0 0 1-1v-2a1 1 0 0 0 -2 0v2a1 1 0 0 0 1 1z"/><path d="m37 24a1 1 0 0 0 1-1v-2a1 1 0 0 0 -2 0v2a1 1 0 0 0 1 1z"/><path d="m42 24a1 1 0 0 0 1-1v-2a1 1 0 0 0 -2 0v2a1 1 0 0 0 1 1z"/><path d="m47 24a1 1 0 0 0 1-1v-2a1 1 0 0 0 -2 0v2a1 1 0 0 0 1 1z"/><path d="m22 24a1 1 0 0 0 1-1v-2a1 1 0 0 0 -2 0v2a1 1 0 0 0 1 1z"/><path d="m27 24a1 1 0 0 0 1-1v-2a1 1 0 0 0 -2 0v2a1 1 0 0 0 1 1z"/><path d="m46 34h-4a1 1 0 0 0 0 2h4a1 1 0 0 0 0-2z"/><path d="m30 36h8a1 1 0 0 0 0-2h-8a1 1 0 0 0 0 2z"/><path d="m46 38h-16a1 1 0 0 0 0 2h16a1 1 0 0 0 0-2z"/></g><path d="m39 48h-9a1 1 0 0 0 0 2h9a1 1 0 0 0 0-2z" fill="#f9efde"/><path d="m43 44h-13a1 1 0 0 0 0 2h13a1 1 0 0 0 0-2z" fill="#f9efde"/><path d="m24 34h-16a1 1 0 0 0 -1 1v14a1 1 0 0 0 1 1h16a1 1 0 0 0 1-1v-14a1 1 0 0 0 -1-1zm-1 14h-14v-12h14z" fill="#8d6c9f"/></svg>