<svg height="128" viewBox="0 0 64 64" width="128" xmlns="http://www.w3.org/2000/svg"><rect fill="#ced8ed" height="10" rx="1" width="54" x="5" y="9"/><path d="m5 19h54v35h-54z" fill="#c5e4fa"/><path d="m39.76 55 19.24-19.24v-16.68h-2.57l-35.92 35.92z" fill="#e3f2ff"/><path d="m8.9 55h7.7l35.92-35.92h-7.7z" fill="#e3f2ff"/><path d="m5 53.2v.8h.48l34.92-34.92h-1.28z" fill="#e3f2ff"/><rect fill="#ffeb9b" height="10" rx="1" width="10" x="27" y="25.12"/><rect fill="#ed7899" height="10" rx="1" width="10" x="41" y="25.12"/><rect fill="#72caaf" height="10" rx="1" width="10" x="13" y="25.12"/><rect fill="#ed7899" height="10" rx="1" width="10" x="27" y="39.12"/><rect fill="#72caaf" height="10" rx="1" width="10" x="41" y="39.12"/><rect fill="#85cbf8" height="10" rx="1" width="10" x="13" y="39.12"/><g fill="#8d6c9f"><path d="m57 8h-50a3 3 0 0 0 -3 3v42a3 3 0 0 0 3 3h50a3 3 0 0 0 3-3v-42a3 3 0 0 0 -3-3zm-50 2h50a1 1 0 0 1 1 1v7h-52v-7a1 1 0 0 1 1-1zm50 44h-50a1 1 0 0 1 -1-1v-33h52v33a1 1 0 0 1 -1 1z"/><path d="m19 16a1 1 0 0 0 1-1v-2a1 1 0 0 0 -2 0v2a1 1 0 0 0 1 1z"/><path d="m14 16a1 1 0 0 0 1-1v-2a1 1 0 0 0 -2 0v2a1 1 0 0 0 1 1z"/><path d="m9 16a1 1 0 0 0 1-1v-2a1 1 0 0 0 -2 0v2a1 1 0 0 0 1 1z"/><path d="m34 16a1 1 0 0 0 1-1v-2a1 1 0 0 0 -2 0v2a1 1 0 0 0 1 1z"/><path d="m39 16a1 1 0 0 0 1-1v-2a1 1 0 0 0 -2 0v2a1 1 0 0 0 1 1z"/><path d="m44 16a1 1 0 0 0 1-1v-2a1 1 0 0 0 -2 0v2a1 1 0 0 0 1 1z"/><path d="m49 16a1 1 0 0 0 1-1v-2a1 1 0 0 0 -2 0v2a1 1 0 0 0 1 1z"/><path d="m54 16a1 1 0 0 0 1-1v-2a1 1 0 0 0 -2 0v2a1 1 0 0 0 1 1z"/><path d="m24 16a1 1 0 0 0 1-1v-2a1 1 0 0 0 -2 0v2a1 1 0 0 0 1 1z"/><path d="m29 16a1 1 0 0 0 1-1v-2a1 1 0 0 0 -2 0v2a1 1 0 0 0 1 1z"/><path d="m22 24.12h-8a2 2 0 0 0 -2 2v8a2 2 0 0 0 2 2h8a2 2 0 0 0 2-2v-8a2 2 0 0 0 -2-2zm-8 10v-8h8v8z"/><path d="m36 24.12h-8a2 2 0 0 0 -2 2v8a2 2 0 0 0 2 2h8a2 2 0 0 0 2-2v-8a2 2 0 0 0 -2-2zm-8 10v-8h8v8z"/><path d="m22 38.12h-8a2 2 0 0 0 -2 2v8a2 2 0 0 0 2 2h8a2 2 0 0 0 2-2v-8a2 2 0 0 0 -2-2zm-8 10v-8h8v8z"/><path d="m36 38.12h-8a2 2 0 0 0 -2 2v8a2 2 0 0 0 2 2h8a2 2 0 0 0 2-2v-8a2 2 0 0 0 -2-2zm-8 10v-8h8v8z"/><path d="m50 38.12h-8a2 2 0 0 0 -2 2v8a2 2 0 0 0 2 2h8a2 2 0 0 0 2-2v-8a2 2 0 0 0 -2-2zm-8 10v-8h8v8z"/><path d="m50 24.12h-8a2 2 0 0 0 -2 2v8a2 2 0 0 0 2 2h8a2 2 0 0 0 2-2v-8a2 2 0 0 0 -2-2zm-8 10v-8h8v8z"/></g></svg>