<svg height="128" viewBox="0 0 64 64" width="128" xmlns="http://www.w3.org/2000/svg"><path d="m35.12 49h-17.12a17 17 0 0 1 -17-17 17 17 0 0 1 17-17h17.06" fill="#7dd8ba"/><path d="m5.63 32a4 4 0 0 0 -3.81 5.24 17 17 0 0 0 16.18 11.76h17.12v-17z" fill="#72caaf"/><circle cx="44" cy="32" fill="#c2cde7" r="19"/><circle cx="44" cy="32" fill="#d6dff2" r="14"/><g fill="#8d6c9f"><path d="m44 12a19.84 19.84 0 0 0 -8.74 2 1 1 0 0 0 -.2 0h-17.06a18 18 0 0 0 0 36h17.12a1 1 0 0 0 .15 0 20 20 0 1 0 8.73-38zm-26 36a16 16 0 0 1 0-32h14.05a19.92 19.92 0 0 0 0 32zm26 2a18 18 0 1 1 18-18 18 18 0 0 1 -18 18z"/><path d="m55.8 22.74a1 1 0 1 0 -1.57 1.26 13 13 0 0 1 -1 17.2 1 1 0 1 0 1.42 1.41 15 15 0 0 0 1.15-19.87z"/><path d="m52.67 19.76a15 15 0 0 0 -2.21-1.3 1 1 0 1 0 -.86 1.8 13.06 13.06 0 0 1 1.92 1.13 1 1 0 1 0 1.16-1.63z"/><path d="m46.14 17.15a15 15 0 0 0 -17.14 14.85 14.9 14.9 0 0 0 1.2 5.9 1 1 0 0 0 1.8-.79 13 13 0 0 1 12-18.11 13.21 13.21 0 0 1 1.86.13 1 1 0 0 0 .28-2z"/><path d="m44 43a1 1 0 0 0 -1 1v2a1 1 0 0 0 2 0v-2a1 1 0 0 0 -1-1z"/><path d="m39.88 42.2a1 1 0 0 0 -1.3.55l-.75 1.85a1 1 0 1 0 1.85.75l.75-1.85a1 1 0 0 0 -.55-1.3z"/><path d="m49.42 42.75a1 1 0 0 0 -1.85.75l.75 1.85a1 1 0 0 0 1.85-.75z"/><path d="m34.94 39.94-1.39 1.44a1 1 0 1 0 1.45 1.39l1.39-1.44a1 1 0 0 0 -1.44-1.39z"/></g></svg>