<svg height="128" viewBox="0 0 64 64" width="128" xmlns="http://www.w3.org/2000/svg"><path d="m57 53h-51a3 3 0 0 1 -3-3v-38a3 3 0 0 1 3-3h15l9 6h24a3 3 0 0 1 3 3z" fill="#faefde"/><path d="m6 9h16l7 7h-26v-4a3 3 0 0 1 3-3z" fill="#fff7f0"/><path d="m57 19h4a2 2 0 0 1 2 2v29a3 3 0 0 1 -3 3h-3a0 0 0 0 1 0 0v-34a0 0 0 0 1 0 0z" fill="#cda1a7"/><path d="m3 43h54a0 0 0 0 1 0 0v10a0 0 0 0 1 0 0h-51a3 3 0 0 1 -3-3v-7a0 0 0 0 1 0 0z" fill="#efd8be"/><g fill="#8d6c9f"><path d="m61 18h-3v-1a3 3 0 0 0 -3-3h-25.29a3 3 0 0 1 -2.11-.87l-3.73-3.68a5 5 0 0 0 -3.51-1.45h-15.36a3 3 0 0 0 -3 3v39a4 4 0 0 0 4 4h54a4 4 0 0 0 4-4v-29a3 3 0 0 0 -3-3zm-55 34a2 2 0 0 1 -2-2v-6h21a1 1 0 0 0 0-2h-21v-31a1 1 0 0 1 1-1h15.36a3 3 0 0 1 2.11.87l3.72 3.69a5 5 0 0 0 3.52 1.44h25.29a1 1 0 0 1 1 1v25h-17a1 1 0 0 0 0 2h17v6a3.94 3.94 0 0 0 .63 2zm56-2a2 2 0 0 1 -2 2 2.26 2.26 0 0 1 -2-2v-30h3a1 1 0 0 1 1 1z"/><path d="m6 46a1 1 0 0 0 -1 1v2a1 1 0 0 0 2 0v-2a1 1 0 0 0 -1-1z"/><path d="m11 46a1 1 0 0 0 -1 1v2a1 1 0 0 0 2 0v-2a1 1 0 0 0 -1-1z"/><path d="m16 46a1 1 0 0 0 -1 1v2a1 1 0 0 0 2 0v-2a1 1 0 0 0 -1-1z"/><path d="m21 46a1 1 0 0 0 -1 1v2a1 1 0 0 0 2 0v-2a1 1 0 0 0 -1-1z"/><path d="m26 46a1 1 0 0 0 -1 1v2a1 1 0 0 0 2 0v-2a1 1 0 0 0 -1-1z"/><path d="m38 46a1 1 0 0 0 -1 1v2a1 1 0 0 0 2 0v-2a1 1 0 0 0 -1-1z"/><path d="m43 46a1 1 0 0 0 -1 1v2a1 1 0 0 0 2 0v-2a1 1 0 0 0 -1-1z"/><path d="m48 46a1 1 0 0 0 -1 1v2a1 1 0 0 0 2 0v-2a1 1 0 0 0 -1-1z"/><path d="m53 46a1 1 0 0 0 -1 1v2a1 1 0 0 0 2 0v-2a1 1 0 0 0 -1-1z"/></g><path d="m29 61v-27l-4 4-4-4 11-11 11 11-4 4-4-4v27z" fill="#c2cde7"/><path d="m31.29 22.29-11 11a1 1 0 0 0 0 1.41l4 4a1 1 0 0 0 1.41 0l2.3-2.29v24.59a1 1 0 0 0 1 1h6a1 1 0 0 0 1-1v-24.59l2.29 2.29a1 1 0 0 0 1.41 0l4-4a1 1 0 0 0 0-1.41l-11-11a1 1 0 0 0 -1.41 0zm10.3 11.71-2.59 2.59-3.29-3.29a1 1 0 0 0 -1.71.7v26h-4v-26a1 1 0 0 0 -1.71-.71l-3.29 3.3-2.59-2.59 9.59-9.59z" fill="#8d6c9f"/></svg>