<svg height="128" viewBox="0 0 64 64" width="128" xmlns="http://www.w3.org/2000/svg"><rect fill="#faefde" height="48" rx="2" width="39" x="14" y="5"/><path d="m12 5h7a0 0 0 0 1 0 0v48a0 0 0 0 1 0 0h-10a0 0 0 0 1 0 0v-45a3 3 0 0 1 3-3z" fill="#cda1a7"/><rect fill="#efd8be" height="6" rx="2" width="42" x="9" y="53"/><g fill="#8d6c9f"><path d="m19 8a1 1 0 0 0 -1 1v4a1 1 0 0 0 2 0v-4a1 1 0 0 0 -1-1z"/><path d="m51 4h-39a4 4 0 0 0 -4 4v48a4 4 0 0 0 4 4h37a3 3 0 0 0 3-3v-3.18a3 3 0 0 0 2-2.82v-44a3 3 0 0 0 -3-3zm-2 54h-37a2 2 0 0 1 -2-2 2.26 2.26 0 0 1 2-2h38v3a1 1 0 0 1 -1 1zm3-7a1 1 0 0 1 -1 1h-31v-35a1 1 0 0 0 -2 0v35h-6a3.94 3.94 0 0 0 -2 .63v-44.63a2 2 0 0 1 2-2h39a1 1 0 0 1 1 1z"/><path d="m15 8h-2a1 1 0 0 0 0 2h2a1 1 0 0 0 0-2z"/><path d="m15 13h-2a1 1 0 0 0 0 2h2a1 1 0 0 0 0-2z"/><path d="m15 18h-2a1 1 0 0 0 0 2h2a1 1 0 0 0 0-2z"/><path d="m15 23h-2a1 1 0 0 0 0 2h2a1 1 0 0 0 0-2z"/><path d="m15 28h-2a1 1 0 0 0 0 2h2a1 1 0 0 0 0-2z"/><path d="m15 33h-2a1 1 0 0 0 0 2h2a1 1 0 0 0 0-2z"/><path d="m15 38h-2a1 1 0 0 0 0 2h2a1 1 0 0 0 0-2z"/><path d="m15 43h-2a1 1 0 0 0 0 2h2a1 1 0 0 0 0-2z"/><path d="m15 48h-2a1 1 0 0 0 0 2h2a1 1 0 0 0 0-2z"/></g><path d="m35.34 35.7a4.59 4.59 0 0 1 -4.26-2.86l-1.27-3.12a4.06 4.06 0 0 0 -2.65-2.37.92.92 0 0 0 -1.17 1l.52 4.77a12.89 12.89 0 0 0 1.49 4.88s3 5 6.91 5h5.64a5 5 0 0 0 4.77-3.52 12.1 12.1 0 0 0 .68-4.03c0-3.45-.75-13.27-.75-13.27a1.65 1.65 0 0 0 -1.65-1.56 1.65 1.65 0 0 0 -1.65 1.65v5.62h-.15l-.28-8.89a1.63 1.63 0 0 0 -1.63-1.58 1.63 1.63 0 0 0 -1.63 1.58v8.86l-.37-10.95a1.42 1.42 0 0 0 -1.42-1.38 1.42 1.42 0 0 0 -1.47 1.41l-.37 10.95v-8.89a1.63 1.63 0 0 0 -1.63-1.6 1.63 1.63 0 0 0 -1.67 1.6l-.33 13.48" fill="#f9e3ae"/><path d="m40.55 44h-5.64c-4.43 0-7.64-5.31-7.77-5.54a14 14 0 0 1 -1.61-5.3l-.53-4.72a1.92 1.92 0 0 1 2.43-2.05 5 5 0 0 1 2.65 1.81l.25-9.2a2.63 2.63 0 0 1 3.67-2.37 2.42 2.42 0 0 1 4.79 0 2.63 2.63 0 0 1 3.73 2.37v.87a2.65 2.65 0 0 1 3.69 2.3c0 .38.75 9.87.75 13.32a13.09 13.09 0 0 1 -.74 4.45 5.92 5.92 0 0 1 -5.67 4.06zm-13.55-15.66.52 4.66a11.85 11.85 0 0 0 1.36 4.54s2.74 4.52 6 4.52h5.64a4 4 0 0 0 3.81-2.81 11.37 11.37 0 0 0 .67-3.81c0-3.37-.74-13.09-.75-13.19a.65.65 0 0 0 -1.3 0v5.62a1 1 0 0 1 -1 1h-.15a1 1 0 0 1 -1-1l-.28-8.87a.63.63 0 0 0 -1.26 0v8.86a1 1 0 0 1 -1 1 1 1 0 0 1 -1-1l-.41-10.86a.42.42 0 0 0 -.85 0l-.37 11a1 1 0 0 1 -1 1 1 1 0 0 1 -1-1v-9a.63.63 0 0 0 -1.25 0l-.38 13.39v.07a3.58 3.58 0 0 0 3.33 2.24 1 1 0 0 1 0 2 5.57 5.57 0 0 1 -5.18-3.49l-1.26-3.11a3 3 0 0 0 -1.89-1.76z" fill="#8d6c9f"/></svg>