<svg height="128" viewBox="0 0 64 64" width="128" xmlns="http://www.w3.org/2000/svg"><rect fill="#f9e3ae" height="20" rx="2" width="20" x="5" y="7"/><path d="m7 27h8v-20h-8a2 2 0 0 0 -2 2v16a2 2 0 0 0 2 2z" fill="#faefde"/><rect fill="#72caaf" height="16" rx="2" transform="matrix(.70710678 -.70710678 .70710678 .70710678 -20.3 49)" width="16" x="41" y="41"/><circle cx="49" cy="17" fill="#f283a5" r="11"/><circle cx="49" cy="17" fill="#ed7899" r="7"/><path d="m14.13 39.5-9.27 16a1 1 0 0 0 .87 1.5h18.54a1 1 0 0 0 .87-1.5l-9.27-16a1 1 0 0 0 -1.74 0z" fill="#85cbf8"/><path d="m58.42 50.41-8.5 8.49a2 2 0 0 1 -1.41.58v-21a2 2 0 0 1 1.41.58l8.49 8.49a2 2 0 0 1 .01 2.86z" fill="#5dbc9d"/><path d="m5.73 57h9.27v-18a1 1 0 0 0 -.87.5l-9.26 16a1 1 0 0 0 .86 1.5z" fill="#6fc6f0"/><g fill="#8d6c9f"><path d="m24 48v2a1 1 0 0 0 2 0v-2a1 1 0 0 0 -2 0z"/><path d="m30 47a1 1 0 0 0 -1 1v2a1 1 0 0 0 2 0v-2a1 1 0 0 0 -1-1z"/><path d="m35 47a1 1 0 0 0 -1 1v2a1 1 0 0 0 2 0v-2a1 1 0 0 0 -1-1z"/><path d="m51.12 38.39a2.89 2.89 0 0 0 -1.36-.74l3.94-3.94a1 1 0 0 0 -1.41-1.41l-2.29 2.29v-5.64a12 12 0 1 0 -2 0v5.64l-2.29-2.29a1 1 0 0 0 -1.41 1.41l3.94 3.94a2.89 2.89 0 0 0 -1.36.74l-8.49 8.48a3 3 0 0 0 0 4.24l8.48 8.49a3 3 0 0 0 4.24 0l8.49-8.49a3 3 0 0 0 0-4.24zm-12.12-21.39a10 10 0 1 1 10 10 10 10 0 0 1 -10-10zm19.19 32.71-8.49 8.49a1 1 0 0 1 -1.41 0l-8.49-8.49a1 1 0 0 1 0-1.41l8.49-8.49a1 1 0 0 1 1.41 0l8.49 8.49a1 1 0 0 1 0 1.41z"/><path d="m36.71 16.29-4-4a1 1 0 0 0 -1.41 1.41l2.29 2.3h-7.59v-7a3 3 0 0 0 -3-3h-16a3 3 0 0 0 -3 3v16a3 3 0 0 0 3 3h16a3 3 0 0 0 3-3v-7h7.59l-2.29 2.29a1 1 0 1 0 1.41 1.41l4-4a1 1 0 0 0 0-1.41zm-12.71 8.71a1 1 0 0 1 -1 1h-16a1 1 0 0 1 -1-1v-16a1 1 0 0 1 1-1h16a1 1 0 0 1 1 1z"/><path d="m14.29 28.29-4 4a1 1 0 0 0 1.41 1.41l2.3-2.29v6.59a1 1 0 0 0 0 .24 2 2 0 0 0 -.78.75l-9.22 16.01a2 2 0 0 0 0 2 2 2 0 0 0 1.73 1h18.54a2 2 0 0 0 1.73-1 2 2 0 0 0 0-2l-9.27-16a2 2 0 0 0 -.78-.75 1 1 0 0 0 .05-.25v-6.59l2.29 2.29a1 1 0 0 0 1.41-1.41l-4-4a1 1 0 0 0 -1.41 0zm9.98 27.71h-18.54l9.27-16z"/></g></svg>