<svg height="128" viewBox="0 0 64 64" width="128" xmlns="http://www.w3.org/2000/svg"><path d="m40.78 41.46h5.54v4h-5.54z" fill="#dadcec" transform="matrix(.70710678 -.70710678 .70710678 .70710678 -17.98 43.52)"/><rect fill="#cda1a7" height="22.51" rx="4" transform="matrix(.70710678 -.70710678 .70710678 .70710678 -21.97 53.04)" width="8.49" x="48.8" y="41.79"/><rect fill="#c4939c" height="22.51" rx="2.12" transform="matrix(.70710678 -.70710678 .70710678 .70710678 -23.47 52.42)" width="4.24" x="49.42" y="43.29"/><circle cx="25" cy="25" fill="#ffeb9b" r="24"/><path d="m11.14 38.86 27.72-27.72a4 4 0 0 1 6.11.54 24 24 0 0 1 -33.29 33.32 4 4 0 0 1 -.54-6.14z" fill="#f6d397"/><circle cx="25" cy="25" fill="#bbdef9" r="18"/><circle cx="25" cy="25" fill="#d2edff" r="5"/><g fill="#8d6c9f"><path d="m61.88 54.46-10.34-10.34a5 5 0 0 0 -3.45-1.46s-.27-.26-.38-.37l-2.54-2.54a25 25 0 1 0 -5.41 5.41l2.54 2.54a3.16 3.16 0 0 1 .36.4 5 5 0 0 0 1.46 3.43l10.34 10.35a5 5 0 0 0 7.07 0l.34-.34a5 5 0 0 0 0-7.07zm-59.88-29.46a23 23 0 1 1 23 23 23 23 0 0 1 -23-23zm42.12 19.46a5 5 0 0 0 -.92 1.32l-1.87-1.87a25.2 25.2 0 0 0 2.59-2.59l1.87 1.87a4.94 4.94 0 0 0 -1.32.92zm16.34 15.66-.34.34a3 3 0 0 1 -4.24 0l-10.34-10.34a3 3 0 0 1 0-4.24l.34-.34a3 3 0 0 1 4.24 0l10.34 10.34a3 3 0 0 1 0 4.24z"/><path d="m25 6a19 19 0 0 0 -19 19 1 1 0 0 0 2 0 17 17 0 1 1 17 17 1 1 0 0 0 0 2 19 19 0 0 0 0-38z"/><path d="m21.12 39.49a1 1 0 0 0 -1.23.71l-.52 1.93a1 1 0 1 0 1.93.52l.52-1.93a1 1 0 0 0 -.7-1.23z"/><path d="m17.5 38a1 1 0 0 0 -1.37.37l-1 1.73a1 1 0 0 0 1.73 1l1-1.73a1 1 0 0 0 -.36-1.37z"/><path d="m13 35.61-1.44 1.39a1 1 0 1 0 1.44 1.43l1.39-1.43a1 1 0 0 0 -1.39-1.39z"/><path d="m12 32.5a1 1 0 0 0 -1.37-.37l-1.73 1a1 1 0 0 0 1 1.73l1.73-1a1 1 0 0 0 .37-1.36z"/><path d="m10.51 28.88a1 1 0 0 0 -1.23-.71l-1.93.52a1 1 0 0 0 .52 1.93l1.93-.52a1 1 0 0 0 .71-1.22z"/><path d="m17 26h16a1 1 0 0 0 0-2h-16a1 1 0 0 0 0 2z"/></g></svg>