<svg height="128" viewBox="0 0 64 64" width="128" xmlns="http://www.w3.org/2000/svg"><path d="m9 57v-46a2 2 0 0 1 2-2h25.34a4 4 0 0 1 2.83 1.17l8.66 8.66a4 4 0 0 1 1.17 2.83v35.34a2 2 0 0 1 -2 2h-36a2 2 0 0 1 -2-2z" fill="#efd8be"/><path d="m13 53v-46a2 2 0 0 1 2-2h25.34a4 4 0 0 1 2.83 1.17l8.66 8.66a4 4 0 0 1 1.17 2.83v35.34a2 2 0 0 1 -2 2h-36a2 2 0 0 1 -2-2z" fill="#bbdef9"/><path d="m53.1 36.9v-19.24l-3.7-.66-36.15 36.14a3 3 0 0 0 2.75 1.8h19.06z" fill="#cce7fc"/><path d="m44.43 11.57-31.43 31.43v6l35.24-35.24c-.3-1.07-3.81-2.19-3.81-2.19z" fill="#cce7fc"/><path d="m12.85 37.15 28.15-28.15h3l-31.15 31.15z" fill="#cce7fc"/><path d="m21.5 10 1.24 2.26 2.26 1.24-2.26 1.24-1.24 2.26-1.24-2.26-2.26-1.24 2.26-1.24z" fill="#fff"/><path d="m41.34 4.81v9.61a2.39 2.39 0 0 0 2.39 2.39h9.61z" fill="#f9e3ae"/><path d="m42.42 26 .85 1.56 1.57.86-1.57.85-.85 1.57-.86-1.57-1.56-.85 1.56-.86z" fill="#fff"/><path d="m22.65 38 .58 1.06 1.07.59-1.07.58-.58 1.07-.58-1.07-1.07-.58 1.07-.59z" fill="#fff"/><g fill="#8d6c9f"><circle cx="32" cy="38" r="2"/><path d="m32 34.06a1.06 1.06 0 0 0 1.06-1l.86-14a1.93 1.93 0 0 0 -.51-1.46 2 2 0 0 0 -2.83 0 1.92 1.92 0 0 0 -.58 1.46l.86 14a1.06 1.06 0 0 0 1.06 1z"/><path d="m52.54 14.12-8.66-8.66a5 5 0 0 0 -3.54-1.46h-25.34a3 3 0 0 0 -3 3v1h-1a3 3 0 0 0 -3 3v46a3 3 0 0 0 3 3h36a3 3 0 0 0 3-3v-1h1a3 3 0 0 0 3-3v-35.34a5 5 0 0 0 -1.46-3.54zm-1.41 1.41a3 3 0 0 1 .38.46h-8.51a1 1 0 0 1 -1-1v-8.49a3 3 0 0 1 .46.38zm-3.13 41.47a1 1 0 0 1 -1 1h-36a1 1 0 0 1 -1-1v-46a1 1 0 0 1 1-1h1v43a3 3 0 0 0 3 3h33zm3-3h-36a1 1 0 0 1 -1-1v-46a1 1 0 0 1 1-1h25v9a3 3 0 0 0 3 3h9v35a1 1 0 0 1 -1 1z"/><path d="m18 46a1 1 0 0 0 -1 1v2a1 1 0 0 0 2 0v-2a1 1 0 0 0 -1-1z"/><path d="m23 46a1 1 0 0 0 -1 1v2a1 1 0 0 0 2 0v-2a1 1 0 0 0 -1-1z"/><path d="m28 46a1 1 0 0 0 -1 1v2a1 1 0 0 0 2 0v-2a1 1 0 0 0 -1-1z"/><path d="m33 46a1 1 0 0 0 -1 1v2a1 1 0 0 0 2 0v-2a1 1 0 0 0 -1-1z"/><path d="m38 46a1 1 0 0 0 -1 1v2a1 1 0 0 0 2 0v-2a1 1 0 0 0 -1-1z"/><path d="m43 46a1 1 0 0 0 -1 1v2a1 1 0 0 0 2 0v-2a1 1 0 0 0 -1-1z"/><path d="m48 46a1 1 0 0 0 -1 1v2a1 1 0 0 0 2 0v-2a1 1 0 0 0 -1-1z"/></g></svg>