<svg height="128" viewBox="0 0 64 64" width="128" xmlns="http://www.w3.org/2000/svg"><path d="m56.84 37.36a3.09 3.09 0 0 0 -.65 2.42l.95 6a1 1 0 0 1 -.65 1.12l-5.66 2.17a3.09 3.09 0 0 0 -1.78 1.77l-2.17 5.66a1 1 0 0 1 -1.12.65l-6-.95a3.09 3.09 0 0 0 -2.42.65l-4.71 3.81a1 1 0 0 1 -1.29 0l-4.71-3.81a3.09 3.09 0 0 0 -2.42-.65l-6 .95a1 1 0 0 1 -1.12-.65l-2.17-5.66a3.09 3.09 0 0 0 -1.77-1.78l-5.64-2.17a1 1 0 0 1 -.65-1.12l.95-6a3.09 3.09 0 0 0 -.65-2.42l-3.81-4.7a1 1 0 0 1 0-1.29l3.81-4.71a3.09 3.09 0 0 0 .65-2.42l-.95-6a1 1 0 0 1 .65-1.12l5.66-2.17a3.09 3.09 0 0 0 1.78-1.77l2.17-5.66a1 1 0 0 1 1.12-.65l6 .95a3.09 3.09 0 0 0 2.42-.65l4.71-3.81a1 1 0 0 1 1.29 0l4.71 3.81a3.09 3.09 0 0 0 2.42.65l6-.95a1 1 0 0 1 1.12.65l2.17 5.66a3.09 3.09 0 0 0 1.77 1.78l5.66 2.17a1 1 0 0 1 .65 1.12l-.95 6a3.09 3.09 0 0 0 .65 2.42l3.81 4.71a1 1 0 0 1 0 1.29z" fill="#72caaf"/><circle cx="32" cy="32" fill="#88d7b6" r="19"/><g fill="#8d6c9f"><path d="m32 49a1 1 0 0 0 -1 1v2a1 1 0 0 0 2 0v-2a1 1 0 0 0 -1-1z"/><path d="m32 15a1 1 0 0 0 1-1v-2a1 1 0 0 0 -2 0v2a1 1 0 0 0 1 1z"/><path d="m52 31h-2a1 1 0 0 0 0 2h2a1 1 0 0 0 0-2z"/><path d="m14 33a1 1 0 0 0 0-2h-2a1 1 0 0 0 0 2z"/><path d="m18.57 44-1.42 1.41a1 1 0 0 0 1.41 1.42l1.44-1.39a1 1 0 0 0 -1.43-1.44z"/><path d="m44.73 20.27a1 1 0 0 0 .71-.29l1.42-1.41a1 1 0 0 0 -1.41-1.42l-1.45 1.41a1 1 0 0 0 .71 1.71z"/><path d="m45.43 44a1 1 0 0 0 -1.43 1.44l1.42 1.41a1 1 0 0 0 1.41-1.42z"/><path d="m18.57 20a1 1 0 0 0 1.43-1.44l-1.42-1.41a1 1 0 0 0 -1.41 1.42z"/><path d="m37.63 49.13a1 1 0 1 0 -1.93.52l.52 1.93a1 1 0 1 0 1.93-.52z"/><path d="m26.38 14.87a1 1 0 1 0 1.93-.52l-.52-1.93a1 1 0 1 0 -1.93.52z"/><path d="m48.42 27.6a1 1 0 0 0 1.22.71l1.93-.52a1 1 0 1 0 -.52-1.93l-1.93.52a1 1 0 0 0 -.7 1.22z"/><path d="m15.58 36.4a1 1 0 0 0 -1.22-.71l-1.93.52a1 1 0 1 0 .52 1.93l1.93-.52a1 1 0 0 0 .7-1.22z"/><path d="m23.5 46.72a1 1 0 0 0 -1.37.37l-1 1.73a1 1 0 0 0 1.73 1l1-1.73a1 1 0 0 0 -.36-1.37z"/><path d="m40.5 17.28a1 1 0 0 0 1.37-.37l1-1.73a1 1 0 1 0 -1.73-1l-1 1.73a1 1 0 0 0 .36 1.37z"/><path d="m49.82 41.13-1.73-1a1 1 0 1 0 -1 1.73l1.73 1a1 1 0 0 0 .5.13 1 1 0 0 0 .5-1.87z"/><path d="m14.18 22.87 1.73 1a1 1 0 0 0 .5.13 1 1 0 0 0 .5-1.87l-1.73-1a1 1 0 1 0 -1 1.73z"/><path d="m41.87 47.09a1 1 0 0 0 -1.73 1l1 1.73a1 1 0 1 0 1.73-1z"/><path d="m22.13 16.91a1 1 0 0 0 1.73-1l-1-1.73a1 1 0 0 0 -1.73 1z"/><path d="m46.72 23.5a1 1 0 0 0 .87.5 1 1 0 0 0 .5-.13l1.73-1a1 1 0 1 0 -1-1.73l-1.73 1a1 1 0 0 0 -.37 1.36z"/><path d="m17.28 40.5a1 1 0 0 0 -1.37-.37l-1.73 1a1 1 0 1 0 1 1.73l1.73-1a1 1 0 0 0 .37-1.36z"/><path d="m27.6 48.42a1 1 0 0 0 -1.22.71l-.52 1.93a1 1 0 1 0 1.93.52l.52-1.93a1 1 0 0 0 -.71-1.23z"/><path d="m36.4 15.58a1 1 0 0 0 1.22-.71l.52-1.93a1 1 0 1 0 -1.93-.52l-.52 1.93a1 1 0 0 0 .71 1.23z"/><path d="m51.58 36.21-1.93-.52a1 1 0 0 0 -.52 1.93l1.93.52a1 1 0 1 0 .52-1.93z"/><path d="m12.42 27.79 1.93.52a1 1 0 0 0 .52-1.93l-1.93-.52a1 1 0 1 0 -.52 1.93z"/><path d="m61.42 33.89a3 3 0 0 0 0-3.78l-3.71-4.58a1 1 0 0 1 -.21-.79l.92-5.82a3 3 0 0 0 -1.89-3.27l-5.53-2.11a1 1 0 0 1 -.58-.58l-2.11-5.5a3 3 0 0 0 -3.27-1.89l-5.82.92a1 1 0 0 1 -.79-.21l-4.54-3.7a3 3 0 0 0 -3.78 0l-4.58 3.71a1 1 0 0 1 -.79.21l-5.82-.92a3 3 0 0 0 -3.27 1.89l-2.11 5.53a1 1 0 0 1 -.58.58l-5.5 2.11a3 3 0 0 0 -1.89 3.27l.92 5.82a1 1 0 0 1 -.21.79l-3.7 4.54a3 3 0 0 0 0 3.78l3.71 4.58a1 1 0 0 1 .21.79l-.92 5.82a3 3 0 0 0 1.89 3.27l5.53 2.11a1 1 0 0 1 .58.58l2.11 5.5a3 3 0 0 0 3.27 1.89l5.82-.92a1 1 0 0 1 .79.21l4.58 3.71a3 3 0 0 0 3.78 0l4.58-3.71a1 1 0 0 1 .79-.21l5.82.92a3 3 0 0 0 3.27-1.89l2.07-5.54a1 1 0 0 1 .58-.58l5.5-2.11a3 3 0 0 0 1.89-3.27l-.92-5.82a1 1 0 0 1 .21-.79zm-5.26 3.32a3 3 0 0 0 -.63 2.36l.92 5.82a1 1 0 0 1 -.63 1.09l-5.5 2.11a3 3 0 0 0 -1.73 1.73l-2.11 5.5a1 1 0 0 1 -1.09.63l-5.82-.92a3 3 0 0 0 -2.36.63l-4.58 3.71a1 1 0 0 1 -1.26 0l-4.58-3.71a3 3 0 0 0 -2.36-.63l-5.82.92a1 1 0 0 1 -1.09-.63l-2.11-5.5a3 3 0 0 0 -1.73-1.73l-5.5-2.11a1 1 0 0 1 -.63-1.09l.92-5.82a3 3 0 0 0 -.63-2.36l-3.71-4.58a1 1 0 0 1 0-1.26l3.71-4.58a3 3 0 0 0 .63-2.36l-.92-5.82a1 1 0 0 1 .63-1.09l5.5-2.11a3 3 0 0 0 1.73-1.73l2.11-5.5a1 1 0 0 1 1.09-.63l5.82.92a3 3 0 0 0 2.36-.63l4.58-3.71a1 1 0 0 1 1.26 0l4.58 3.71a3 3 0 0 0 2.36.63l5.82-.92a1 1 0 0 1 1.09.63l2.11 5.5a3 3 0 0 0 1.73 1.73l5.5 2.11a1 1 0 0 1 .63 1.09l-.92 5.82a3 3 0 0 0 .63 2.36l3.71 4.58a1 1 0 0 1 0 1.26z"/></g><path d="m44.71 24.29a1 1 0 0 0 -1.41 0l-14.3 14.3-7.29-7.29a1 1 0 0 0 -1.41 1.41l8 8a1 1 0 0 0 1.41 0l15-15a1 1 0 0 0 0-1.42z" fill="#f9efde"/></svg>