<svg height="128" viewBox="0 0 64 64" width="128" xmlns="http://www.w3.org/2000/svg"><path d="m58 13-34 34-16-16-4 4 16 16 4 4 4-4 34-34z" fill="#72caaf"/><path d="m24 50.08a2.49 2.49 0 0 1 -1.77-.73l-16.29-16.29 2.12-2.12 15.94 15.94 33.94-33.94 2.12 2.12-34.29 34.29a2.49 2.49 0 0 1 -1.77.73z" fill="#97e0bb"/><g fill="#8d6c9f"><path d="m62.71 16.29-4-4a1 1 0 0 0 -1.41 0l-33.3 33.3-15.29-15.3a1 1 0 0 0 -1.41 0l-4 4a1 1 0 0 0 0 1.41l20 20a1 1 0 0 0 1.41 0l38-38a1 1 0 0 0 0-1.41zm-38.71 37.3-18.59-18.59 2.59-2.59 15.29 15.3a1 1 0 0 0 1.41 0l33.3-33.3 2.59 2.59z"/><path d="m23.93 38.49a1 1 0 0 0 1.41-1.41l-1.41-1.41a1 1 0 0 0 -1.41 1.41z"/><path d="m27.46 34.95a1 1 0 0 0 1.41-1.41l-1.41-1.41a1 1 0 0 0 -1.41 1.41z"/><path d="m31 31.41a1 1 0 0 0 1.41-1.41l-1.41-1.41a1 1 0 0 0 -1.41 1.41z"/><path d="m34.54 27.88a1 1 0 0 0 1.41-1.41l-1.41-1.41a1 1 0 0 0 -1.41 1.41z"/><path d="m38.07 24.34a1 1 0 0 0 1.41-1.41l-1.41-1.41a1 1 0 0 0 -1.41 1.41z"/><path d="m41.61 20.81a1 1 0 0 0 1.39-1.42l-1.39-1.39a1 1 0 0 0 -1.41 1.41z"/><path d="m45.14 17.27a1 1 0 0 0 1.42-1.41l-1.41-1.42a1 1 0 0 0 -1.42 1.41z"/><path d="m48.68 13.74a1 1 0 0 0 1.41-1.41l-1.41-1.41a1 1 0 0 0 -1.41 1.41z"/><path d="m52.14 10.27a1 1 0 0 0 1.42-1.41l-1.42-1.42a1 1 0 0 0 -1.42 1.41z"/></g></svg>