<svg height="128" viewBox="0 0 64 64" width="128" xmlns="http://www.w3.org/2000/svg"><circle cx="32" cy="32" fill="#85cbf8" r="28"/><path d="m32 4a28 28 0 1 0 28 28 28 28 0 0 0 -28-28zm0 50a22 22 0 1 1 15.17-37.93l.68.67q.39.4.75.82a22 22 0 0 1 -16.6 36.44z" fill="#f9e3ae"/><path d="m32 54a22 22 0 0 1 -22-22h-1.66a4 4 0 0 0 -3.95 4.71 28 28 0 0 0 55.21 0 4 4 0 0 0 -3.94-4.71h-1.66a22 22 0 0 1 -22 22z" fill="#f6d397"/><circle cx="32" cy="32" fill="#f9efde" r="4"/><g fill="#8d6c9f"><path d="m32 37a5 5 0 1 1 5-5 5 5 0 0 1 -5 5zm0-8a3 3 0 1 0 3 3 3 3 0 0 0 -3-3z"/><path d="m32 3a29 29 0 1 0 29 29 29 29 0 0 0 -29-29zm0 56a27 27 0 1 1 27-27 27 27 0 0 1 -27 27z"/><path d="m32 51a1 1 0 0 0 -1 1v2a1 1 0 0 0 2 0v-2a1 1 0 0 0 -1-1z"/><path d="m38 51.08a1 1 0 0 0 -1.93.52l.52 1.93a1 1 0 0 0 1.94-.53z"/><path d="m22.75 48.52a1 1 0 0 0 -1.37.37l-1 1.73a1 1 0 0 0 1.73 1l1-1.73a1 1 0 0 0 -.36-1.37z"/><path d="m42.62 48.89a1 1 0 0 0 -1.73 1l1 1.73a1 1 0 0 0 1.73-1z"/><path d="m27.21 50.37a1 1 0 0 0 -1.22.71l-.52 1.92a1 1 0 1 0 1.93.52l.52-1.93a1 1 0 0 0 -.71-1.22z"/><path d="m41.9 13.35a1 1 0 0 0 .45-1.89 22.82 22.82 0 0 0 -2.3-1 1 1 0 1 0 -.7 1.87 21.2 21.2 0 0 1 2.1.92 1 1 0 0 0 .45.1z"/><path d="m36.48 10.44a1 1 0 0 0 -.83-1.15 23 23 0 0 0 -19.92 39 1 1 0 0 0 1.41-1.41 21 21 0 0 1 18.2-35.61 1 1 0 0 0 1.14-.83z"/><path d="m48.26 15.74a23.35 23.35 0 0 0 -2.09-1.86 1 1 0 1 0 -1.23 1.57 21.35 21.35 0 0 1 1.91 1.7 21 21 0 0 1 0 29.7 1 1 0 1 0 1.41 1.41 23 23 0 0 0 0-32.52z"/></g></svg>