<svg height="128" viewBox="0 0 64 64" width="128" xmlns="http://www.w3.org/2000/svg"><path d="m60.9 11v40a2 2 0 0 1 -2 2h-36.13a4 4 0 0 1 -3.07-1.43l-2.7-3.23-13.44-16.06a2 2 0 0 1 0-2.56l16.14-19.29a4 4 0 0 1 3.07-1.43h36.13a2 2 0 0 1 2 2z" fill="#ed7899"/><path d="m57.9 48a3 3 0 0 1 3 3 2 2 0 0 1 -2 2h-36.13a4 4 0 0 1 -3.08-1.44l-2.69-3.22v-.34z" fill="#e0678f"/><path d="m57.9 14a3 3 0 0 0 3-3 2 2 0 0 0 -2-2h-36.14a4 4 0 0 0 -3.06 1.43l-2.7 3.23v.34z" fill="#f283a5"/><g fill="#8d6c9f"><path d="m58.9 8h-36.13a5 5 0 0 0 -3.83 1.79l-16.14 19.28a3 3 0 0 0 0 3.85l16.14 19.29a5 5 0 0 0 3.83 1.79h36.13a3 3 0 0 0 3-3v-40a3 3 0 0 0 -3-3zm1.1 43a1.09 1.09 0 0 1 -1.1 1h-36.13a3 3 0 0 1 -2.3-1.07l-1.52-1.83a.92.92 0 0 0 0-.1v-2a1 1 0 0 0 -1-1 1 1 0 0 0 -1 .79l-12.62-15.15a1 1 0 0 1 0-1.29l16.14-19.28a3 3 0 0 1 2.3-1.07h36.13a1.09 1.09 0 0 1 1.1 1z"/><path d="m23 46a1 1 0 0 0 -1 1v2a1 1 0 0 0 2 0v-2a1 1 0 0 0 -1-1z"/><path d="m28 46a1 1 0 0 0 -1 1v2a1 1 0 0 0 2 0v-2a1 1 0 0 0 -1-1z"/><path d="m33 46a1 1 0 0 0 -1 1v2a1 1 0 0 0 2 0v-2a1 1 0 0 0 -1-1z"/><path d="m38 46a1 1 0 0 0 -1 1v2a1 1 0 0 0 2 0v-2a1 1 0 0 0 -1-1z"/><path d="m43 46a1 1 0 0 0 -1 1v2a1 1 0 0 0 2 0v-2a1 1 0 0 0 -1-1z"/><path d="m48 46a1 1 0 0 0 -1 1v2a1 1 0 0 0 2 0v-2a1 1 0 0 0 -1-1z"/><path d="m53 46a1 1 0 0 0 -1 1v2a1 1 0 0 0 2 0v-2a1 1 0 0 0 -1-1z"/><path d="m58 46a1 1 0 0 0 -1 1v2a1 1 0 0 0 2 0v-2a1 1 0 0 0 -1-1z"/></g><path d="m47.7 39.68a1 1 0 0 0 0-1.41l-9.22-9.27 9.25-9.28a1 1 0 0 0 -1.42-1.41l-9.25 9.28-9.36-9.33a1 1 0 0 0 -1.41 1.41l9.37 9.33-9.31 9.34a1 1 0 1 0 1.42 1.41l9.31-9.34 9.22 9.22a1 1 0 0 0 1.41 0z" fill="#faefde"/></svg>