<svg height="128" viewBox="0 0 64 64" width="128" xmlns="http://www.w3.org/2000/svg"><rect fill="#f9e3ae" height="50" rx="2" width="50" x="7" y="7"/><path d="m11 32h42a4 4 0 0 1 4 4v18a3 3 0 0 1 -3 3h-44a3 3 0 0 1 -3-3v-18a4 4 0 0 1 4-4z" fill="#f6d397"/><rect fill="#ed7899" height="38" rx="2" width="38" x="13" y="13"/><path d="m43.71 20.29a1 1 0 0 0 -1.41 0l-10.3 10.3-10.29-10.3a1 1 0 0 0 -1.41 1.41l10.29 10.3-10.3 10.29a1 1 0 1 0 1.41 1.41l10.3-10.29 10.29 10.3a1 1 0 0 0 1.41-1.41l-10.29-10.3 10.3-10.29a1 1 0 0 0 0-1.42z" fill="#faefde"/><g fill="#8d6c9f"><path d="m50 12h-36a2 2 0 0 0 -2 2v36a2 2 0 0 0 2 2h3a1 1 0 0 0 0-2h-3v-36h36v36h-3a1 1 0 0 0 0 2h3a2 2 0 0 0 2-2v-36a2 2 0 0 0 -2-2z"/><path d="m55 6h-46a3 3 0 0 0 -3 3v46a3 3 0 0 0 3 3h46a3 3 0 0 0 3-3v-46a3 3 0 0 0 -3-3zm1 49a1 1 0 0 1 -1 1h-46a1 1 0 0 1 -1-1v-46a1 1 0 0 1 1-1h46a1 1 0 0 1 1 1z"/><path d="m27 48a1 1 0 0 0 -1 1v2a1 1 0 0 0 2 0v-2a1 1 0 0 0 -1-1z"/><path d="m32 48a1 1 0 0 0 -1 1v2a1 1 0 0 0 2 0v-2a1 1 0 0 0 -1-1z"/><path d="m37 48a1 1 0 0 0 -1 1v2a1 1 0 0 0 2 0v-2a1 1 0 0 0 -1-1z"/><path d="m42 48a1 1 0 0 0 -1 1v2a1 1 0 0 0 2 0v-2a1 1 0 0 0 -1-1z"/><path d="m22 48a1 1 0 0 0 -1 1v2a1 1 0 0 0 2 0v-2a1 1 0 0 0 -1-1z"/></g></svg>