<svg height="128" viewBox="0 0 64 64" width="128" xmlns="http://www.w3.org/2000/svg"><path d="m1 37 14 14 32-32-4-4-28 28-10-10z" fill="#72caaf"/><path d="m15.06 46a2.49 2.49 0 0 1 -1.77-.73l-9.78-9.78 2.12-2.12 9.43 9.43 27.84-27.8 2.1 2.08-28.17 28.19a2.49 2.49 0 0 1 -1.77.73z" fill="#97e0bb"/><path d="m23.28 43.28 7.72 7.72 32-32-4-4-28 28-3.72-3.72" fill="#72caaf"/><path d="m30.94 46a2.49 2.49 0 0 1 -1.77-.73l-4.17-4.15 2.15-2.12 3.79 3.79 27.84-27.79 2.12 2.12-28.19 28.15a2.49 2.49 0 0 1 -1.77.73z" fill="#97e0bb"/><g fill="#8d6c9f"><path d="m63.71 18.29-4-4a1 1 0 0 0 -1.41 0l-27.3 27.3-2.59-2.59 19.3-19.29a1 1 0 0 0 0-1.41l-4-4a1 1 0 0 0 -1.41 0l-27.3 27.29-9.29-9.3a1 1 0 0 0 -1.41 0l-4 4a1 1 0 0 0 0 1.41l14 14a1 1 0 0 0 1.41 0l7.29-7.29 7.29 7.29a1 1 0 0 0 1.41 0l32-32a1 1 0 0 0 .01-1.41zm-48.71 31.3-12.59-12.59 2.59-2.59 9.29 9.29a1 1 0 0 0 1.41 0l27.3-27.29 2.59 2.59zm16 0-6.59-6.59 2.59-2.59 3.29 3.29a1 1 0 0 0 1.41 0l27.3-27.29 2.59 2.59z"/><path d="m13.93 36.49a1 1 0 0 0 1.41-1.41l-1.41-1.41a1 1 0 0 0 -1.41 1.41z"/><path d="m17.46 32.95a1 1 0 0 0 1.41-1.41l-1.41-1.41a1 1 0 0 0 -1.41 1.41z"/><path d="m21 29.41a1 1 0 0 0 1.41-1.41l-1.41-1.41a1 1 0 0 0 -1.41 1.41z"/><path d="m24.54 25.88a1 1 0 0 0 1.41-1.41l-1.41-1.41a1 1 0 0 0 -1.41 1.41z"/><path d="m28.07 22.34a1 1 0 0 0 1.41-1.41l-1.41-1.41a1 1 0 0 0 -1.41 1.41z"/><path d="m31.61 18.81a1 1 0 0 0 1.39-1.42l-1.39-1.39a1 1 0 1 0 -1.41 1.41z"/><path d="m35.14 15.27a1 1 0 0 0 1.41-1.41l-1.42-1.42a1 1 0 0 0 -1.41 1.41z"/><path d="m38.68 11.74a1 1 0 0 0 1.41-1.41l-1.41-1.42a1 1 0 0 0 -1.41 1.41z"/></g></svg>