<svg height="128" viewBox="0 0 64 64" width="128" xmlns="http://www.w3.org/2000/svg"><rect fill="#72caaf" height="50" rx="2" width="52" x="5" y="7"/><path d="m56 57h-50a1 1 0 0 1 -1-1c0-2.21.79-4 3-4h46c2.21 0 3 1.79 3 4l-.42.25c0 .55-.03.75-.58.75z" fill="#5dbc9d"/><circle cx="54.5" cy="9.5" fill="#f283a5" r="6.5"/><g fill="#8d6c9f"><path d="m16 50a1 1 0 0 0 -1 1v2a1 1 0 0 0 2 0v-2a1 1 0 0 0 -1-1z"/><path d="m11 50a1 1 0 0 0 -1 1v2a1 1 0 0 0 2 0v-2a1 1 0 0 0 -1-1z"/><path d="m31 50a1 1 0 0 0 -1 1v2a1 1 0 0 0 2 0v-2a1 1 0 0 0 -1-1z"/><path d="m36 50a1 1 0 0 0 -1 1v2a1 1 0 0 0 2 0v-2a1 1 0 0 0 -1-1z"/><path d="m41 50a1 1 0 0 0 -1 1v2a1 1 0 0 0 2 0v-2a1 1 0 0 0 -1-1z"/><path d="m46 50a1 1 0 0 0 -1 1v2a1 1 0 0 0 2 0v-2a1 1 0 0 0 -1-1z"/><path d="m51 50a1 1 0 0 0 -1 1v2a1 1 0 0 0 2 0v-2a1 1 0 0 0 -1-1z"/><path d="m21 50a1 1 0 0 0 -1 1v2a1 1 0 0 0 2 0v-2a1 1 0 0 0 -1-1z"/><path d="m26 50a1 1 0 0 0 -1 1v2a1 1 0 0 0 2 0v-2a1 1 0 0 0 -1-1z"/></g><path d="m30.29 39.71a1 1 0 0 0 1.42 0l6-6a1 1 0 0 0 -1.41-1.41l-4.3 4.29v-13.59a1 1 0 0 0 -2 0v13.59l-4.29-4.29a1 1 0 0 0 -1.41 1.41z" fill="#faefde"/><path d="m31 20a1 1 0 0 0 1-1v-4a1 1 0 0 0 -2 0v4a1 1 0 0 0 1 1z" fill="#faefde"/><path d="m54.5 2a7.47 7.47 0 0 0 -6.62 4h-40.88a3 3 0 0 0 -3 3v46a3 3 0 0 0 3 3h48a3 3 0 0 0 3-3v-38.88a7.49 7.49 0 0 0 -3.5-14.12zm1.5 48a1 1 0 0 0 -1 1v2a1 1 0 0 0 1 1v1a1 1 0 0 1 -1 1h-48a1 1 0 0 1 -1-1v-1a1 1 0 0 0 1-1v-2a1 1 0 0 0 -1-1v-41a1 1 0 0 1 1-1h40.15a7.41 7.41 0 0 0 -.15 1.5 7.5 7.5 0 0 0 7.5 7.5 7.41 7.41 0 0 0 1.5-.15zm2-36.26a5.49 5.49 0 0 1 -2 1.05 5.33 5.33 0 0 1 -1.5.21 5.51 5.51 0 0 1 -5.5-5.5 5.33 5.33 0 0 1 .21-1.5 5.5 5.5 0 1 1 8.79 5.74z" fill="#8d6c9f"/><path d="m47 34a1 1 0 0 0 -1 1v8a1 1 0 0 1 -1 1h-28a1 1 0 0 1 -1-1v-8a1 1 0 0 0 -2 0v8a3 3 0 0 0 3 3h28a3 3 0 0 0 3-3v-8a1 1 0 0 0 -1-1z" fill="#faefde"/></svg>