<svg height="128" viewBox="0 0 64 64" width="128" xmlns="http://www.w3.org/2000/svg"><path d="m59 7v50a2 2 0 0 1 -2 2h-34a2 2 0 0 1 -.91-.22 2 2 0 0 1 -1.09-1.78v-50a2 2 0 0 1 2-2h34a2 2 0 0 1 .56.08 2 2 0 0 1 1.44 1.92z" fill="#c2cde7"/><path d="m59.56 23.44-.56.56-32.78 32.78h-4.13a2 2 0 0 1 -1.09-1.78v-7l38-38z" fill="#ced9ed"/><path d="m58.38 6.19-37.38 37.37v-6.56l32-32h4.5l.06.08z" fill="#ced9ed"/><path d="m48 5-27 27v-4l23-23z" fill="#ced9ed"/><path d="m59 58.56a1 1 0 0 1 -1 1h-36a1 1 0 0 1 -1-1 4 4 0 0 1 4-4h30a4 4 0 0 1 4 4z" fill="#acb7d0"/><path d="m30.5 12 1.24 2.26 2.26 1.24-2.26 1.24-1.24 2.26-1.24-2.26-2.26-1.24 2.26-1.24z" fill="#edf0f4"/><path d="m50 40.16.85 1.57 1.57.85-1.57.86-.85 1.56-.85-1.56-1.57-.86 1.57-.85z" fill="#edf0f4"/><path d="m30.65 45 .58 1.06 1.07.59-1.07.58-.58 1.07-.58-1.07-1.07-.58 1.07-.59z" fill="#edf0f4"/><g fill="#8d6c9f"><path d="m25 52a1 1 0 0 0 -1 1v2a1 1 0 0 0 2 0v-2a1 1 0 0 0 -1-1z"/><path d="m30 52a1 1 0 0 0 -1 1v2a1 1 0 0 0 2 0v-2a1 1 0 0 0 -1-1z"/><path d="m34 53v2a1 1 0 0 0 2 0v-2a1 1 0 0 0 -2 0z"/><path d="m40 56a1 1 0 0 0 1-1v-2a1 1 0 0 0 -2 0v2a1 1 0 0 0 1 1z"/><path d="m45 56a1 1 0 0 0 1-1v-2a1 1 0 0 0 -2 0v2a1 1 0 0 0 1 1z"/><path d="m50 56a1 1 0 0 0 1-1v-2a1 1 0 0 0 -2 0v2a1 1 0 0 0 1 1z"/><path d="m55 56a1 1 0 0 0 1-1v-2a1 1 0 0 0 -2 0v2a1 1 0 0 0 1 1z"/><path d="m60 7a3 3 0 0 0 -3-3h-34a3 3 0 0 0 -3 3v50a3 3 0 0 0 3 3h34a3 3 0 0 0 3-3zm-2 50a1 1 0 0 1 -1 1h-34a1 1 0 0 1 -1-1v-50a1 1 0 0 1 1-1h34a1 1 0 0 1 1 1z"/></g><path d="m7 29h31l-4-4 4-4 11 11-11 11-4-4 4-4h-31z" fill="#faefde"/><path d="m49.71 31.29-11-11a1 1 0 0 0 -1.41 0l-4 4a1 1 0 0 0 0 1.41l2.29 2.3h-28.59a1 1 0 0 0 -1 1v6a1 1 0 0 0 1 1h28.59l-2.29 2.29a1 1 0 0 0 0 1.41l4 4a1 1 0 0 0 1.41 0l11-11a1 1 0 0 0 0-1.41zm-11.71 10.3-2.59-2.59 3.29-3.29a1 1 0 0 0 -.7-1.71h-30v-4h30a1 1 0 0 0 .71-1.71l-3.3-3.29 2.59-2.59 9.59 9.59z" fill="#8d6c9f"/></svg>