<svg height="128" viewBox="0 0 64 64" width="128" xmlns="http://www.w3.org/2000/svg"><path d="m60.49 59h-57a2 2 0 0 1 -1.72-3l28.55-48.1a2 2 0 0 1 3.44 0l28.45 48.1a2 2 0 0 1 -1.72 3z" fill="#ed7899"/><path d="m53.94 53-21.9-37-21.95 37z" fill="#ffefb8"/><path d="m19 53h1.75l15.2-30.4-.95-1.6z" fill="#fff6df"/><path d="m24 53h5.25l11.31-22.61-2.85-4.81z" fill="#fff6df"/><path d="m32.25 53h19.25l1.12-2.23-10.44-17.63z" fill="#fff6df"/><g fill="#8d6c9f"><path d="m33.72 16.94a2 2 0 0 0 -3.44 0l-20.28 34.06a2 2 0 0 0 1.72 3h1.28a1 1 0 0 0 0-2h-1.24l20.24-34 20.24 34h-1.24a1 1 0 0 0 0 2h1.24a2 2 0 0 0 1.76-3z"/><path d="m63.07 55.47-28.49-48.08a3 3 0 0 0 -5.16 0l-28.49 48.08a3 3 0 0 0 2.58 4.53h57a3 3 0 0 0 2.58-4.53zm-1.71 2a1 1 0 0 1 -.87.5h-57a1 1 0 0 1 -.86-1.51l28.51-48.05a1 1 0 0 1 1.72 0l28.49 48.08a1 1 0 0 1 .01 1.01z"/><path d="m17 50a1 1 0 0 0 -1 1v2a1 1 0 0 0 2 0v-2a1 1 0 0 0 -1-1z"/><path d="m32 50a1 1 0 0 0 -1 1v2a1 1 0 0 0 2 0v-2a1 1 0 0 0 -1-1z"/><path d="m37 50a1 1 0 0 0 -1 1v2a1 1 0 0 0 2 0v-2a1 1 0 0 0 -1-1z"/><path d="m42 50a1 1 0 0 0 -1 1v2a1 1 0 0 0 2 0v-2a1 1 0 0 0 -1-1z"/><path d="m47 50a1 1 0 0 0 -1 1v2a1 1 0 0 0 2 0v-2a1 1 0 0 0 -1-1z"/><path d="m22 50a1 1 0 0 0 -1 1v2a1 1 0 0 0 2 0v-2a1 1 0 0 0 -1-1z"/><path d="m27 50a1 1 0 0 0 -1 1v2a1 1 0 0 0 2 0v-2a1 1 0 0 0 -1-1z"/><path d="m32 42a1 1 0 0 0 1-1l.88-12.93a1.93 1.93 0 0 0 -.51-1.46 1.86 1.86 0 0 0 -1.07-.56 1.93 1.93 0 0 0 -.53 0 1.88 1.88 0 0 0 -1.22.57 1.93 1.93 0 0 0 -.51 1.46l.96 12.92a1 1 0 0 0 1 1z"/><circle cx="32.04" cy="46" r="2"/></g></svg>