<svg height="128" viewBox="0 0 64 64" width="128" xmlns="http://www.w3.org/2000/svg"><path d="m61 29-29.05-17-28.95 17v3l29 13 29-13z" fill="#acb7d0"/><path d="m22.24 4.94h25.76a3 3 0 0 1 3 3v28l-19.05 9-18.95-9v-21.76a3 3 0 0 1 .88-2.12l6.24-6.24a3 3 0 0 1 2.12-.88z" fill="#bbdef9"/><path d="m51 29.47v-20.84l-25.93 32.75 3.93 2.62 8-1 5.3-2.53z" fill="#cce7fc"/><path d="m22.79 40 27.71-35h-4.5l-27 34.1z" fill="#cce7fc"/><path d="m16 38.21 27.5-33.21h-1.5l-27 32.53z" fill="#cce7fc"/><path d="m44.5 13 1.24 2.26 2.26 1.24-2.26 1.24-1.24 2.26-1.24-2.26-2.26-1.24 2.26-1.24z" fill="#fff"/><path d="m39.65 31 .58 1.06 1.07.59-1.07.58-.58 1.07-.59-1.07-1.06-.58 1.06-.59z" fill="#fff"/><path d="m23 4.94v10h-10z" fill="#ffefb8"/><path d="m59 59.23h-54.11a2 2 0 0 1 -2-2v-25.36l29.11 13 29-13v25.36a2 2 0 0 1 -2 2z" fill="#faefde"/><path d="m6.89 52h50.11a4 4 0 0 1 4 4v1.23a2 2 0 0 1 -2 2h-54.11a2 2 0 0 1 -2-2v-1.23a4 4 0 0 1 4-4z" fill="#efd8be"/><g fill="#8d6c9f"><path d="m60.54 27.56-8.54-5.13v-15.43a3 3 0 0 0 -3-3h-25.34a5 5 0 0 0 -3.54 1.46l-6.66 6.66a5 5 0 0 0 -1.46 3.54v6.78l-8.54 5.12a3 3 0 0 0 -1.46 2.57v26.87a3 3 0 0 0 3 3h54a3 3 0 0 0 3-3v-26.87a3 3 0 0 0 -1.46-2.57zm-39-20.68a3 3 0 0 1 .46-.38v6.5a1 1 0 0 1 -1 1h-6.5a3 3 0 0 1 .38-.46zm-17 22.4 7.46-4.51v6.23a1 1 0 0 0 2 0v-15h7a3 3 0 0 0 3-3v-7h25a1 1 0 0 1 1 1v24a1 1 0 0 0 2 0v-6.23l7.51 4.51a1 1 0 0 1 .49.86v1.22l-26.77 12a3 3 0 0 1 -2.45 0l-26.78-12.01v-1.22a1 1 0 0 1 .49-.86zm54.46 28.72h-54a1 1 0 0 1 -1-1v-23.46l26 11.64a5 5 0 0 0 4.09 0l25.91-11.64v23.46a1 1 0 0 1 -1 1z"/><path d="m12 50a1 1 0 0 0 -1 1v2a1 1 0 0 0 2 0v-2a1 1 0 0 0 -1-1z"/><path d="m7 50a1 1 0 0 0 -1 1v2a1 1 0 0 0 2 0v-2a1 1 0 0 0 -1-1z"/><path d="m17 50a1 1 0 0 0 -1 1v2a1 1 0 0 0 2 0v-2a1 1 0 0 0 -1-1z"/><path d="m22 50a1 1 0 0 0 -1 1v2a1 1 0 0 0 2 0v-2a1 1 0 0 0 -1-1z"/><path d="m27 50a1 1 0 0 0 -1 1v2a1 1 0 0 0 2 0v-2a1 1 0 0 0 -1-1z"/><path d="m32 50a1 1 0 0 0 -1 1v2a1 1 0 0 0 2 0v-2a1 1 0 0 0 -1-1z"/><path d="m37 50a1 1 0 0 0 -1 1v2a1 1 0 0 0 2 0v-2a1 1 0 0 0 -1-1z"/><path d="m42 50a1 1 0 0 0 -1 1v2a1 1 0 0 0 2 0v-2a1 1 0 0 0 -1-1z"/><path d="m47 50a1 1 0 0 0 -1 1v2a1 1 0 0 0 2 0v-2a1 1 0 0 0 -1-1z"/><path d="m52 50a1 1 0 0 0 -1 1v2a1 1 0 0 0 2 0v-2a1 1 0 0 0 -1-1z"/><path d="m57 50a1 1 0 0 0 -1 1v2a1 1 0 0 0 2 0v-2a1 1 0 0 0 -1-1z"/><path d="m25.71 24.71 5.29-5.3v17.59a1 1 0 0 0 2 0v-17.59l5.29 5.29a1 1 0 0 0 1.41-1.41l-7-7a1 1 0 0 0 -1.41 0l-7 7a1 1 0 0 0 1.41 1.41z"/></g><path d="m21.42 27 .85 1.56 1.57.86-1.57.85-.85 1.57-.86-1.57-1.56-.85 1.56-.86z" fill="#fff"/></svg>