<svg height="128" viewBox="0 0 64 64" width="128" xmlns="http://www.w3.org/2000/svg"><circle cx="25" cy="25" fill="#ffeb9b" r="24"/><path d="m11.14 38.86 27.72-27.72a4 4 0 0 1 6.11.54 24 24 0 0 1 -33.29 33.32 4 4 0 0 1 -.54-6.14z" fill="#f6d397"/><path d="m40.78 41.46h5.54v4h-5.54z" fill="#dadcec" transform="matrix(.70710678 -.70710678 .70710678 .70710678 -17.98 43.52)"/><rect fill="#cda1a7" height="22.51" rx="4" transform="matrix(.70710678 -.70710678 .70710678 .70710678 -21.97 53.04)" width="8.49" x="48.8" y="41.79"/><rect fill="#c4939c" height="22.51" rx="2.12" transform="matrix(.70710678 -.70710678 .70710678 .70710678 -23.47 52.42)" width="4.24" x="49.42" y="43.29"/><circle cx="25" cy="25" fill="#bbdef9" r="16"/><g fill="#8d6c9f"><path d="m11.89 29.91a1 1 0 0 0 -1.33-.48l-1.81.84a1 1 0 0 0 .85 1.81l1.81-.84a1 1 0 0 0 .48-1.33z"/><path d="m45.78 25.36-4.07-4.07a1 1 0 0 0 -1.41 0l-4.07 4.07a1 1 0 0 0 1.41 1.41l2.36-2.32v.55a15 15 0 0 1 -19.76 14.23 1 1 0 0 0 -.63 1.9 17 17 0 0 0 22.39-16.13c0-.21 0-.41 0-.62l2.4 2.4a1 1 0 0 0 1.41-1.41z"/><path d="m61.88 54.46-10.34-10.34a5 5 0 0 0 -3.54-1.46h-.07a1 1 0 0 0 -.23-.37l-2.54-2.54a25 25 0 1 0 -5.41 5.41l2.54 2.54a1 1 0 0 0 .37.23 5 5 0 0 0 1.45 3.6l10.35 10.35a5 5 0 0 0 7.07 0l.34-.34a5 5 0 0 0 .01-7.08zm-36.88-6.46a23 23 0 1 1 23-23 23 23 0 0 1 -23 23zm19.12-3.54a4.94 4.94 0 0 0 -.92 1.32l-1.88-1.88a25.2 25.2 0 0 0 2.59-2.59l1.87 1.87a5 5 0 0 0 -1.32.92zm16.34 15.66-.34.34a3.07 3.07 0 0 1 -4.24 0l-10.34-10.34a3 3 0 0 1 0-4.24l.34-.34a3 3 0 0 1 4.24 0l10.34 10.34a3 3 0 0 1 0 4.24z"/><path d="m15.49 36.11-1.15 1.64a1 1 0 0 0 1.66 1.14l1.15-1.64a1 1 0 0 0 -1.64-1.15z"/><path d="m14 33.21a1 1 0 0 0 -1.41-.12l-1.53 1.29a1 1 0 0 0 1.29 1.53l1.53-1.29a1 1 0 0 0 .12-1.41z"/><path d="m33.62 12.89a1 1 0 0 0 .82-.42l1.16-1.63a1 1 0 1 0 -1.6-1.16l-1.16 1.63a1 1 0 0 0 .81 1.58z"/><path d="m35.91 15.37a1 1 0 0 0 1.41.13l1.54-1.28a1 1 0 1 0 -1.28-1.54l-1.58 1.32a1 1 0 0 0 -.09 1.37z"/><path d="m38 18.68a1 1 0 0 0 1.33.49l1.82-.83a1 1 0 1 0 -.83-1.82l-1.82.83a1 1 0 0 0 -.5 1.33z"/><path d="m9 27.07a1 1 0 0 0 .71-.29l4.07-4.07a1 1 0 0 0 -1.41-1.41l-2.29 2.29a15 15 0 0 1 19.38-12.92 1 1 0 0 0 .59-1.91 17 17 0 0 0 -22 15l-2.41-2.47a1 1 0 0 0 -1.41 1.41l4.07 4.07a1 1 0 0 0 .7.3z"/></g><circle cx="25" cy="25" fill="#d2edff" r="7"/><circle cx="21" cy="21" fill="#f3f3f3" r="4"/><circle cx="29.5" cy="29.5" fill="#f3f3f3" r="1.5"/></svg>