<svg height="128" viewBox="0 0 64 64" width="128" xmlns="http://www.w3.org/2000/svg"><circle cx="31" cy="31" fill="#85cbf8" r="28"/><path d="m31 3a28 28 0 1 0 28 28 28 28 0 0 0 -28-28zm0 50a22 22 0 1 1 15.17-37.93l.68.67q.39.4.75.82a22 22 0 0 1 -16.6 36.44z" fill="#f9e3ae"/><path d="m31 53a22 22 0 0 1 -22-22h-1.66a4 4 0 0 0 -3.95 4.71 28 28 0 0 0 55.21 0 4 4 0 0 0 -3.94-4.71h-1.66a22 22 0 0 1 -22 22z" fill="#f6d397"/><path d="m31 2a29 29 0 1 0 29 29 29 29 0 0 0 -29-29zm0 56a27 27 0 1 1 27-27 27 27 0 0 1 -27 27z" fill="#8d6c9f"/><g fill="#faefde"><circle cx="31" cy="42" r="2"/><path d="m12 31v2a1 1 0 0 0 2 0v-2a1 1 0 0 0 -2 0z"/><path d="m17 31v2a1 1 0 0 0 2 0v-2a1 1 0 0 0 -2 0z"/><path d="m22 31v2a1 1 0 0 0 2 0v-2a1 1 0 0 0 -2 0z"/><path d="m38 31v2a1 1 0 0 0 2 0v-2a1 1 0 0 0 -2 0z"/><path d="m44 34a1 1 0 0 0 1-1v-2a1 1 0 0 0 -2 0v2a1 1 0 0 0 1 1z"/><path d="m50 33v-2a1 1 0 0 0 -2 0v2a1 1 0 0 0 2 0z"/><path d="m29 18a5 5 0 0 0 -5 5 1 1 0 0 0 2 0 3 3 0 0 1 3-3h4a3 3 0 0 1 3 3v2.84a3.38 3.38 0 0 1 -2.32 3.21 5.38 5.38 0 0 0 -3.68 5.11v2.84a1 1 0 0 0 2 0v-2.84a3.38 3.38 0 0 1 2.32-3.21 5.38 5.38 0 0 0 3.68-5.11v-2.84a5 5 0 0 0 -5-5z"/></g><path d="m31 54a23 23 0 1 1 3.36-45.76 1 1 0 0 1 -.29 2 21.32 21.32 0 0 0 -3.07-.24 21 21 0 1 0 13 4.48 1 1 0 1 1 1.24-1.57 23 23 0 0 1 -14.24 41.09z" fill="#8d6c9f"/><path d="m41 12.4a1 1 0 0 1 -.45-.11 20.88 20.88 0 0 0 -2.31-1 1 1 0 0 1 .69-1.88 23.08 23.08 0 0 1 2.53 1.11 1 1 0 0 1 -.46 1.88z" fill="#8d6c9f"/></svg>