<svg height="128" viewBox="0 0 64 64" width="128" xmlns="http://www.w3.org/2000/svg"><rect fill="#ed7899" height="43.84" rx="1" transform="matrix(.70710678 -.70710678 .70710678 .70710678 -13.27 31.99)" width="43.8" x="10.09" y="10.09"/><rect fill="#ffefb8" height="31.11" rx="1" transform="matrix(.70710678 -.70710678 .70710678 .70710678 -13.27 31.99)" width="31.08" x="16.44" y="16.46"/><path d="m46.3 24.35-22 22 7 7a1 1 0 0 0 1.41 0l20.56-20.62a1 1 0 0 0 0-1.41z" fill="#fff6df"/><path d="m16.07 28.99h31.08v5.3h-31.08z" fill="#fff6df" transform="matrix(.70710678 -.70710678 .70710678 .70710678 -13.11 31.62)"/><path d="m11.69 25.5h31.08v3.54h-31.08z" fill="#fff6df" transform="matrix(.70710678 -.70710678 .70710678 .70710678 -11.3 27.24)"/><g fill="#8d6c9f"><path d="m31.81 21a1.88 1.88 0 0 0 -1.22.57 1.93 1.93 0 0 0 -.51 1.46l.92 12.97a1 1 0 0 0 2 0l.88-12.93a1.93 1.93 0 0 0 -.51-1.46 1.86 1.86 0 0 0 -1.07-.56 1.94 1.94 0 0 0 -.49-.05z"/><circle cx="32.04" cy="41" r="2"/><path d="m33.41 9.37a2 2 0 0 0 -2.83 0l-21.21 21.22a2 2 0 0 0 0 2.83l21.22 21.21a2 2 0 0 0 2.83 0l21.21-21.22a2 2 0 0 0 0-2.83zm-1.41 43.84-21.21-21.21 21.21-21.21 21.21 21.21z"/><path d="m62.41 29.88-28.29-28.29a3.07 3.07 0 0 0 -4.24 0l-28.29 28.29a3 3 0 0 0 0 4.24l28.29 28.28a3 3 0 0 0 4.24 0l28.29-28.28a3 3 0 0 0 0-4.24zm-1.41 2.83-28.29 28.29a1 1 0 0 1 -1.41 0l-28.3-28.29a1 1 0 0 1 0-1.41l28.29-28.3a1 1 0 0 1 1.41 0l28.3 28.29a1 1 0 0 1 0 1.41z"/><path d="m16 30a1 1 0 0 0 -1 1v2a1 1 0 0 0 2 0v-2a1 1 0 0 0 -1-1z"/><path d="m21 30a1 1 0 0 0 -1 1v2a1 1 0 0 0 2 0v-2a1 1 0 0 0 -1-1z"/><path d="m26 30a1 1 0 0 0 -1 1v2a1 1 0 0 0 2 0v-2a1 1 0 0 0 -1-1z"/><path d="m38 34a1 1 0 0 0 1-1v-2a1 1 0 0 0 -2 0v2a1 1 0 0 0 1 1z"/><path d="m43 34a1 1 0 0 0 1-1v-2a1 1 0 0 0 -2 0v2a1 1 0 0 0 1 1z"/><path d="m48 34a1 1 0 0 0 1-1v-2a1 1 0 0 0 -2 0v2a1 1 0 0 0 1 1z"/></g></svg>