<svg enable-background="new 0 0 64 64" height="128" viewBox="0 0 64 64" width="128" xmlns="http://www.w3.org/2000/svg"><path d="m60 57h-56c-1.657 0-3-1.343-3-3v-46c0-1.657 1.343-3 3-3h56c1.657 0 3 1.343 3 3v46c0 1.657-1.343 3-3 3z" fill="#c2cde7"/><path d="m1 35v19c0 1.657 1.343 3 3 3h56c1.657 0 3-1.343 3-3v-19c0-2.209-1.791-4-4-4h-54c-2.209 0-4 1.791-4 4z" fill="#acb7d0"/><path d="m54.5 50.5h-41c-1.657 0-3-1.343-3-3v-34c0-1.657 1.343-3 3-3h41c1.657 0 3 1.343 3 3v34c0 1.657-1.343 3-3 3z" fill="#d3e0e8"/><path d="m34.667 51h-14.667l31.333-40h3.667l2 1v10.368z" fill="#dce9f0"/><path d="m11 50-.5-4.129 27.5-34.871h7l-31.545 40z" fill="#dce9f0"/><path d="m11 34.579 18.667-23.579h1.333l-20 25.263z" fill="#dce9f0"/><path d="m37 37h4v8h-4z" fill="#ffeb9b"/><path d="m27 27h4v8h-4z" fill="#ffeb9b"/><path d="m41 17h4v8h-4z" fill="#ffeb9b"/><g fill="#8d6c9f"><path d="m61 4h-58c-1.654 0-3 1.346-3 3v48c0 1.654 1.346 3 3 3h58c1.654 0 3-1.346 3-3v-48c0-1.654-1.346-3-3-3zm1 51c0 .552-.449 1-1 1h-58c-.551 0-1-.448-1-1v-48c0-.552.449-1 1-1h58c.551 0 1 .448 1 1z"/><path d="m56 10h-44c-1.103 0-2 .897-2 2v38c0 1.103.897 2 2 2h44c1.103 0 2-.897 2-2v-38c0-1.103-.897-2-2-2zm-44 40v-38h44l.001 38z"/><path d="m51 20h-5v-2c0-1.103-.897-2-2-2h-2c-1.103 0-2 .897-2 2v5.95c0 1.103.897 2 2 2h2c1.103 0 2-.897 2-2v-1.95h5c.552 0 1-.447 1-1s-.448-1-1-1zm-7 3.95h-2l-.001-5.95h.001 2z"/><path d="m19 22h18c.552 0 1-.447 1-1s-.448-1-1-1h-18c-.552 0-1 .447-1 1s.448 1 1 1z"/><path d="m19 32h4c.552 0 1-.447 1-1s-.448-1-1-1h-4c-.552 0-1 .447-1 1s.448 1 1 1z"/><path d="m51 30h-19v-2c0-1.103-.897-2-2-2h-2c-1.103 0-2 .897-2 2v5.95c0 1.103.897 2 2 2h2c1.103 0 2-.897 2-2v-1.95h19c.552 0 1-.447 1-1s-.448-1-1-1zm-21 3.95h-2l-.001-5.95h.001 2z"/><path d="m51 40h-9v-2c0-1.103-.897-2-2-2h-2c-1.103 0-2 .897-2 2v5.95c0 1.103.897 2 2 2h2c1.103 0 2-.897 2-2v-1.95h9c.552 0 1-.447 1-1s-.448-1-1-1zm-11 3.95h-2l-.001-5.95h.001 2z"/><path d="m33 40h-14c-.552 0-1 .447-1 1s.448 1 1 1h14c.552 0 1-.447 1-1s-.448-1-1-1z"/><path d="m7 15h-2c-.552 0-1 .447-1 1s.448 1 1 1h2c.552 0 1-.447 1-1s-.448-1-1-1z"/><path d="m7 10h-2c-.552 0-1 .447-1 1s.448 1 1 1h2c.552 0 1-.447 1-1s-.448-1-1-1z"/><path d="m7 50h-2c-.552 0-1 .447-1 1s.448 1 1 1h2c.552 0 1-.447 1-1s-.448-1-1-1z"/><path d="m7 20h-2c-.552 0-1 .447-1 1s.448 1 1 1h2c.552 0 1-.447 1-1s-.448-1-1-1z"/><path d="m7 25h-2c-.552 0-1 .447-1 1s.448 1 1 1h2c.552 0 1-.447 1-1s-.448-1-1-1z"/><path d="m7 30h-2c-.552 0-1 .447-1 1s.448 1 1 1h2c.552 0 1-.447 1-1s-.448-1-1-1z"/><path d="m7 35h-2c-.552 0-1 .447-1 1s.448 1 1 1h2c.552 0 1-.447 1-1s-.448-1-1-1z"/><path d="m7 40h-2c-.552 0-1 .447-1 1s.448 1 1 1h2c.552 0 1-.447 1-1s-.448-1-1-1z"/><path d="m7 45h-2c-.552 0-1 .447-1 1s.448 1 1 1h2c.552 0 1-.447 1-1s-.448-1-1-1z"/></g></svg>