<svg height="128" viewBox="0 0 64 64" width="128" xmlns="http://www.w3.org/2000/svg"><path d="m4.66 41h56v16h-56z" fill="#c2cde7"/><path d="m8.66 49h48a4 4 0 0 1 4 4v4a0 0 0 0 1 0 0h-56a0 0 0 0 1 0 0v-4a4 4 0 0 1 4-4z" fill="#b5c4e0"/><path d="m60.66 41h-56l6-34h44z" fill="#ced8ed"/><path d="m55.72 13-1.06-6h-44l-1.06 6z" fill="#dae2ef"/><circle cx="13" cy="49" fill="#ed7899" r="2"/><g fill="#8d6c9f"><path d="m61.92 40.48-5.65-32a3 3 0 0 0 -3-2.48h-40.59a3 3 0 0 0 -3 2.48l-5.65 32a5.09 5.09 0 0 0 -.08.87v13.65a3 3 0 0 0 3 3h52.05a3 3 0 0 0 3-3v-13.65a5 5 0 0 0 -.08-.87zm-50.23-31.65a1 1 0 0 1 1-.83h40.63a1 1 0 0 1 1 .83l5.49 31.17h-53.62zm47.31 47.17h-52a1 1 0 0 1 -1-1v-13h54v13a1 1 0 0 1 -1 1z"/><path d="m35 47a1 1 0 0 0 -1 1v2a1 1 0 0 0 2 0v-2a1 1 0 0 0 -1-1z"/><path d="m40 47a1 1 0 0 0 -1 1v2a1 1 0 0 0 2 0v-2a1 1 0 0 0 -1-1z"/><path d="m45 47a1 1 0 0 0 -1 1v2a1 1 0 0 0 2 0v-2a1 1 0 0 0 -1-1z"/><path d="m50 47a1 1 0 0 0 -1 1v2a1 1 0 0 0 2 0v-2a1 1 0 0 0 -1-1z"/><path d="m55 47a1 1 0 0 0 -1 1v2a1 1 0 0 0 2 0v-2a1 1 0 0 0 -1-1z"/><path d="m13 46a3 3 0 1 0 3 3 3 3 0 0 0 -3-3zm0 4a1 1 0 1 1 1-1 1 1 0 0 1 -1 1z"/><path d="m23 48h-4a1 1 0 0 0 0 2h4a1 1 0 0 0 0-2z"/><path d="m32.29 29.71a1 1 0 0 0 1.41 0l5-5a1 1 0 0 0 -1.41-1.41l-3.29 3.29v-13.59a1 1 0 0 0 -2 0v13.59l-3.29-3.29a1 1 0 0 0 -1.41 1.41z"/><path d="m23 36h20a3 3 0 0 0 3-3v-4a1 1 0 0 0 -2 0v4a1 1 0 0 1 -1 1h-20a1 1 0 0 1 -1-1v-4a1 1 0 0 0 -2 0v4a3 3 0 0 0 3 3z"/></g></svg>