<svg height="128" viewBox="0 0 64 64" width="128" xmlns="http://www.w3.org/2000/svg"><path d="m63 27.88c0 13.67-13.91 24.79-31 24.79a38.7 38.7 0 0 1 -6.41-.54c-1.24 2-4.68 6.13-12 7.76h-.21a1 1 0 0 1 -.83-1.47 22.19 22.19 0 0 0 2.91-9.61c-9.08-4.54-14.46-12.34-14.46-20.93 0-13.67 13.91-24.79 31-24.79s31 11.12 31 24.79z" fill="#f9e3ae"/><path d="m1.64 32.95c1.67 6.53 6.56 12.24 13.8 15.89a22.2 22.2 0 0 1 -2.91 9.61 1 1 0 0 0 .83 1.47h.21c7.33-1.63 10.77-5.81 12-7.76a38.7 38.7 0 0 0 6.41.54c14.89 0 27.36-8.44 30.33-19.65a4 4 0 0 0 -3.88-5h-52.89a4 4 0 0 0 -3.9 4.9z" fill="#f6d397"/><ellipse cx="32" cy="28" fill="#85cbf8" rx="24" ry="19"/><g fill="#8d6c9f"><path d="m32 2.14c-17.65 0-32 11.48-32 25.59 0 8.87 5.56 16.92 14.91 21.64a22.91 22.91 0 0 1 -3 9.92 1 1 0 0 0 .86 1.51h.22c7.57-1.68 11.12-6 12.4-8a40 40 0 0 0 6.62.55c17.65 0 32-11.48 32-25.59s-14.36-25.62-32.01-25.62zm0 49.17a37.94 37.94 0 0 1 -6.94-.64 1 1 0 0 0 -1.06.5c-.67 1.23-3.2 5.06-9.28 7.05a26 26 0 0 0 2.23-9.42 1 1 0 0 0 -.57-.95c-9-4.32-14.38-11.85-14.38-20.12 0-13 13.46-23.59 30-23.59s30 10.58 30 23.59-13.46 23.58-30 23.58z"/><path d="m31.71 43.66a1 1 0 0 0 -.91 1.08l.17 2a1 1 0 0 0 1 .91h.09a1 1 0 0 0 .94-1.09l-.17-2a1 1 0 0 0 -1.12-.9z"/><path d="m12.2 34.95-1.64 1.15a1 1 0 1 0 1.15 1.64l1.64-1.15a1 1 0 0 0 -1.15-1.64z"/><path d="m15.71 39.17-1.29 1.53a1 1 0 1 0 1.53 1.3l1.29-1.53a1 1 0 1 0 -1.53-1.29z"/><path d="m21.52 41.85a1 1 0 0 0 -1.33.48l-.85 1.81a1 1 0 1 0 1.81.85l.85-1.81a1 1 0 0 0 -.48-1.33z"/><path d="m26.49 43.43a1 1 0 0 0 -1.16.81l-.35 2a1 1 0 0 0 .81 1.16h.18a1 1 0 0 0 1-.83l.35-2a1 1 0 0 0 -.83-1.14z"/><path d="m9 28c0-10 10.34-18 23-18a27.9 27.9 0 0 1 11.56 2.45 1 1 0 1 0 .83-1.82 29.91 29.91 0 0 0 -12.39-2.63c-13.76 0-25 9-25 20a16.35 16.35 0 0 0 .5 4 1 1 0 0 0 1 .76 1 1 0 0 0 .25 0 1 1 0 0 0 .73-1.21 14.34 14.34 0 0 1 -.48-3.55z"/><path d="m54.47 19.26a1 1 0 0 0 -1.71 1 14.69 14.69 0 0 1 2.24 7.74c0 8.19-7.06 15.36-17.17 17.42a1 1 0 0 0 .2 2h.2c11.01-2.32 18.77-10.29 18.77-19.42a16.66 16.66 0 0 0 -2.53-8.74z"/><path d="m50.1 16.91a1 1 0 1 0 1.42-1.41 22.82 22.82 0 0 0 -2.72-2.33 1 1 0 0 0 -1.18 1.62 20.74 20.74 0 0 1 2.48 2.12z"/></g><path d="m30.84 34.29a1 1 0 0 0 .95.68 1 1 0 0 0 .95-1.32l-5.4-16a1 1 0 0 0 -1.89 0l-5.4 16a1 1 0 1 0 1.89.64l1.81-5.35a.94.94 0 0 0 .15 0h5a.94.94 0 0 0 .15 0zm-6.43-7.29 2-5.87 2 5.87z" fill="#faefde"/><path d="m45 39a1 1 0 0 0 0-2 7 7 0 0 1 -4.11-1.35 11 11 0 0 0 3.11-7.65v-1h3a1 1 0 0 0 0-2h-7v-3a1 1 0 1 0 -2 0v3h-5a1 1 0 0 0 0 2h9v1a9 9 0 0 1 -2.54 6.26 7 7 0 0 1 -1.46-4.26 1 1 0 1 0 -2 0 9 9 0 0 0 1.9 5.5 8.94 8.94 0 0 1 -4.9 1.5 1 1 0 0 0 0 2 10.93 10.93 0 0 0 6.33-2 9 9 0 0 0 5.67 2z" fill="#faefde"/></svg>