<svg height="128" viewBox="0 0 64 64" width="128" xmlns="http://www.w3.org/2000/svg"><circle cx="32" cy="29" fill="#ed7899" r="28"/><path d="m32 1a28 28 0 1 0 28 28 28 28 0 0 0 -28-28zm0 50a22 22 0 1 1 15.17-37.93l.68.67q.39.4.75.82a22 22 0 0 1 -16.6 36.44z" fill="#f9e3ae"/><path d="m32 51a22 22 0 0 1 -22-22h-1.66a4 4 0 0 0 -3.95 4.71 28 28 0 0 0 55.21 0 4 4 0 0 0 -3.94-4.71h-1.66a22 22 0 0 1 -22 22z" fill="#f6d397"/><g fill="#8d6c9f"><path d="m32 0a29 29 0 1 0 29 29 29 29 0 0 0 -29-29zm0 56a27 27 0 1 1 27-27 27 27 0 0 1 -27 27z"/><path d="m39.35 9.32a21.2 21.2 0 0 1 2.1.92 1 1 0 1 0 .9-1.79 22.82 22.82 0 0 0 -2.3-1 1 1 0 1 0 -.7 1.87z"/><path d="m17.15 14.15a21.08 21.08 0 0 1 18.19-5.88 1 1 0 1 0 .32-2 23 23 0 0 0 -19.92 39 1 1 0 0 0 1.41-1.41 21 21 0 0 1 0-29.71z"/><path d="m48.26 12.74a23.35 23.35 0 0 0 -2.09-1.86 1 1 0 1 0 -1.23 1.57 21.35 21.35 0 0 1 1.91 1.7 21 21 0 0 1 0 29.7 1 1 0 1 0 1.41 1.41 23 23 0 0 0 0-32.52z"/></g><path d="m35 23v29l4-4 4 4-11 11-11-11 4-4 4 4v-29z" fill="#faefde"/><path d="m32.71 63.71 11-11a1 1 0 0 0 0-1.41l-4-4a1 1 0 0 0 -1.41 0l-2.3 2.29v-26.59a1 1 0 0 0 -1-1h-6a1 1 0 0 0 -1 1v26.59l-2.29-2.29a1 1 0 0 0 -1.41 0l-4 4a1 1 0 0 0 0 1.41l11 11a1 1 0 0 0 1.41 0zm-10.3-11.71 2.59-2.59 3.29 3.29a1 1 0 0 0 1.71-.7v-28h4v28a1 1 0 0 0 1.71.71l3.29-3.3 2.59 2.59-9.59 9.59z" fill="#8d6c9f"/></svg>