<svg height="128" viewBox="0 0 64 64" width="128" xmlns="http://www.w3.org/2000/svg"><rect fill="#cda1a7" height="50" rx="2" width="54" x="5" y="7"/><path d="m9 52h46a4 4 0 0 1 4 4 1 1 0 0 1 -1 1h-52a1 1 0 0 1 -1-1 4 4 0 0 1 4-4z" fill="#c4939c"/><g fill="#8d6c9f"><path d="m57 6h-50a3 3 0 0 0 -3 3v46a3 3 0 0 0 3 3h50a3 3 0 0 0 3-3v-46a3 3 0 0 0 -3-3zm1 49a1 1 0 0 1 -1 1h-50a1 1 0 0 1 -1-1v-46a1 1 0 0 1 1-1h50a1 1 0 0 1 1 1z"/><path d="m14 50a1 1 0 0 0 -1 1v2a1 1 0 0 0 2 0v-2a1 1 0 0 0 -1-1z"/><path d="m9 50a1 1 0 0 0 -1 1v2a1 1 0 0 0 2 0v-2a1 1 0 0 0 -1-1z"/><path d="m29 50a1 1 0 0 0 -1 1v2a1 1 0 0 0 2 0v-2a1 1 0 0 0 -1-1z"/><path d="m34 50a1 1 0 0 0 -1 1v2a1 1 0 0 0 2 0v-2a1 1 0 0 0 -1-1z"/><path d="m39 50a1 1 0 0 0 -1 1v2a1 1 0 0 0 2 0v-2a1 1 0 0 0 -1-1z"/><path d="m44 50a1 1 0 0 0 -1 1v2a1 1 0 0 0 2 0v-2a1 1 0 0 0 -1-1z"/><path d="m49 50a1 1 0 0 0 -1 1v2a1 1 0 0 0 2 0v-2a1 1 0 0 0 -1-1z"/><path d="m54 50a1 1 0 0 0 -1 1v2a1 1 0 0 0 2 0v-2a1 1 0 0 0 -1-1z"/><path d="m19 50a1 1 0 0 0 -1 1v2a1 1 0 0 0 2 0v-2a1 1 0 0 0 -1-1z"/><path d="m24 50a1 1 0 0 0 -1 1v2a1 1 0 0 0 2 0v-2a1 1 0 0 0 -1-1z"/></g><path d="m49 22h-34a1 1 0 0 0 0 2h34a1 1 0 0 0 0-2z" fill="#faefde"/><path d="m49 30h-34a1 1 0 0 0 0 2h34a1 1 0 0 0 0-2z" fill="#faefde"/><path d="m49 38h-34a1 1 0 0 0 0 2h34a1 1 0 0 0 0-2z" fill="#faefde"/></svg>