<svg height="128" viewBox="0 0 64 64" width="128" xmlns="http://www.w3.org/2000/svg"><path d="m59 22c0-13.25-10.75-21-24-21-13.05 0-23.67 8.48-24 21.4a4 4 0 0 1 -.2 1.17l-5.41 16.26a1 1 0 0 0 .84 1.31l3 .33a2 2 0 0 1 1.78 2v9.07a4 4 0 0 0 4.44 4l9.55-1.1-.7 5.29a2 2 0 0 0 2 2.26h26.5a2 2 0 0 0 2-2.21l-1.47-13.64a7.91 7.91 0 0 1 .75-4.3 47.56 47.56 0 0 0 4.92-20.84z" fill="#faefde"/><circle cx="34" cy="31" fill="#85cbf8" r="6"/><circle cx="47" cy="19" fill="#72caaf" r="4"/><circle cx="34" cy="46" fill="#fff" r="2"/><circle cx="46" cy="40" fill="#ed7899" r="3"/><circle cx="22" cy="19" fill="#acb7d0" r="3"/><circle cx="19" cy="34" fill="#f9e3ae" r="2"/><path d="m19 10.7a3 3 0 0 0 3.81.35 20.78 20.78 0 0 1 11.85-3.51 21.63 21.63 0 0 1 12.45 3.61 3 3 0 0 0 3.82-.34l.45-.45a3 3 0 0 0 -.28-4.5 26.93 26.93 0 0 0 -16.1-4.86 25.81 25.81 0 0 0 -15.86 5.11 3 3 0 0 0 -.25 4.47z" fill="#fff7f0"/><g fill="#8d6c9f"><path d="m35 9a1 1 0 0 0 1-1v-2a1 1 0 0 0 -2 0v2a1 1 0 0 0 1 1z"/><path d="m29 8.92a1 1 0 1 0 1.93-.52l-.53-1.93a1 1 0 0 0 -1.93.53z"/><path d="m44.25 11.48a1 1 0 0 0 1.37-.37l1-1.73a1 1 0 0 0 -1.73-1l-1 1.73a1 1 0 0 0 .36 1.37z"/><path d="m24.38 11.11a1 1 0 0 0 1.73-1l-1-1.73a1 1 0 0 0 -1.73 1z"/><path d="m39.79 9.63a1 1 0 0 0 1.21-.71l.53-1.92a1 1 0 0 0 -1.93-.52l-.52 1.93a1 1 0 0 0 .71 1.22z"/><path d="m55 43.28a48.86 48.86 0 0 0 5-21.28c0-13-10.28-22-25-22-14.16 0-24.67 9.41-25 22.38a3 3 0 0 1 -.14.88l-5.42 16.25a2 2 0 0 0 1.68 2.62l3 .33a1 1 0 0 1 .89 1v9.07a5 5 0 0 0 5.55 5l2.9-.32 5.39-.6-.53 4a3 3 0 0 0 3 3.39h26.5a3 3 0 0 0 3-3.31l-1.49-13.69a6.91 6.91 0 0 1 .67-3.72zm-1.48 18.39a1 1 0 0 1 -.74.33h-26.5a1 1 0 0 1 -1-1.13l.6-4.52 3.23-.35a1 1 0 1 0 -.22-2l-2.73.3-10.83 1.2a3 3 0 0 1 -3.33-3v-9.04a3 3 0 0 0 -2.67-3l-3-.33 5.42-16.26a5 5 0 0 0 .25-1.45c.3-11.83 10-20.42 23-20.42 15.89 0 23 10 23 20a46.86 46.86 0 0 1 -4.82 20.4 8.9 8.9 0 0 0 -.85 4.84l1.44 13.66a1 1 0 0 1 -.25.77z"/><path d="m22 23a4 4 0 1 0 -4-4 4 4 0 0 0 4 4zm0-6.25a2.25 2.25 0 1 1 -2.25 2.25 2.25 2.25 0 0 1 2.25-2.25z"/><path d="m34 43a3 3 0 1 0 3 3 3 3 0 0 0 -3-3zm0 4.14a1.14 1.14 0 1 1 1.14-1.14 1.14 1.14 0 0 1 -1.14 1.14z"/><path d="m47 14a5 5 0 0 0 -5 5 5 5 0 0 0 .75 2.61l-4.33 4a7 7 0 0 0 -8.71-.1l-3-3a1 1 0 0 0 -1.42 1.42l3 3a7 7 0 0 0 -1.29 4.07v.38l-5.45 1.09a3 3 0 1 0 .39 2l5.45-1.09a7 7 0 0 0 5.61 4.54v3.08a1 1 0 0 0 2 0v-3.08a7 7 0 0 0 3.94-2l3.36 2.52a4.09 4.09 0 1 0 1.21-1.59l-3.38-2.53a7 7 0 0 0 -.36-7.29l4.35-4a5 5 0 1 0 2.88-9.03zm-28 21.25a1.25 1.25 0 1 1 1.25-1.25 1.25 1.25 0 0 1 -1.25 1.25zm15 1.13a5.38 5.38 0 1 1 5.38-5.38 5.38 5.38 0 0 1 -5.38 5.38zm12 1.38a2.25 2.25 0 1 1 -2.25 2.24 2.25 2.25 0 0 1 2.25-2.25zm1-15.62a3.13 3.13 0 1 1 3.13-3.14 3.13 3.13 0 0 1 -3.13 3.13z"/></g></svg>