<svg height="128" viewBox="0 0 64 64" width="128" xmlns="http://www.w3.org/2000/svg"><circle cx="33" cy="53" fill="#c2cde7" r="6"/><path d="m57.87 52.09a1 1 0 0 1 -.91.54h-47.96a1 1 0 0 1 -.82-1.63l4.43-6.64 1.18-2.06a11.37 11.37 0 0 0 1-3.32l2.21-17.88a13.41 13.41 0 0 1 13.28-11.73h5.44a13.41 13.41 0 0 1 13.28 11.73l2.25 17.9a11.39 11.39 0 0 0 1.82 4.88l4.75 7.12a1 1 0 0 1 .05 1.09z" fill="#f9e3ae"/><path d="m45.83 14a13.38 13.38 0 0 0 -10.11-4.63h-5.44a13.38 13.38 0 0 0 -10.11 4.63z" fill="#faefde"/><path d="m56.16 53h-46.32a2 2 0 0 1 -1.64-3.15l4.8-6.85h40l4.8 6.85a2 2 0 0 1 -1.64 3.15z" fill="#f6d397"/><g fill="#8d6c9f"><path d="m58.76 49.34-4.62-6.93a9 9 0 0 1 -1.44-3.88l-2.18-17.39a15 15 0 0 0 -11.73-12.79l-1.34-2.69a3 3 0 0 0 -2.69-1.66h-3.52a3 3 0 0 0 -2.68 1.66l-1.35 2.69a15 15 0 0 0 -11.73 12.79l-2.18 17.39a9 9 0 0 1 -1.44 3.88l-4.62 6.93a3 3 0 0 0 2.5 4.66h16.34a7 7 0 0 0 13.84 0h16.34a3 3 0 0 0 2.5-4.66zm-28.42-42.79a1 1 0 0 1 .9-.55h3.53a1 1 0 0 1 .89.55l.74 1.45c-.25 0-.5 0-.76 0h-5.28c-.26 0-.51 0-.76 0zm2.66 51.45a5 5 0 0 1 -4.9-4h9.8a5 5 0 0 1 -4.9 4zm24.14-6.53a1 1 0 0 1 -.88.53h-46.52a1 1 0 0 1 -.83-1.55l4.29-6.45h28a1 1 0 0 0 0-2h-26.85a11 11 0 0 0 .94-3.22l2.17-17.39a13 13 0 0 1 12.9-11.39h5.28a13 13 0 0 1 12.9 11.39l2.17 17.39a11.06 11.06 0 0 0 1.76 4.74l4.62 6.93a1 1 0 0 1 .05 1.02z"/><path d="m43.6 23h.09a1 1 0 0 0 .91-1.08 9.73 9.73 0 0 0 -.82-3.17 1 1 0 1 0 -1.82.82 7.74 7.74 0 0 1 .65 2.52 1 1 0 0 0 .99.91z"/><path d="m34.88 13a1 1 0 0 0 0 2 7.77 7.77 0 0 1 4.94 1.78 1 1 0 1 0 1.28-1.54 9.77 9.77 0 0 0 -6.22-2.24z"/><path d="m49.17 42h-4.25a1 1 0 0 0 0 2h4.25a1 1 0 0 0 0-2z"/><path d="m18 46a1 1 0 0 0 -1 1v2a1 1 0 0 0 2 0v-2a1 1 0 0 0 -1-1z"/><path d="m13 46a1 1 0 0 0 -1 1v2a1 1 0 0 0 2 0v-2a1 1 0 0 0 -1-1z"/><path d="m23 46a1 1 0 0 0 -1 1v2a1 1 0 0 0 2 0v-2a1 1 0 0 0 -1-1z"/><path d="m28 46a1 1 0 0 0 -1 1v2a1 1 0 0 0 2 0v-2a1 1 0 0 0 -1-1z"/><path d="m33 46a1 1 0 0 0 -1 1v2a1 1 0 0 0 2 0v-2a1 1 0 0 0 -1-1z"/><path d="m38 46a1 1 0 0 0 -1 1v2a1 1 0 0 0 2 0v-2a1 1 0 0 0 -1-1z"/><path d="m43 46a1 1 0 0 0 -1 1v2a1 1 0 0 0 2 0v-2a1 1 0 0 0 -1-1z"/><path d="m48 46a1 1 0 0 0 -1 1v2a1 1 0 0 0 2 0v-2a1 1 0 0 0 -1-1z"/><path d="m53 46a1 1 0 0 0 -1 1v2a1 1 0 0 0 2 0v-2a1 1 0 0 0 -1-1z"/></g></svg>