<svg height="128" viewBox="0 0 64 64" width="128" xmlns="http://www.w3.org/2000/svg"><path d="m61 59.38a1 1 0 0 1 -1 1h-56a1 1 0 0 1 -1-1v-8a9.37 9.37 0 0 1 5.3-8.38l14.07-6.73c2.55 3.21 5.91 5.5 9.63 5.5s7.08-2.29 9.63-5.5l14.07 6.73a9.37 9.37 0 0 1 5.3 8.41z" fill="#72caaf"/><path d="m32 45c4.1 0 7.82-2.12 10.57-5.56a2 2 0 0 0 -.7-3.06l-.23-.11c-2.55 3.21-5.91 5.5-9.63 5.5s-7.08-2.29-9.63-5.5l-.23.11a2 2 0 0 0 -.7 3.06c2.73 3.44 6.45 5.56 10.55 5.56z" fill="#7dd8ba"/><path d="m57 56h-50a4 4 0 0 0 -4 4 1 1 0 0 0 1 1h56a1 1 0 0 0 1-1 4 4 0 0 0 -4-4z" fill="#66bfa1"/><path d="m19.07 28.13c-.31 0-1.31-.82-1.83-2.77s-.05-3.27.19-3.33c0 0 1.9-.33 1.92-.71a12.86 12.86 0 0 1 .18-1.63 6.09 6.09 0 0 0 -.08-1.73 22.42 22.42 0 0 1 -.13-5.44c.34-3.38 2.32-5.39 5.31-5.39a1.06 1.06 0 0 0 .63-.21 12.77 12.77 0 0 1 6.74-1.92h1.06c6.42 0 11 3.28 12.95 9.07-.73-.08-.49.43-1 .93s-1.78.7-1.3 2a12.8 12.8 0 0 1 1 4.31c0 .38 1.9-.29 1.92-.29.26.09.72 2.37.19 4.33s-1.82 5.65-1.82 5.65a24.52 24.52 0 0 0 -3.42 3.14c-2.33 3.83-5.76 6.8-9.58 6.8-5.47 0-10.14-6.06-11.92-12.05a1.06 1.06 0 0 0 -1.01-.76z" fill="#faefde"/><path d="m19.45 18a7.47 7.47 0 0 0 6.55-5c3 1 4 4 18 3 1.39-.1 1.6.39 2 0s-.72-2 0-1.93c-1.89-5.79-6.53-9.07-12.94-9.07h-1.06a12.77 12.77 0 0 0 -6.75 1.9 1.06 1.06 0 0 1 -.63.21c-3 0-5 2-5.31 5.39a22.42 22.42 0 0 0 .13 5.44z" fill="#8b8e98"/><path d="m44 20h2a3 3 0 0 1 3 3v2a3 3 0 0 1 -3 3h-2a0 0 0 0 1 0 0v-8a0 0 0 0 1 0 0z" fill="#eb9697"/><path d="m31 32h6v4h-6z" fill="#8b8e98"/><g fill="#8d6c9f"><path d="m47 54a1 1 0 0 0 -1 1v2a1 1 0 0 0 2 0v-2a1 1 0 0 0 -1-1z"/><path d="m52 54a1 1 0 0 0 -1 1v2a1 1 0 0 0 2 0v-2a1 1 0 0 0 -1-1z"/><path d="m56 55v2a1 1 0 0 0 2 0v-2a1 1 0 0 0 -2 0z"/><path d="m42 54a1 1 0 0 0 -1 1v2a1 1 0 0 0 2 0v-2a1 1 0 0 0 -1-1z"/><path d="m37 54a1 1 0 0 0 -1 1v2a1 1 0 0 0 2 0v-2a1 1 0 0 0 -1-1z"/><path d="m32 54a1 1 0 0 0 -1 1v2a1 1 0 0 0 2 0v-2a1 1 0 0 0 -1-1z"/><path d="m27 54a1 1 0 0 0 -1 1v2a1 1 0 0 0 2 0v-2a1 1 0 0 0 -1-1z"/><path d="m22 54a1 1 0 0 0 -1 1v2a1 1 0 0 0 2 0v-2a1 1 0 0 0 -1-1z"/><path d="m17 54a1 1 0 0 0 -1 1v2a1 1 0 0 0 2 0v-2a1 1 0 0 0 -1-1z"/><path d="m12 54a1 1 0 0 0 -1 1v2a1 1 0 0 0 2 0v-2a1 1 0 0 0 -1-1z"/><path d="m7 54a1 1 0 0 0 -1 1v2a1 1 0 0 0 2 0v-2a1 1 0 0 0 -1-1z"/><path d="m55.75 41.38-13.26-6.38a5.6 5.6 0 0 1 .47-.85 5 5 0 0 0 3.58-3.83l.29-1.46a4 4 0 0 0 3.17-3.86v-2a4 4 0 0 0 -4-4h-.34a18.41 18.41 0 0 0 -.71-2.33v-.11a5.31 5.31 0 0 1 1.38.36 1 1 0 0 0 1.36-1.14c-1.69-7.37-7.13-11.78-14.69-11.78h-1a14.59 14.59 0 0 0 -7.31 2c-3.69.14-6.27 2.76-6.69 6.9a23 23 0 0 0 .13 5.6 7.14 7.14 0 0 1 .09 1q0 .28-.09.56a1.94 1.94 0 0 0 -.44.06 2.67 2.67 0 0 0 -1.78 2.26 7.49 7.49 0 0 0 .18 3.34c.54 2 1.66 3.5 2.88 4a23.14 23.14 0 0 0 2.55 5.28l-13.27 6.38a11.06 11.06 0 0 0 -6.25 9.92v7.7a3 3 0 0 0 3 3h54a3 3 0 0 0 3-3v-7.7a11.06 11.06 0 0 0 -6.25-9.92zm-7.75-18.38v2a2 2 0 0 1 -2 2h-1v-6h1a2 2 0 0 1 2 2zm-28.23 4.88c-.29 0-1.24-.78-1.73-2.62a5.55 5.55 0 0 1 -.15-2.42c.11-.56.31-.72.33-.73a.6.6 0 0 1 .27.12 1 1 0 0 0 1.51-.8 12.14 12.14 0 0 1 .17-1.54 5.73 5.73 0 0 0 -.08-1.64 21.23 21.23 0 0 1 -.09-5.15c.31-3.19 2.19-5.1 5-5.1a1 1 0 0 0 .6-.2 12.08 12.08 0 0 1 6.4-1.8h1c6.07 0 10.45 3.1 12.25 8.58a2.3 2.3 0 0 0 -1.9.48 2 2 0 0 0 -.29 2.3c.24.66.42 1.2.56 1.72a1 1 0 0 0 -.62.92v8a1 1 0 0 0 1 1h.78l-.2 1a3 3 0 0 1 -2.58 2.37l-4.23.53a3 3 0 0 0 -2.77-1.9h-2a3 3 0 0 0 0 6h2a3 3 0 0 0 2.85-2.1l2.53-.32c-2.38 3.42-5.38 5.42-8.38 5.42-5.18 0-9.59-5.74-11.27-11.4a1 1 0 0 0 -.96-.72zm16.23 6.12a1 1 0 0 1 -1 1h-2a1 1 0 0 1 0-2h2a1 1 0 0 1 1 1zm24 25a1 1 0 0 1 -1 1h-54a1 1 0 0 1 -1-1v-7.7a9 9 0 0 1 5.12-8.12l13.58-6.5c2.46 3.11 5.7 5.32 9.3 5.32 3.33 0 6.64-1.91 9.32-5.31l13.57 6.49a9 9 0 0 1 5.11 8.12z"/><path d="m27.92 14.88a21.11 21.11 0 0 0 9.19 2.12h2.55a1 1 0 0 0 0-2h-2.55a19.11 19.11 0 0 1 -8.32-1.92l-1.56-.76a2 2 0 0 0 -2.55.7l-1.6 2.43a1 1 0 0 0 1.67 1.1l1.6-2.43z"/></g><path d="m39.33 47.92h-2.33a1 1 0 0 0 0 2h2.33a1 1 0 0 0 0-2z" fill="#faefde"/><path d="m47.33 47.92h-4.33a1 1 0 0 0 0 2h4.33a1 1 0 0 0 0-2z" fill="#faefde"/></svg>