<svg height="128" viewBox="0 0 64 64" width="128" xmlns="http://www.w3.org/2000/svg"><rect fill="#c5e4fa" height="46" rx="2" width="54" x="5" y="5"/><path d="m7 5h50a2 2 0 0 1 2 2v8a0 0 0 0 1 0 0h-54a0 0 0 0 1 0 0v-8a2 2 0 0 1 2-2z" fill="#ced8ed"/><path d="m59 15.39-35.61 35.61h20.33l15.28-15.28z" fill="#e3f2ff"/><path d="m55.16 15.11-35.89 35.89h-8.13l35.89-35.89z" fill="#e3f2ff"/><path d="m42.36 15.11-35.89 35.89h-1.35l35.89-35.89z" fill="#e3f2ff"/><g fill="#8d6c9f"><path d="m57 3.88h-50a3 3 0 0 0 -3 3v42a3 3 0 0 0 3 3h50a3 3 0 0 0 3-3v-42a3 3 0 0 0 -3-3zm-50 2h50a1 1 0 0 1 1 1v7h-52v-7a1 1 0 0 1 1-1zm50 44h-50a1 1 0 0 1 -1-1v-33h52v33a1 1 0 0 1 -1 1z"/><path d="m19 11.88a1 1 0 0 0 1-1v-2a1 1 0 0 0 -2 0v2a1 1 0 0 0 1 1z"/><path d="m14 11.88a1 1 0 0 0 1-1v-2a1 1 0 0 0 -2 0v2a1 1 0 0 0 1 1z"/><path d="m9 11.88a1 1 0 0 0 1-1v-2a1 1 0 0 0 -2 0v2a1 1 0 0 0 1 1z"/><path d="m34 11.88a1 1 0 0 0 1-1v-2a1 1 0 0 0 -2 0v2a1 1 0 0 0 1 1z"/><path d="m39 11.88a1 1 0 0 0 1-1v-2a1 1 0 0 0 -2 0v2a1 1 0 0 0 1 1z"/><path d="m44 11.88a1 1 0 0 0 1-1v-2a1 1 0 0 0 -2 0v2a1 1 0 0 0 1 1z"/><path d="m49 11.88a1 1 0 0 0 1-1v-2a1 1 0 0 0 -2 0v2a1 1 0 0 0 1 1z"/><path d="m54 11.88a1 1 0 0 0 1-1v-2a1 1 0 0 0 -2 0v2a1 1 0 0 0 1 1z"/><path d="m24 11.88a1 1 0 0 0 1-1v-2a1 1 0 0 0 -2 0v2a1 1 0 0 0 1 1z"/><path d="m29 11.88a1 1 0 0 0 1-1v-2a1 1 0 0 0 -2 0v2a1 1 0 0 0 1 1z"/></g><path d="m11.6 58.16 29.5-29.5h-6.1v-5.66h16v16h-5.66v-6.1l-29.5 29.51z" fill="#faefde"/><path d="m51 22h-16a1 1 0 0 0 -1 1v5.66a1 1 0 0 0 1 1h3.69l-27.8 27.8a1 1 0 0 0 0 1.41l4.24 4.24a1 1 0 0 0 1.41 0l27.8-27.8v3.69a1 1 0 0 0 1 1h5.66a1 1 0 0 0 1-1v-16a1 1 0 0 0 -1-1zm-1 16h-3.66v-5.1a1 1 0 0 0 -1.71-.71l-28.79 28.81-2.84-2.84 28.8-28.8a1 1 0 0 0 -.71-1.71h-5.09v-3.65h14z" fill="#8d6c9f"/></svg>