<svg height="128" viewBox="0 0 64 64" width="128" xmlns="http://www.w3.org/2000/svg"><rect fill="#c5e4fa" height="46" rx="2" width="58" x="5" y="5"/><path d="m7 5h54a2 2 0 0 1 2 2v10a0 0 0 0 1 0 0h-58a0 0 0 0 1 0 0v-10a2 2 0 0 1 2-2z" fill="#ced8ed"/><path d="m63 17v16.68l-17.32 17.32h-19.25l34-34z" fill="#e3f2ff"/><path d="m56.52 17-34 34h-7.7l34-34z" fill="#e3f2ff"/><path d="m44.4 17-34 34h-1.28l34-34z" fill="#e3f2ff"/><path d="m29 9h30v4h-30z" fill="#c5e4fa"/><path d="m21.66 21.83 1.24 2.27 2.27 1.24-2.27 1.23-1.24 2.27-1.23-2.27-2.27-1.23 2.27-1.24z" fill="#fff8f8"/><path d="m40.58 27 .86 1.56 1.56.86-1.56.85-.86 1.57-.85-1.57-1.57-.85 1.57-.86z" fill="#fff8f8"/><path d="m30.81 37.54.58 1.07 1.07.58-1.07.58-.58 1.07-.58-1.07-1.07-.58 1.07-.58z" fill="#fff8f8"/><path d="m61 4h-54a3 3 0 0 0 -3 3v42a3 3 0 0 0 3 3h54a3 3 0 0 0 3-3v-42a3 3 0 0 0 -3-3zm1 45a1 1 0 0 1 -1 1h-54a1 1 0 0 1 -1-1v-31h56zm0-33h-56v-9a1 1 0 0 1 1-1h54a1 1 0 0 1 1 1z" fill="#8d6c9f"/><circle cx="10" cy="11" fill="#ed7899" r="2"/><circle cx="16" cy="11" fill="#ffeb9b" r="2"/><circle cx="22" cy="11" fill="#72caaf" r="2"/><g fill="#8d6c9f"><path d="m19 48a1 1 0 0 0 1-1v-2a1 1 0 0 0 -2 0v2a1 1 0 0 0 1 1z"/><path d="m14 48a1 1 0 0 0 1-1v-2a1 1 0 0 0 -2 0v2a1 1 0 0 0 1 1z"/><path d="m9 48a1 1 0 0 0 1-1v-2a1 1 0 0 0 -2 0v2a1 1 0 0 0 1 1z"/><path d="m24 48a1 1 0 0 0 1-1v-2a1 1 0 0 0 -2 0v2a1 1 0 0 0 1 1z"/><path d="m29 48a1 1 0 0 0 1-1v-2a1 1 0 0 0 -2 0v2a1 1 0 0 0 1 1z"/><path d="m39 44a1 1 0 0 0 -1 1v2a1 1 0 0 0 2 0v-2a1 1 0 0 0 -1-1z"/><path d="m44 44a1 1 0 0 0 -1 1v2a1 1 0 0 0 2 0v-2a1 1 0 0 0 -1-1z"/><path d="m49 44a1 1 0 0 0 -1 1v2a1 1 0 0 0 2 0v-2a1 1 0 0 0 -1-1z"/><path d="m54 44a1 1 0 0 0 -1 1v2a1 1 0 0 0 2 0v-2a1 1 0 0 0 -1-1z"/><path d="m59 48a1 1 0 0 0 1-1v-2a1 1 0 0 0 -2 0v2a1 1 0 0 0 1 1z"/><path d="m58 8h-28a2 2 0 0 0 -2 2v2a2 2 0 0 0 2 2h28a2 2 0 0 0 2-2v-2a2 2 0 0 0 -2-2zm-28 4v-2h28v2z"/></g><path d="m17.59 58.16 29.51-29.5h-6.1v-5.66h16v16h-5.66v-6.1l-29.5 29.51z" fill="#faefde"/><path d="m57 22h-16a1 1 0 0 0 -1 1v5.66a1 1 0 0 0 1 1h3.69l-27.8 27.8a1 1 0 0 0 0 1.41l4.24 4.24a1 1 0 0 0 1.41 0l27.8-27.8v3.69a1 1 0 0 0 1 1h5.66a1 1 0 0 0 1-1v-16a1 1 0 0 0 -1-1zm-1 16h-3.66v-5.1a1 1 0 0 0 -1.71-.71l-28.79 28.81-2.84-2.84 28.8-28.8a1 1 0 0 0 -.71-1.71h-5.09v-3.65h14z" fill="#8d6c9f"/></svg>