<svg height="128" viewBox="0 0 64 64" width="128" xmlns="http://www.w3.org/2000/svg"><path d="m54.29 10.57-3.5-.23a27.89 27.89 0 0 1 -15.63-6.08l-1.35-1.08a2.88 2.88 0 0 0 -3.62 0l-1.35 1.08a27.89 27.89 0 0 1 -15.64 6.08l-3.5.23a2.91 2.91 0 0 0 -2.7 3.09l.67 9.22a39.35 39.35 0 0 0 13.51 27l8.91 7.75a2.91 2.91 0 0 0 3.8 0l8.91-7.75a39.36 39.36 0 0 0 13.51-27l.69-9.23a2.9 2.9 0 0 0 -2.71-3.08z" fill="#72caaf"/><path d="m54.29 10.57-3.5-.23a27.89 27.89 0 0 1 -15.63-6.08l-1.35-1.08a2.89 2.89 0 0 0 -1.81-.64v55.83a2.89 2.89 0 0 0 1.9-.71l8.91-7.75a39.36 39.36 0 0 0 13.51-27l.68-9.26a2.9 2.9 0 0 0 -2.71-3.08z" fill="#66bfa1"/><path d="m30.34 35.7a4.59 4.59 0 0 1 -4.26-2.86l-1.27-3.12a4.06 4.06 0 0 0 -2.65-2.37.92.92 0 0 0 -1.17 1l.52 4.77a12.89 12.89 0 0 0 1.49 4.88s3 5 6.91 5h5.64a5 5 0 0 0 4.77-3.52 12.1 12.1 0 0 0 .68-4.03c0-3.45-.75-13.27-.75-13.27a1.65 1.65 0 0 0 -1.65-1.56 1.65 1.65 0 0 0 -1.65 1.65v5.62h-.15l-.28-8.89a1.63 1.63 0 0 0 -1.63-1.58 1.63 1.63 0 0 0 -1.63 1.58v8.86l-.37-10.95a1.42 1.42 0 0 0 -1.42-1.38 1.42 1.42 0 0 0 -1.47 1.41l-.37 10.95v-8.89a1.63 1.63 0 0 0 -1.63-1.6 1.63 1.63 0 0 0 -1.67 1.6l-.33 13.48" fill="#faefde"/><g fill="#8d6c9f"><path d="m44.21 11.66a29 29 0 0 1 -8.49-4.08l-2.57-1.8a2 2 0 0 0 -2.29 0l-2.57 1.8a29 29 0 0 1 -14.7 5.18h-.65a1 1 0 0 0 .07 2h.07.65a31 31 0 0 0 15.7-5.54l2.57-1.79 2.57 1.8a30.94 30.94 0 0 0 9.08 4.36 1 1 0 1 0 .56-1.92z"/><path d="m51 12.8h-.59c-.76-.05-1.53-.13-2.28-.24a1 1 0 1 0 -.29 2c.8.12 1.62.21 2.44.26h.59.07a1 1 0 0 0 .07-2z"/><path d="m55.08 8.87-3.62-.24a28.87 28.87 0 0 1 -16.19-6.29l-1.4-1.12a3 3 0 0 0 -3.75 0l-1.4 1.12a28.85 28.85 0 0 1 -16.18 6.29l-3.62.24a3 3 0 0 0 -2.79 3.18l.69 11.55a40.74 40.74 0 0 0 14 28l9.23 8a3 3 0 0 0 3.94 0l9.23-8a40.75 40.75 0 0 0 14-28l.69-11.54a3 3 0 0 0 -2.83-3.19zm.11 14.59a38.73 38.73 0 0 1 -12.19 25.61v-.07a1 1 0 0 0 -2 0v1.85l-8.34 7.25a1 1 0 0 1 -1.31 0l-8.35-7.25v-1.85a1 1 0 0 0 -2 0v.06a38.72 38.72 0 0 1 -12.19-25.59l-.69-11.54a1 1 0 0 1 .93-1.06l3.62-.24a30.85 30.85 0 0 0 17.33-6.73l1.4-1.12a1 1 0 0 1 1.25 0l1.35 1.12a30.86 30.86 0 0 0 17.3 6.72l3.62.24a1 1 0 0 1 .93 1.06z"/><path d="m27 48a1 1 0 0 0 -1 1v2a1 1 0 0 0 2 0v-2a1 1 0 0 0 -1-1z"/><path d="m32 48a1 1 0 0 0 -1 1v2a1 1 0 0 0 2 0v-2a1 1 0 0 0 -1-1z"/><path d="m37 48a1 1 0 0 0 -1 1v2a1 1 0 0 0 2 0v-2a1 1 0 0 0 -1-1z"/><path d="m35.55 44h-5.64c-4.43 0-7.64-5.31-7.77-5.54a14 14 0 0 1 -1.61-5.3l-.53-4.72a1.92 1.92 0 0 1 2.43-2.05 5 5 0 0 1 2.65 1.81l.25-9.2a2.63 2.63 0 0 1 3.67-2.37 2.42 2.42 0 0 1 4.79 0 2.63 2.63 0 0 1 3.73 2.37v.87a2.65 2.65 0 0 1 3.69 2.3c0 .38.75 9.87.75 13.32a13.09 13.09 0 0 1 -.74 4.45 5.92 5.92 0 0 1 -5.67 4.06zm-13.55-15.66.52 4.66a11.85 11.85 0 0 0 1.36 4.54s2.74 4.52 6 4.52h5.64a4 4 0 0 0 3.81-2.81 11.37 11.37 0 0 0 .67-3.81c0-3.37-.74-13.09-.75-13.19a.65.65 0 0 0 -1.3 0v5.62a1 1 0 0 1 -1 1h-.15a1 1 0 0 1 -1-1l-.28-8.87a.63.63 0 0 0 -1.26 0v8.86a1 1 0 0 1 -1 1 1 1 0 0 1 -1-1l-.41-10.86a.42.42 0 0 0 -.85 0l-.37 11a1 1 0 0 1 -1 1 1 1 0 0 1 -1-1v-9a.63.63 0 0 0 -1.25 0l-.38 13.39v.07a3.58 3.58 0 0 0 3.33 2.24 1 1 0 1 1 0 2 5.57 5.57 0 0 1 -5.18-3.49l-1.26-3.11a3 3 0 0 0 -1.89-1.76z"/></g><path d="m19.5 17 1.24 2.26 2.26 1.24-2.26 1.24-1.24 2.26-1.24-2.26-2.26-1.24 2.26-1.24z" fill="#7dd8ba"/><path d="m47.42 25 .85 1.57 1.57.85-1.57.86-.85 1.56-.86-1.56-1.56-.86 1.56-.85z" fill="#7dd8ba"/><path d="m35.65 36 .58 1.07 1.07.58-1.07.58-.58 1.07-.59-1.07-1.06-.58 1.06-.58z" fill="#fff7f0"/></svg>