<svg height="128" viewBox="0 0 64 64" width="128" xmlns="http://www.w3.org/2000/svg"><circle cx="31" cy="31" fill="#ed7899" r="28"/><path d="m31 3a28 28 0 1 0 28 28 28 28 0 0 0 -28-28zm0 50a22 22 0 1 1 15.17-37.93l.68.67q.39.4.75.82a22 22 0 0 1 -16.6 36.44z" fill="#f9e3ae"/><path d="m31 53a22 22 0 0 1 -22-22h-1.66a4 4 0 0 0 -3.95 4.71 28 28 0 0 0 55.21 0 4 4 0 0 0 -3.94-4.71h-1.66a22 22 0 0 1 -22 22z" fill="#f6d397"/><path d="m29.34 35.7a4.59 4.59 0 0 1 -4.26-2.86l-1.27-3.12a4.06 4.06 0 0 0 -2.65-2.37.92.92 0 0 0 -1.17 1l.52 4.77a12.89 12.89 0 0 0 1.49 4.88s3 5 6.91 5h5.64a5 5 0 0 0 4.77-3.52 12.1 12.1 0 0 0 .68-4.03c0-3.45-.75-13.27-.75-13.27a1.65 1.65 0 0 0 -1.65-1.56 1.65 1.65 0 0 0 -1.65 1.65v5.62h-.15l-.28-8.89a1.63 1.63 0 0 0 -1.63-1.58 1.63 1.63 0 0 0 -1.63 1.58v8.86l-.37-10.95a1.42 1.42 0 0 0 -1.42-1.38 1.42 1.42 0 0 0 -1.47 1.41l-.37 10.95v-8.89a1.63 1.63 0 0 0 -1.63-1.6 1.63 1.63 0 0 0 -1.67 1.6l-.33 13.48" fill="#faefde"/><g fill="#8d6c9f"><path d="m31 2a29 29 0 1 0 29 29 29 29 0 0 0 -29-29zm0 56a27 27 0 1 1 27-27 27 27 0 0 1 -27 27z"/><path d="m31 49a1 1 0 0 0 -1 1v2a1 1 0 0 0 2 0v-2a1 1 0 0 0 -1-1z"/><path d="m37 49.08a1 1 0 0 0 -1.93.52l.52 1.93a1 1 0 0 0 1.94-.53z"/><path d="m21.75 46.52a1 1 0 0 0 -1.37.37l-1 1.73a1 1 0 0 0 1.73 1l1-1.73a1 1 0 0 0 -.36-1.37z"/><path d="m41.62 46.89a1 1 0 0 0 -1.73 1l1 1.73a1 1 0 0 0 1.73-1z"/><path d="m26.21 48.37a1 1 0 0 0 -1.22.71l-.52 1.92a1 1 0 1 0 1.93.52l.52-1.93a1 1 0 0 0 -.71-1.22z"/><path d="m38.35 11.32a21.07 21.07 0 0 1 2.1.92 1 1 0 0 0 .9-1.79 22.88 22.88 0 0 0 -2.3-1 1 1 0 0 0 -.7 1.87z"/><path d="m10 31a21 21 0 0 1 24.34-20.73 1 1 0 1 0 .32-2 23 23 0 0 0 -19.92 39 1 1 0 0 0 1.41-1.41 20.86 20.86 0 0 1 -6.15-14.86z"/><path d="m47.26 14.74a23.39 23.39 0 0 0 -2.09-1.86 1 1 0 1 0 -1.23 1.57 21.25 21.25 0 0 1 1.91 1.7 21 21 0 0 1 0 29.7 1 1 0 1 0 1.41 1.41 23 23 0 0 0 0-32.53z"/><path d="m41 35.45c0-3.45-.72-12.94-.75-13.32a2.65 2.65 0 0 0 -3.69-2.3v-.87a2.63 2.63 0 0 0 -3.7-2.33 2.42 2.42 0 0 0 -4.79 0 2.63 2.63 0 0 0 -3.74 2.37l-.24 9.23a5 5 0 0 0 -2.65-1.81 1.92 1.92 0 0 0 -2.44 2.02l.52 4.77a14 14 0 0 0 1.61 5.3c.13.23 3.34 5.54 7.77 5.54h5.64a5.92 5.92 0 0 0 5.69-4.15 13.09 13.09 0 0 0 .77-4.45zm-2.62 3.79a4 4 0 0 1 -3.83 2.76h-5.64c-3.29 0-6-4.52-6-4.52a11.85 11.85 0 0 1 -1.39-4.48l-.52-4.66a3 3 0 0 1 1.88 1.75l1.27 3.12a5.57 5.57 0 0 0 5.18 3.49 1 1 0 1 0 0-2 3.58 3.58 0 0 1 -3.33-2.24v-.07l.33-13.39a.63.63 0 0 1 1.25 0v8.86a1 1 0 0 0 1 1 1 1 0 0 0 1-1l.42-10.86a.42.42 0 0 1 .84 0l.37 10.95a1 1 0 0 0 1 1 1 1 0 0 0 1-1v-8.95a.63.63 0 0 1 1.26 0l.28 8.9a1 1 0 0 0 1 1h.14a1 1 0 0 0 1-1v-5.63a.65.65 0 0 1 1.3 0c0 .1.75 9.82.75 13.19a11.37 11.37 0 0 1 -.58 3.77z"/></g><path d="m19 17.56 1.24 2.27 2.26 1.24-2.26 1.23-1.24 2.27-1.24-2.27-2.26-1.23 2.26-1.24z" fill="#f283a5"/><path d="m45.97 26.58.86 1.56 1.56.86-1.56.86-.86 1.56-.85-1.56-1.57-.86 1.57-.86z" fill="#f283a5"/><path d="m17.6 39.75.58 1.07 1.07.58-1.07.58-.58 1.07-.58-1.07-1.07-.58 1.07-.58z" fill="#f283a5"/></svg>