<svg height="128" viewBox="0 0 64 64" width="128" xmlns="http://www.w3.org/2000/svg"><path d="m55 57h-46a2 2 0 0 1 -2-2v-46a2 2 0 0 1 2-2h38a2 2 0 0 1 1.41.59l8 8a2 2 0 0 1 .59 1.41v38a2 2 0 0 1 -2 2z" fill="#c2cde7"/><rect fill="#faefde" height="26" rx="2" width="34" x="15" y="31"/><rect fill="#bbdef9" height="18" rx="2" transform="matrix(-1 0 0 -1 60 32)" width="30" x="15" y="7"/><path d="m45 7h-7.92l-14.25 18h12.84l9.33-11.79z" fill="#def0ff"/><path d="m15 18.89 9.42-11.89h-1.17l-8.25 10.42z" fill="#def0ff"/><path d="m27.92 7-12.92 16.32v1.68h4.17l14.25-18z" fill="#def0ff"/><rect fill="#ffeb9b" height="10" rx="2" width="4" x="37" y="11"/><path d="m19 50h26a4 4 0 0 1 4 4v3a0 0 0 0 1 0 0h-34a0 0 0 0 1 0 0v-3a4 4 0 0 1 4-4z" fill="#efd8be"/><path d="m56.54 14.12-6.66-6.66a5 5 0 0 0 -3.54-1.46h-37.34a3 3 0 0 0 -3 3v46a3 3 0 0 0 3 3h46a3 3 0 0 0 3-3v-37.34a5 5 0 0 0 -1.46-3.54zm-12.54-6.12v15a1 1 0 0 1 -1 1h-26a1 1 0 0 1 -1-1v-15zm-28 48v-23a1 1 0 0 1 1-1h30a1 1 0 0 1 1 1v23zm40-1a1 1 0 0 1 -1 1h-5v-23a3 3 0 0 0 -3-3h-30a3 3 0 0 0 -3 3v23h-5a1 1 0 0 1 -1-1v-46a1 1 0 0 1 1-1h5v15a3 3 0 0 0 3 3h26a3 3 0 0 0 3-3v-15h.34a3 3 0 0 1 2.12.88l6.66 6.66a3 3 0 0 1 .88 2.12z" fill="#8d6c9f"/><path d="m39 38h4a1 1 0 0 0 0-2h-4a1 1 0 0 0 0 2z" fill="#eb9697"/><path d="m21 38h14a1 1 0 0 0 0-2h-14a1 1 0 0 0 0 2z" fill="#eb9697"/><path d="m39 40h-18a1 1 0 0 0 0 2h18a1 1 0 0 0 0-2z" fill="#eb9697"/><g fill="#8d6c9f"><path d="m19 48a1 1 0 0 0 -1 1v2a1 1 0 0 0 2 0v-2a1 1 0 0 0 -1-1z"/><path d="m24 48a1 1 0 0 0 -1 1v2a1 1 0 0 0 2 0v-2a1 1 0 0 0 -1-1z"/><path d="m29 48a1 1 0 0 0 -1 1v2a1 1 0 0 0 2 0v-2a1 1 0 0 0 -1-1z"/><path d="m34 48a1 1 0 0 0 -1 1v2a1 1 0 0 0 2 0v-2a1 1 0 0 0 -1-1z"/><path d="m39 48a1 1 0 0 0 -1 1v2a1 1 0 0 0 2 0v-2a1 1 0 0 0 -1-1z"/><path d="m44 48a1 1 0 0 0 -1 1v2a1 1 0 0 0 2 0v-2a1 1 0 0 0 -1-1z"/><path d="m39 22a3 3 0 0 0 3-3v-6a3 3 0 0 0 -6 0v6a3 3 0 0 0 3 3zm-1-9a1 1 0 0 1 2 0v6a1 1 0 0 1 -2 0z"/></g></svg>