<svg height="128" viewBox="0 0 64 64" width="128" xmlns="http://www.w3.org/2000/svg"><path d="m49 57h-46a2 2 0 0 1 -2-2v-46a2 2 0 0 1 2-2h38a2 2 0 0 1 1.41.59l8 8a2 2 0 0 1 .59 1.41v38a2 2 0 0 1 -2 2z" fill="#c2cde7"/><rect fill="#def0ff" height="26" rx="2" width="34" x="9" y="31"/><rect fill="#bbdef9" height="18" rx="2" transform="matrix(-1 0 0 -1 48 32)" width="30" x="9" y="7"/><path d="m39 7h-7.92l-14.25 18h12.84l9.33-11.79z" fill="#def0ff"/><path d="m9 18.89 9.42-11.89h-1.17l-8.25 10.42z" fill="#def0ff"/><path d="m21.92 7-12.92 16.32v1.68h4.17l14.25-18z" fill="#def0ff"/><rect fill="#ffeb9b" height="10" rx="2" width="4" x="31" y="11"/><path d="m13 50h28a2 2 0 0 1 2 2v5a0 0 0 0 1 0 0h-34a0 0 0 0 1 0 0v-3a4 4 0 0 1 4-4z" fill="#bbdef9"/><path d="m36.45 27.55h14.14v19.86h-14.14z" fill="#f9e3ae" transform="matrix(.70710678 .70710678 -.70710678 .70710678 39.25 -19.8)"/><path d="m40.88 29.5h9.19v19.03h-9.19z" fill="#f6d397" transform="matrix(.70710678 .70710678 -.70710678 .70710678 40.91 -20.73)"/><path d="m52.22 20.88h8.1a3 3 0 0 1 3 3v4.77a0 0 0 0 1 0 0h-14.1a0 0 0 0 1 0 0v-4.77a3 3 0 0 1 3-3z" fill="#ed7899" transform="matrix(.70710678 .70710678 -.70710678 .70710678 33.99 -32.54)"/><path d="m44.91 26.87h14.14v4.3h-14.14z" fill="#c2cde7" transform="matrix(.70710678 .70710678 -.70710678 .70710678 35.75 -28.25)"/><path d="m30 48.64.79-8.64 5.5.79.78 2.35 2.29 1.18 1.64 5.89h-9.43z" fill="#faefde"/><g fill="#8d6c9f"><path d="m25 38h4a1 1 0 0 0 0-2h-4a1 1 0 0 0 0 2z"/><path d="m15 38h6a1 1 0 0 0 0-2h-6a1 1 0 0 0 0 2z"/><path d="m26 40h-11a1 1 0 0 0 0 2h11a1 1 0 0 0 0-2z"/><path d="m14 48a1 1 0 0 0 -1 1v2a1 1 0 0 0 2 0v-2a1 1 0 0 0 -1-1z"/><path d="m19 48a1 1 0 0 0 -1 1v2a1 1 0 0 0 2 0v-2a1 1 0 0 0 -1-1z"/><path d="m24 48a1 1 0 0 0 -1 1v2a1 1 0 0 0 2 0v-2a1 1 0 0 0 -1-1z"/><path d="m33 22a3 3 0 0 0 3-3v-6a3 3 0 0 0 -6 0v6a3 3 0 0 0 3 3zm-1-9a1 1 0 0 1 2 0v6a1 1 0 0 1 -2 0z"/><path d="m62.12 23.12-4.24-4.24a5 5 0 0 0 -5.88-.88v-.37a5 5 0 0 0 -1.46-3.54l-6.66-6.63a5 5 0 0 0 -3.54-1.46h-37.34a3 3 0 0 0 -3 3v46a3 3 0 0 0 3 3h46a3 3 0 0 0 3-3v-14.66l7.29-7.34 2.83-2.83a5 5 0 0 0 0-7.05zm-6.6 10.88-8.52-8.51 1.65-1.66 8.48 8.48zm-5.22 5.24-8.84 8.87-.46-4.39a1 1 0 0 0 -1-.9h-1.82v-1.41l5.36-5.41a1 1 0 0 0 -1.41-1.41l-5.32 5.32-3.81-.36 12.6-12.64 8.48 8.48zm-40.3 16.76v-23a1 1 0 0 1 1-1h26.72l-7.58 7.61a1 1 0 0 0 -.29.59l-.74 6.32-.7 4.93a1 1 0 0 0 1 1.14h.14l4.92-.7 6.39-.68a1 1 0 0 0 .6-.29l.55-.55v5.63zm27.18-11.18h1.93l.47 4.51-4.85.51-3.56-3.56.57-4.86 4.46.47v1.93a1 1 0 0 0 .98 1zm.82-36.82v15a1 1 0 0 1 -1 1h-26a1 1 0 0 1 -1-1v-15zm-35 48a1 1 0 0 1 -1-1v-46a1 1 0 0 1 1-1h5v15a3 3 0 0 0 3 3h26a3 3 0 0 0 3-3v-15h.34a3 3 0 0 1 2.12.88l6.66 6.66a3 3 0 0 1 .88 2.12v2l-2 2-3 3-5.29 5.34h-28.71a3 3 0 0 0 -3 3v23zm47-1a1 1 0 0 1 -1 1h-5v-7.64l6-6zm10.71-26.22-2.12 2.12-8.49-8.49.05-.05 2.07-2.07a3 3 0 0 1 4.24 0l4.24 4.24a3 3 0 0 1 .01 4.25z"/></g></svg>