<svg height="128" viewBox="0 0 64 64" width="128" xmlns="http://www.w3.org/2000/svg"><path d="m3 23h4a4 4 0 0 1 4 4v14a4 4 0 0 1 -4 4h-4a0 0 0 0 1 0 0v-22a0 0 0 0 1 0 0z" fill="#f9e3ae" transform="matrix(-1 0 0 -1 14 68)"/><path d="m3 34h8a0 0 0 0 1 0 0v11a0 0 0 0 1 0 0h-5a3 3 0 0 1 -3-3v-8a0 0 0 0 1 0 0z" fill="#f6d397"/><path d="m53 23h4a4 4 0 0 1 4 4v14a4 4 0 0 1 -4 4h-4a0 0 0 0 1 0 0v-22a0 0 0 0 1 0 0z" fill="#f9e3ae"/><path d="m53 34h8a0 0 0 0 1 0 0v8a3 3 0 0 1 -3 3h-5a0 0 0 0 1 0 0v-11a0 0 0 0 1 0 0z" fill="#f6d397"/><rect fill="#acb7d0" height="26" rx="2" width="4" x="11" y="21"/><rect fill="#acb7d0" height="26" rx="2" width="4" x="49" y="21"/><rect fill="#8b8e98" height="6" rx="2" width="8" x="31" y="55"/><path d="m44.16 14.31a2 2 0 0 1 -2.78.16 13.85 13.85 0 0 0 -18.79 0 2 2 0 0 1 -2.77-.15l-4.82-5.14a21.23 21.23 0 0 1 16-7.48h2.1a21.23 21.23 0 0 1 15.9 7.43z" fill="#c2cde7"/><path d="m31 6.7a20.86 20.86 0 0 0 -13.54 5.07l2.41 2.57a2 2 0 0 0 2.77.15 13.85 13.85 0 0 1 18.79 0 2 2 0 0 0 2.78-.16l2.4-2.57a20.86 20.86 0 0 0 -13.51-5z" fill="#acb7d0"/><g fill="#8d6c9f"><path d="m32 4a1 1 0 0 0 -1 1v2a1 1 0 0 0 2 0v-2a1 1 0 0 0 -1-1z"/><path d="m27.4 5.47a1 1 0 0 0 -1.93.53l.53 1.92a1 1 0 1 0 1.93-.52z"/><path d="m43.25 7a1 1 0 0 0 -1.37.37l-1 1.73a1 1 0 0 0 1.73 1l1-1.73a1 1 0 0 0 -.36-1.37z"/><path d="m22.12 7.38a1 1 0 0 0 -1.73 1l1 1.73a1 1 0 0 0 1.73-1z"/><path d="m37.82 4.77a1 1 0 0 0 -1.22.71l-.52 1.93a1 1 0 1 0 1.92.51l.53-1.92a1 1 0 0 0 -.71-1.23z"/><path d="m57 22h-1a23 23 0 0 0 -23-22h-2a23 23 0 0 0 -23 22h-1a5 5 0 0 0 -5 5v14a5 5 0 0 0 5 5h3.18a3 3 0 0 0 5.82-1v-22a3 3 0 0 0 -5.82-1h-.13a20.87 20.87 0 0 1 4.43-11.92l4.52 4.45a4 4 0 0 0 2.81 1.16 3.92 3.92 0 0 0 2.51-.91 12 12 0 0 1 15.33 0 4 4 0 0 0 5.35-.28l4.49-4.5a20.87 20.87 0 0 1 4.46 12h-.13a3 3 0 0 0 -5.82 1v22a3 3 0 0 0 5.82 1h1.18v2a9 9 0 0 1 -9 9h-6.14a4 4 0 0 0 -3.86-3h-2a4 4 0 0 0 0 8h2a4 4 0 0 0 3.86-3h6.14a11 11 0 0 0 11-11v-2a5 5 0 0 0 5-5v-14a5 5 0 0 0 -5-5zm-53 19v-14a3 3 0 0 1 3-3h3v20h-3a3 3 0 0 1 -3-3zm9-19a1 1 0 0 1 1 1v22a1 1 0 0 1 -2 0v-22a1 1 0 0 1 1-1zm30.57-8.93a2 2 0 0 1 -2.65.14 14 14 0 0 0 -17.88 0 2 2 0 0 1 -2.64-.14l-4.61-4.5a20.92 20.92 0 0 1 15.21-6.57h2a20.92 20.92 0 0 1 15.18 6.53zm-7.57 46.93h-2a2 2 0 0 1 0-4h2a2 2 0 0 1 0 4zm15-14a1 1 0 0 1 -1-1v-22a1 1 0 0 1 2 0v22a1 1 0 0 1 -1 1zm6-2h-3v-20h3a3 3 0 0 1 3 3v14a3 3 0 0 1 -3 3z"/></g></svg>