<svg height="128" viewBox="0 0 64 64" width="128" xmlns="http://www.w3.org/2000/svg"><path d="m28.88 49h17.12a17 17 0 0 0 17-17 17 17 0 0 0 -17-17h-17.06" fill="#ed7899"/><path d="m58.37 32a4 4 0 0 1 3.81 5.24 17 17 0 0 1 -16.18 11.76h-17.12v-17z" fill="#e0678f"/><circle cx="20" cy="32" fill="#c2cde7" r="19"/><circle cx="20" cy="32" fill="#d6dff2" r="14"/><g fill="#8d6c9f"><path d="m46.12 14h-17.12a1 1 0 0 0 -.24 0 20 20 0 1 0 0 35.89 1 1 0 0 0 .28.06h17.08a18 18 0 0 0 0-36zm-44.12 18a18 18 0 1 1 18 18 18 18 0 0 1 -18-18zm44.12 16h-14.17a19.92 19.92 0 0 0 0-32h14.17a16 16 0 0 1 0 32z"/><path d="m31.8 22.74a1 1 0 1 0 -1.57 1.26 13 13 0 0 1 -1 17.2 1 1 0 1 0 1.42 1.41 15 15 0 0 0 1.15-19.87z"/><path d="m28.67 19.76a15 15 0 0 0 -2.21-1.3 1 1 0 1 0 -.86 1.8 13.06 13.06 0 0 1 1.92 1.13 1 1 0 1 0 1.16-1.63z"/><path d="m22.14 17.15a15 15 0 0 0 -17.14 14.85 14.9 14.9 0 0 0 1.2 5.9 1 1 0 0 0 1.8-.79 13 13 0 0 1 12-18.11 13.21 13.21 0 0 1 1.86.13 1 1 0 0 0 .28-2z"/><path d="m20 43a1 1 0 0 0 -1 1v2a1 1 0 0 0 2 0v-2a1 1 0 0 0 -1-1z"/><path d="m15.88 42.2a1 1 0 0 0 -1.3.55l-.75 1.85a1 1 0 1 0 1.85.75l.75-1.85a1 1 0 0 0 -.55-1.3z"/><path d="m25.42 42.75a1 1 0 0 0 -1.85.75l.75 1.85a1 1 0 0 0 1.85-.75z"/><path d="m10.94 39.94-1.38 1.44a1 1 0 1 0 1.44 1.39l1.39-1.44a1 1 0 1 0 -1.44-1.39z"/></g></svg>