<svg height="128" viewBox="0 0 64 64" width="128" xmlns="http://www.w3.org/2000/svg"><rect fill="#c2cde7" height="52" rx="3" width="62" x=".97" y="5"/><path d="m1 35v19a3 3 0 0 0 3 3h56a3 3 0 0 0 3-3v-19a4 4 0 0 0 -4-4h-54a4 4 0 0 0 -4 4z" fill="#acb7d0"/><rect fill="#d3e0e8" height="40" rx="3" width="47" x="10.47" y="10.5"/><path d="m34.64 51h-14.66l31.33-40h3.67l2 1v10.37z" fill="#dce9f0"/><path d="m10.97 50-.5-4.13 27.51-34.87h7l-31.55 40z" fill="#dce9f0"/><path d="m10.97 34.58 18.67-23.58h1.34l-20.01 25.26z" fill="#dce9f0"/><circle cx="33" cy="34" fill="#ffeb9b" r="3"/><circle cx="45" cy="26" fill="#ffeb9b" r="3"/><circle cx="21" cy="24" fill="#ffeb9b" r="3"/><g fill="#8d6c9f"><path d="m61 4h-58a3 3 0 0 0 -3 3v48a3 3 0 0 0 3 3h58a3 3 0 0 0 3-3v-48a3 3 0 0 0 -3-3zm1 51a1 1 0 0 1 -1 1h-58a1 1 0 0 1 -1-1v-48a1 1 0 0 1 1-1h58a1 1 0 0 1 1 1z"/><path d="m56 10h-44a2 2 0 0 0 -2 2v38a2 2 0 0 0 2 2h44a2 2 0 0 0 2-2v-38a2 2 0 0 0 -2-2zm-44 40v-38h44v38z"/><path d="m21 30a1 1 0 0 0 -1 1v14a1 1 0 0 0 2 0v-14a1 1 0 0 0 -1-1z"/><path d="m33 40a1 1 0 0 0 -1 1v4a1 1 0 0 0 2 0v-4a1 1 0 0 0 -1-1z"/><path d="m45 32a1 1 0 0 0 -1 1v12a1 1 0 0 0 2 0v-12a1 1 0 0 0 -1-1z"/><path d="m7 15h-2a1 1 0 0 0 0 2h2a1 1 0 0 0 0-2z"/><path d="m7 10h-2a1 1 0 0 0 0 2h2a1 1 0 0 0 0-2z"/><path d="m7 50h-2a1 1 0 0 0 0 2h2a1 1 0 0 0 0-2z"/><path d="m7 20h-2a1 1 0 0 0 0 2h2a1 1 0 0 0 0-2z"/><path d="m7 25h-2a1 1 0 0 0 0 2h2a1 1 0 0 0 0-2z"/><path d="m7 30h-2a1 1 0 0 0 0 2h2a1 1 0 0 0 0-2z"/><path d="m7 35h-2a1 1 0 0 0 0 2h2a1 1 0 0 0 0-2z"/><path d="m7 40h-2a1 1 0 0 0 0 2h2a1 1 0 0 0 0-2z"/><path d="m7 45h-2a1 1 0 0 0 0 2h2a1 1 0 0 0 0-2z"/><path d="m34 30.15v-13.15a1 1 0 0 0 -2 0v13.13a4 4 0 1 0 2 0zm-1 5.85a2 2 0 1 1 2-2 2 2 0 0 1 -2 2z"/><path d="m46 22.15v-5.15a1 1 0 0 0 -2 0v5.16a4 4 0 1 0 2 0zm-1 5.85a2 2 0 1 1 2-2 2 2 0 0 1 -2 2z"/><path d="m22 20.15v-3.15a1 1 0 0 0 -2 0v3.16a4 4 0 1 0 2 0zm-1 5.85a2 2 0 1 1 2-2 2 2 0 0 1 -2 2z"/></g></svg>