<svg height="128" viewBox="0 0 64 64" width="128" xmlns="http://www.w3.org/2000/svg"><path d="m57 55h-50a2 2 0 0 1 -2-2v-42a2 2 0 0 1 2-2h17l8-8 8 8h17a2 2 0 0 1 2 2v42a2 2 0 0 1 -2 2z" fill="#85cbf8"/><path d="m9 50h46a4 4 0 0 1 4 4 1 1 0 0 1 -1 1h-52a1 1 0 0 1 -1-1 4 4 0 0 1 4-4z" fill="#7bbeeb"/><g fill="#8d6c9f"><path d="m57 8h-16.18a3 3 0 0 1 -2.26-1l-5-5.77a2 2 0 0 0 -1.56-.71 2 2 0 0 0 -1.51.69l-4.97 5.79a3 3 0 0 1 -2.27 1h-16.25a3 3 0 0 0 -3 3v42a3 3 0 0 0 3 3h50a3 3 0 0 0 3-3v-42a3 3 0 0 0 -3-3zm1 45a1 1 0 0 1 -1 1h-50a1 1 0 0 1 -1-1v-42a1 1 0 0 1 1-1h16.25a5 5 0 0 0 3.75-1.73l5-5.75 5 5.77a5 5 0 0 0 3.82 1.71h16.18a1 1 0 0 1 1 1z"/><path d="m20 48a1 1 0 0 0 -1 1v2a1 1 0 0 0 2 0v-2a1 1 0 0 0 -1-1z"/><path d="m15 48a1 1 0 0 0 -1 1v2a1 1 0 0 0 2 0v-2a1 1 0 0 0 -1-1z"/><path d="m10 48a1 1 0 0 0 -1 1v2a1 1 0 0 0 2 0v-2a1 1 0 0 0 -1-1z"/><path d="m35 48a1 1 0 0 0 -1 1v2a1 1 0 0 0 2 0v-2a1 1 0 0 0 -1-1z"/><path d="m40 48a1 1 0 0 0 -1 1v2a1 1 0 0 0 2 0v-2a1 1 0 0 0 -1-1z"/><path d="m45 48a1 1 0 0 0 -1 1v2a1 1 0 0 0 2 0v-2a1 1 0 0 0 -1-1z"/><path d="m50 48a1 1 0 0 0 -1 1v2a1 1 0 0 0 2 0v-2a1 1 0 0 0 -1-1z"/><path d="m55 48a1 1 0 0 0 -1 1v2a1 1 0 0 0 2 0v-2a1 1 0 0 0 -1-1z"/><path d="m25 48a1 1 0 0 0 -1 1v2a1 1 0 0 0 2 0v-2a1 1 0 0 0 -1-1z"/><path d="m30 48a1 1 0 0 0 -1 1v2a1 1 0 0 0 2 0v-2a1 1 0 0 0 -1-1z"/></g><path d="m23 22h4a1 1 0 0 0 0-2h-4a1 1 0 0 0 0 2z" fill="#faefde"/><path d="m31 22h18a1 1 0 0 0 0-2h-18a1 1 0 0 0 0 2z" fill="#faefde"/><path d="m23 30h18a1 1 0 0 0 0-2h-18a1 1 0 0 0 0 2z" fill="#faefde"/><path d="m45 36h-6a1 1 0 0 0 0 2h6a1 1 0 0 0 0-2z" fill="#faefde"/><path d="m35 36h-12a1 1 0 0 0 0 2h12a1 1 0 0 0 0-2z" fill="#faefde"/><circle cx="16.04" cy="21" fill="#faefde" r="2"/><circle cx="16.04" cy="29" fill="#faefde" r="2"/><circle cx="16.04" cy="37" fill="#faefde" r="2"/></svg>