<svg height="128" viewBox="0 0 64 64" width="128" xmlns="http://www.w3.org/2000/svg"><path d="m61 15v34a4 4 0 0 1 -4 4h-50a3.93 3.93 0 0 1 -1.64-.36 4 4 0 0 1 -2.26-2.74 4.43 4.43 0 0 1 -.1-.9v-34a4 4 0 0 1 4-4h50a4 4 0 0 1 4 4z" fill="#f9dd8f"/><path d="m61 15v11l-27 27h-15l40.83-40.83a4 4 0 0 1 1.17 2.83z" fill="#ffefb8"/><path d="m57 11-42 42h-6l42-42z" fill="#ffefb8"/><path d="m47 11-41.64 41.64a4 4 0 0 1 -2.26-2.74l38.9-38.9z" fill="#ffefb8"/><path d="m61 49a4 4 0 0 1 -4 4h-50a3.93 3.93 0 0 1 -1.64-.36 4 4 0 0 1 -2.26-2.74 4.43 4.43 0 0 1 -.1-.9v-1h57a1 1 0 0 1 1 1z" fill="#f5c872"/><g fill="#8d6c9f"><path d="m57 10h-50a5 5 0 0 0 -5 5v34a5 5 0 0 0 5 5h50a5 5 0 0 0 5-5v-34a5 5 0 0 0 -5-5zm3 39a3 3 0 0 1 -3 3h-50a3 3 0 0 1 -3-3v-34a3 3 0 0 1 3-3h50a3 3 0 0 1 3 3z"/><path d="m7 46a1 1 0 0 0 -1 1v2a1 1 0 0 0 2 0v-2a1 1 0 0 0 -1-1z"/><path d="m12 46a1 1 0 0 0 -1 1v2a1 1 0 0 0 2 0v-2a1 1 0 0 0 -1-1z"/><path d="m17 46a1 1 0 0 0 -1 1v2a1 1 0 0 0 2 0v-2a1 1 0 0 0 -1-1z"/><path d="m22 46a1 1 0 0 0 -1 1v2a1 1 0 0 0 2 0v-2a1 1 0 0 0 -1-1z"/><path d="m27 46a1 1 0 0 0 -1 1v2a1 1 0 0 0 2 0v-2a1 1 0 0 0 -1-1z"/><path d="m32 46a1 1 0 0 0 -1 1v2a1 1 0 0 0 2 0v-2a1 1 0 0 0 -1-1z"/><path d="m37 46a1 1 0 0 0 -1 1v2a1 1 0 0 0 2 0v-2a1 1 0 0 0 -1-1z"/><path d="m42 46a1 1 0 0 0 -1 1v2a1 1 0 0 0 2 0v-2a1 1 0 0 0 -1-1z"/><path d="m47 46a1 1 0 0 0 -1 1v2a1 1 0 0 0 2 0v-2a1 1 0 0 0 -1-1z"/><path d="m52 46a1 1 0 0 0 -1 1v2a1 1 0 0 0 2 0v-2a1 1 0 0 0 -1-1z"/><path d="m57 46a1 1 0 0 0 -1 1v2a1 1 0 0 0 2 0v-2a1 1 0 0 0 -1-1z"/><path d="m28.32 22.05a1 1 0 0 0 -1.27.63l-5.05 15.16-5.05-15.16a1 1 0 1 0 -1.9.63l6 18v.07l.06.12a1 1 0 0 0 .14.19l.08.08a1 1 0 0 0 .28.16 1 1 0 0 0 .62 0 1 1 0 0 0 .28-.16l.08-.08a1 1 0 0 0 .14-.19l.06-.12v-.07l6-18a1 1 0 0 0 -.47-1.26z"/><path d="m33 22a1 1 0 0 0 -1 1v18a1 1 0 0 0 2 0v-18a1 1 0 0 0 -1-1z"/><path d="m45 22h-6a1 1 0 0 0 -1 1v18a1 1 0 0 0 2 0v-7h5a5 5 0 0 0 5-5v-2a5 5 0 0 0 -5-5zm3 7a3 3 0 0 1 -3 3h-5v-8h5a3 3 0 0 1 3 3z"/></g><path d="m50.34 14-1.24 2.26-2.27 1.24 2.27 1.24 1.24 2.26 1.23-2.26 2.27-1.24-2.27-1.24z" fill="#fff8f8"/><path d="m11.41 19-.85 1.56-1.56.86 1.56.85.85 1.57.86-1.57 1.56-.85-1.56-.86z" fill="#fff8f8"/><path d="m47.48 37.7-.58 1.07-1.07.58 1.07.59.58 1.06.58-1.06 1.07-.59-1.07-.58z" fill="#fff8f8"/></svg>