<svg fill="none" height="133" viewBox="0 0 177 133" width="177" xmlns="http://www.w3.org/2000/svg"><path d="m60.8637 43.1609c.663-1.0669 1.4175-2.0606 2.253-2.9675.0883-.1082.201-.1884.3266-.2325.3709-.0856.5868.4406.6421.8566.3327 2.6412.0271 5.3327-.8857 7.8012-.8248 2.221-1.4281 4.6501-3.4099 5.9901-.279.2263-.6246.3289-.9687.2875-.1925-.0656-.3642-.19-.4955-.3589-.1312-.1689-.2166-.3754-.2463-.5956-.2546-1.4868-1.9651-.055-1.6219-1.4929.5038-2.1415 1.7991-4.026 2.6737-5.984.5039-1.1465 1.083-2.2508 1.7326-3.304z" fill="#9a4dff"/><path d="m70.4789.306152-3.1553 24.327448-9.7591 54.1431 3.3268 2.6493 48.8897.2448 7.401-57.0372 2.89-22.24102-2.463-2.086428z" fill="#9a4dff"/><path d="m109.782 81.9767-48.8905-.2448c-.0579-.0017-.114-.023-.1605-.0611l-3.3214-2.6494c-.0434-.0334-.0771-.0803-.0967-.1346-.0197-.0544-.0246-.1139-.014-.1713l9.7426-54.137 3.1498-24.31521c.0104-.072975.044-.139472.0947-.1876505.0507-.0481788.1152-.07491367.182-.07544807h47.13c.06-.00248281.119.01925467.166.06118467l2.463 2.0864339c.039.03322.07.0774.088.12796.019.05056.025.10566.017.15961l-10.274 79.27822c-.01.073-.044.1395-.094.1876-.051.0482-.116.0749-.182.0755zm-48.8019-.8566 48.5639.2447 10.229-78.83764-2.258-1.915112h-46.7979l-3.122 24.070452-9.726 53.9596z" fill="#231f20"/><path d="m114.453 24.6336h-49.8639l3.1553-24.327448h49.8646z" fill="#9a4dff"/><path d="m114.454 24.9393h-49.8648c-.0397-.0004-.0788-.0099-.115-.0278s-.0687-.0438-.0954-.0763c-.026-.0331-.045-.0723-.0556-.1147-.0105-.0423-.0123-.0868-.0053-.13l3.1553-24.327402c.0093-.072465.0417-.138857.0915-.1871295.0498-.0482721.1135-.07522503.1798-.0759685h49.8645c.039.00038741.079.00982469.115.0277238.036.0178991.068.0438728.095.0762902.025.033992.043.073264.054.11537.01.042106.013.086144.007.129374l-3.155 24.333542c-.011.0713-.044.1363-.093.1833-.05.0471-.113.0731-.178.0737zm-49.5438-.6119h49.2998l3.078-23.715544h-49.3z" fill="#231f20"/><path d="m114.453 24.6333h-49.8639l-7.0246 54.1432h49.8585z" fill="#fff"/><path d="m107.451 79.0826h-49.8864c-.0396-.001-.0785-.0108-.1147-.0287-.0361-.0178-.0686-.0434-.0957-.0753-.0255-.0337-.0445-.0727-.0559-.1148-.0115-.0421-.015-.0863-.0105-.1299l7.0301-54.1432c.0093-.0724.0418-.1388.0915-.1871.0498-.0483.1136-.0752.1798-.076h49.8648c.039.0009.078.0112.113.0302s.066.0463.091.08c.027.0326.047.0716.059.1139.011.0424.014.0871.008.1308l-7.025 54.1371c-.009.068-.039.1308-.084.1784s-.103.0773-.165.0846zm-49.5377-.6118h49.2997l6.947-53.5313h-49.3328z" fill="#231f20"/><path d="m110.501 19.1087h-40.5257l1.6496-12.72052h40.5261z" fill="#fff"/><path d="m110.501 19.3905h-40.5255c-.04-.0016-.0793-.0121-.1155-.0311-.0362-.0189-.0685-.0458-.0949-.0791-.0246-.0329-.0428-.0711-.0533-.1122s-.0131-.0841-.0076-.1264l1.6607-12.72049c.0081-.07299.0403-.14013.0903-.18864s.1144-.07501.1809-.07446h40.5259c.04.00039.079.00983.115.02773s.069.04387.095.07629c.025.03399.043.07326.054.11537.01.0421.013.08614.007.12937l-1.66 12.72053c-.01.0724-.042.1388-.092.1871s-.113.0752-.18.076zm-40.2045-.6119h39.9615l1.572-12.10863h-39.9614z" fill="#231f20"/><g fill="#e6e7e8"><path d="m74.4203 38.6998h-5.7182c-.1867.0062-.3722-.0339-.543-.1173s-.3225-.208-.4441-.3646c-.1216-.1567-.2099-.3414-.2584-.5407s-.0561-.4081-.0222-.611l.4706-3.6161c.0665-.4464.2712-.8534.5792-1.1514.3079-.2979.7-.4684 1.1091-.4823h5.7515c.1849-.001.3678.0433.5355.1298.1676.0866.3158.2131.4338.3705.1181.1574.2031.3418.2489.5399.0459.1981.0514.405.0162.6057l-.4705 3.6161c-.0679.4446-.2733.8494-.5813 1.1452-.308.2957-.6993.4641-1.1071.4762z"/><path d="m85.1759 38.7001h-5.7182c-.1865.0064-.3719-.0336-.5425-.1171-.1706-.0834-.3221-.2081-.4433-.3649-.1211-.1569-.2089-.3418-.2567-.5411s-.0545-.408-.0196-.6106l.4705-3.6038c.0655-.4414.2663-.8446.5686-1.1419.3023-.2974.6878-.471 1.0921-.4918h5.7238c.188-.009.3754.029.5483.1112.1729.0821.3268.2063.4502.3634.1234.157.2132.3427.2627.5434s.0573.4112.023.6157l-.4705 3.6161c-.0679.4446-.2733.8494-.5813 1.1451-.3079.2958-.6993.4641-1.1071.4763z"/><path d="m95.9315 38.7003h-5.7182c-.1865.0064-.3719-.0336-.5425-.117-.1706-.0835-.3221-.2082-.4433-.365-.1211-.1568-.2088-.3417-.2567-.5411-.0478-.1993-.0545-.408-.0196-.6105l.465-3.6161c.0675-.4459.2725-.8522.5803-1.15.3077-.2978.6992-.4687 1.108-.4837h5.7238c.1873-.0056.3734.0353.5444.1198.1711.0845.3228.2104.444.3684.1211.158.2086.3441.256.5444.0474.2004.0534.41.0177.6133l-.4705 3.6161c-.0669.4451-.272.8506-.5802 1.1465-.3082.296-.7.4639-1.1082.4749z"/><path d="m106.687 38.7002h-5.718c-.186.0053-.371-.0355-.541-.1193s-.321-.2085-.4424-.3651c-.121-.1565-.2087-.3409-.257-.5398-.0482-.1988-.0557-.407-.0219-.6094l.4703-3.6161c.065-.4419.265-.8457.568-1.1433.302-.2976.688-.4708 1.093-.4904h5.724c.189-.0094.377.0288.551.1116.174.0829.329.2082.452.3667.124.1585.214.3459.262.5482.049.2022.055.414.019.6194l-.471 3.6161c-.066.4451-.272.8506-.58 1.1465-.308.296-.7.4639-1.108.4749z"/><path d="m73.352 46.9234h-5.7182c-.1862.0052-.3711-.0355-.5412-.1193s-.3212-.2086-.4421-.3651-.2087-.341-.257-.5398c-.0482-.1988-.0557-.4071-.0218-.6095l.4705-3.616c.0645-.4419.265-.8457.5675-1.1433s.6886-.4708 1.0932-.4904h5.7348c.1862-.0052.3711.0355.5412.1193s.3211.2085.4421.3651c.1209.1565.2087.3409.257.5398.0482.1988.0557.407.0218.6095l-.4705 3.616c-.0642.4454-.2667.8521-.5728 1.1503-.3061.2981-.6967.4691-1.1045.4834z"/><path d="m84.1129 46.9234h-5.7238c-.1861.0052-.371-.0355-.5411-.1193s-.3212-.2086-.4421-.3651c-.121-.1565-.2088-.341-.257-.5398s-.0557-.4071-.0219-.6095l.4706-3.616c.0645-.4419.2649-.8457.5675-1.1433.3025-.2976.6886-.4708 1.0931-.4904h5.7238c.1862-.0052.3711.0355.5412.1193s.3211.2085.4421.3651c.1209.1565.2087.3409.257.5398.0482.1988.0557.407.0218.6095l-.4705 3.616c-.0636.4424-.2637.8468-.5664 1.1446s-.6894.4706-1.0943.4891z"/><path d="m94.8688 46.9234h-5.7238c-.1862.0052-.3711-.0355-.5412-.1193s-.3211-.2086-.4421-.3651c-.1209-.1565-.2087-.341-.2569-.5398-.0483-.1988-.0558-.4071-.0219-.6095l.4705-3.616c.0646-.4419.265-.8457.5675-1.1433s.6886-.4708 1.0932-.4904h5.7238c.1861-.0052.371.0355.5411.1193.1702.0838.3212.2085.4421.3651.121.1565.2088.3409.257.5398.0483.1988.0557.407.0219.6095l-.4705 3.616c-.0636.4424-.2638.8468-.5665 1.1446s-.6893.4706-1.0942.4891z"/><path d="m105.624 46.9234h-5.7235c-.1862.0052-.3711-.0355-.5412-.1193s-.3211-.2086-.4421-.3651c-.1209-.1565-.2087-.341-.257-.5398-.0482-.1988-.0557-.4071-.0218-.6095l.4705-3.616c.0646-.4419.265-.8457.5675-1.1433s.6886-.4708 1.0936-.4904h5.723c.187-.0052.371.0355.542.1193.17.0838.321.2085.442.3651.121.1565.208.3409.257.5398.048.1988.055.407.021.6095l-.47 3.616c-.064.4424-.264.8468-.566 1.1446-.303.2978-.69.4706-1.095.4891z"/><path d="m72.2892 55.1465h-5.7238c-.1862.0053-.3711-.0355-.5412-.1193s-.3211-.2085-.4421-.3651c-.1209-.1565-.2087-.3409-.2569-.5397-.0483-.1989-.0557-.4071-.0219-.6095l.4705-3.6161c.0646-.4419.265-.8457.5675-1.1433.3025-.2975.6886-.4707 1.0932-.4904h5.7238c.1862-.0052.371.0356.5412.1194.1701.0838.3211.2085.442.365.121.1566.2088.341.257.5398.0483.1988.0557.4071.0219.6095l-.4705 3.6161c-.0636.4423-.2638.8468-.5665 1.1445-.3027.2978-.6893.4706-1.0942.4891z"/><path d="m83.0448 55.1465h-5.7238c-.1861.0053-.371-.0355-.5411-.1193-.1702-.0838-.3212-.2085-.4421-.3651-.121-.1565-.2088-.3409-.257-.5397-.0483-.1989-.0557-.4071-.0219-.6095l.4705-3.6161c.0656-.4469.27-.8545.5782-1.1527s.7008-.4683 1.1102-.481h5.7182c.1862-.0052.3711.0356.5412.1194s.3212.2085.4421.365c.1209.1566.2087.341.257.5398.0482.1988.0557.4071.0218.6095l-.4705 3.6161c-.0643.4463-.2677.8539-.5749 1.1521-.3073.2983-.6991.4686-1.1079.4815z"/><path d="m93.8004 55.1467h-5.7238c-.1861.0053-.371-.0355-.5411-.1193s-.3212-.2085-.4421-.365c-.121-.1566-.2088-.341-.257-.5398-.0482-.1989-.0557-.4071-.0219-.6095l.4706-3.6161c.0655-.4469.2699-.8545.5781-1.1527s.7008-.4683 1.1102-.4809h5.7459c.1865-.0064.3719.0336.5425.117.1707.0834.3221.2082.4433.365.1211.1568.2089.3417.2567.541.0478.1994.0545.408.0196.6106l-.465 3.6161c-.0674.4514-.2762.8623-.5898 1.1609-.3137.2986-.7123.4659-1.1262.4727z"/><path d="m104.556 55.1467h-5.7239c-.1861.0053-.371-.0355-.5411-.1193-.1702-.0838-.3212-.2085-.4421-.365-.121-.1566-.2088-.341-.257-.5398-.0482-.1989-.0557-.4071-.0219-.6095l.4706-3.6161c.0665-.4464.2712-.8533.5792-1.1513.3079-.298.7-.4685 1.1091-.4823h5.7181c.187-.0064.372.0336.543.117.17.0834.322.2082.443.365s.209.3417.257.541c.047.1994.054.408.019.6106l-.465 3.6161c-.065.4469-.27.8545-.578 1.1527s-.701.4683-1.11.4809z"/><path d="m71.2208 63.3699h-5.7237c-.1862.0052-.3711-.0355-.5412-.1193s-.3212-.2086-.4421-.3651c-.121-.1565-.2087-.341-.257-.5398-.0482-.1988-.0557-.407-.0219-.6095l.4706-3.616c.0665-.4464.2712-.8534.5792-1.1514s.7-.4685 1.1091-.4823h5.7183c.1864-.0064.3718.0336.5425.117.1706.0835.3221.2082.4432.365.1212.1568.2089.3418.2567.5411.0479.1993.0546.408.0197.6106l-.465 3.616c-.0655.4469-.27.8545-.5782 1.1527s-.7008.4683-1.1102.481z"/><path d="m81.9875 63.3696h-5.7348c-.1862.0053-.3711-.0355-.5412-.1193s-.3212-.2085-.4421-.3651c-.1209-.1565-.2087-.3409-.257-.5397-.0482-.1989-.0557-.4071-.0218-.6095l.4705-3.6161c.0655-.4414.2662-.8445.5685-1.1419s.6879-.471 1.0922-.4917h5.7182c.1863-.0051.3713.0357.5416.1195s.3216.2083.443.3647c.1213.1564.2097.3407.2586.5395.049.1988.0573.4071.0244.6099l-.4705 3.6161c-.0641.4399-.263.8422-.5632 1.1395-.3003.2974-.6838.4718-1.0864.4941z"/><path d="m92.7318 63.3698h-5.7182c-.1866.0062-.3722-.0339-.543-.1172-.1708-.0834-.3225-.208-.4441-.3647-.1215-.1567-.2098-.3414-.2584-.5407-.0485-.1993-.0561-.4081-.0221-.611l.4705-3.6161c.0665-.4464.2713-.8533.5792-1.1513.308-.298.7-.4685 1.1091-.4823h5.7072c.1866-.0062.3722.0338.543.1172s.3225.208.4441.3647c.1215.1567.2098.3414.2584.5407.0485.1993.0561.4081.0221.611l-.4705 3.6161c-.0651.4449-.268.8509-.5739 1.1489-.3059.2979-.6959.4693-1.1034.4847z"/><path d="m103.488 63.3698h-5.7187c-.1866.0062-.3721-.0339-.5429-.1172-.1708-.0834-.3226-.208-.4441-.3647-.1216-.1567-.2099-.3414-.2584-.5407-.0486-.1993-.0562-.4081-.0222-.611l.4705-3.6161c.0665-.4464.2713-.8533.5793-1.1513.3079-.298.7-.4685 1.1091-.4823h5.7184c.186-.0062.372.0338.543.1172s.322.208.444.3647c.121.1567.21.3414.258.5407.049.1993.056.4081.022.611l-.47 3.6161c-.066.4469-.27.8545-.578 1.1527s-.701.4683-1.11.4809z"/><path d="m81.8049 64.71h-16.4794c-.4091.0138-.8012.1843-1.1091.4823-.308.298-.5127.7049-.5793 1.1513l-.4705 3.6161c-.0339.2029-.0264.4117.0222.611.0485.1993.1368.3841.2584.5407.1215.1567.2733.2813.4441.3647s.3563.1234.543.1173h16.4738c.4046-.0197.7907-.1929 1.0932-.4904.3025-.2976.5029-.7014.5675-1.1433l.4705-3.6161c.0333-.1998.0264-.4054-.0202-.6019-.0467-.1966-.132-.3794-.2499-.5354-.1179-.1559-.2654-.2813-.4321-.3671-.1666-.0858-.3484-.1299-.5322-.1292z"/><path d="m91.6637 71.5938h-5.7182c-.1867.0062-.3722-.0339-.543-.1173s-.3225-.208-.4441-.3646c-.1215-.1567-.2098-.3415-.2584-.5408-.0485-.1992-.0561-.408-.0222-.611l.4706-3.616c.0655-.4414.2662-.8446.5685-1.142s.6879-.471 1.0921-.4917h5.7515c.1862-.0052.3711.0355.5412.1193s.3211.2085.4421.3651c.1209.1565.2087.341.2569.5398.0483.1988.0558.407.0219.6095l-.4705 3.616c-.0655.4469-.27.8546-.5782 1.1527-.3082.2982-.7008.4683-1.1102.481z"/><path d="m102.419 71.5938h-5.718c-.1865.0064-.3719-.0336-.5425-.1171-.1706-.0834-.3221-.2081-.4433-.3649-.1211-.1569-.2089-.3418-.2567-.5411s-.0545-.408-.0196-.6106l.465-3.616c.0675-.4459.2725-.8522.5803-1.15.3077-.2978.6992-.4687 1.108-.4837h5.7238c.186-.0052.371.0355.541.1193s.321.2085.442.3651c.121.1565.209.341.257.5398s.056.407.022.6095l-.47 3.616c-.065.4474-.269.8557-.577 1.1541-.309.2984-.702.4681-1.112.4796z"/><path d="m105.143 9.0562h1.356c.17-.0077.339.02804.495.10445.155.0764.293.19141.402.33609.112.14267.193.31131.238.49347.045.18219.053.37319.022.55889l-.487 3.7446c-.062.4081-.25.78-.531 1.0531-.282.2731-.639.4306-1.014.4459h-1.356c-.17.0077-.339-.028-.495-.1044-.155-.0764-.293-.1914-.402-.3361-.111-.1442-.193-.3137-.239-.4966s-.055-.3747-.026-.5619l.487-3.7446c.06-.4144.257-.78944.553-1.05236.272-.27713.627-.43395.997-.44054zm1.168 1.3644c0-.0835-.015-.1662-.045-.2429s-.074-.1459-.129-.20322c-.055-.05733-.12-.1016-.191-.1301-.071-.02849-.147-.04061-.222-.0356-.187.00572-.367.08331-.509.21952-.141.1362-.235.3225-.266.5269l-.332 2.5454zm-1.849 3.9893c-.005.1733.05.342.155.4712.118.1129.271.1701.426.1591.189.0003.371-.0784.509-.2203.143-.1344.238-.3212.266-.5262l.332-2.5392z"/></g><path d="m70.0583 35.0044s-8.3974 10.2547-12.4937 15.2964c-1.7216 2.1293-2.5077 7.0241.8414 7.0241 3.349 0 9.6042-6.1186 11.6246-8.4436 2.0205-2.3251.0277-13.8769.0277-13.8769z" fill="#9a4dff"/><path d="m89.1946 119.569 3.1608 8.126 4.7993-1.707-2.6847-8.12z" fill="#fff"/><g fill="#231f20"><path d="m92.3554 128.001c-.0542.001-.1074-.016-.1528-.049-.0453-.033-.0808-.08-.1018-.135l-3.1608-8.125c-.0148-.04-.022-.083-.021-.126.001-.044.0102-.086.0268-.125.0167-.039.0405-.074.07-.103.0295-.028.064-.049.1013-.062l5.2754-1.701c.0676-.022.1401-.015.2028.021.0627.035.1109.095.1349.168l2.6847 8.12c.0245.077.0245.161 0 .238-.017.037-.0404.069-.0689.095-.0286.027-.0616.046-.0972.058l-4.7993 1.713c-.0301.012-.0623.016-.0941.013zm-2.7678-8.236 2.9173 7.557 4.2845-1.53-2.4965-7.55z"/><path d="m92.3556 127.689s1.1625 4.356 1.5555 4.374c.393.019 9.9639-2.386 9.5879-3.524-.377-1.138-6.3441-2.558-6.3441-2.558z"/><path d="m93.9056 132.375c-.1938 0-.5923 0-1.8102-4.589-.0111-.037-.0154-.077-.0125-.117.0029-.039.0129-.078.0293-.113.0165-.036.0392-.067.0667-.092.0275-.026.0594-.045.0937-.057l4.7993-1.713c.0474-.012.0966-.012.1439 0 1.4338.336 6.1392 1.542 6.5482 2.747.028.088.035.183.02.275-.014.092-.05.178-.103.251-.863 1.322-9.2828 3.408-9.7754 3.408zm-1.2123-4.479c.3216 1.329.7552 2.622 1.2953 3.861 1.1071-.14 8.7514-2.215 9.2334-3.145-.31-.612-3.3214-1.658-6.056-2.313z"/></g><path d="m65.4304 115.818-1.9043 8.591 4.7661 1.829 2.2807-8.266z" fill="#fff"/><g fill="#231f20"><path d="m68.2925 126.544c-.0312.006-.063.006-.0941 0l-4.7606-1.836c-.0664-.022-.1221-.073-.1552-.14-.0331-.068-.041-.147-.022-.221l1.9043-8.566c.0094-.041.0265-.08.0504-.114.0238-.033.0538-.061.088-.081.0352-.02.0741-.03.1134-.03.0394 0 .0783.01.1135.03l5.1426 2.153c.0643.029.1168.083.1475.152.0306.069.0372.148.0185.222l-2.2862 8.266c-.0107.039-.0285.076-.0523.107-.0238.032-.053.058-.0861.076-.0412.003-.0826-.003-.1217-.018zm-4.4285-2.331 4.2513 1.633 2.1202-7.691-4.6001-1.927z"/><path d="m63.5262 124.409s-1.4448 4.283-1.1403 4.528 9.2665 4.742 9.5765 3.567-3.6701-6.265-3.6701-6.265z"/><path d="m71.5695 133c-1.9983 0-9.034-3.543-9.3551-3.824-.1494-.135-.465-.416 1.0518-4.895.025-.075.0755-.136.1406-.17.0651-.035.1398-.039.2081-.014l4.7661 1.836c.0461.017.0865.049.1163.092.9576 1.223 4.0576 5.311 3.731 6.547-.0244.089-.0694.17-.1305.234s-.1363.11-.2183.133c-.0998.038-.2044.059-.31.061zm-8.951-4.283c.9411.612 8.1982 4.063 9.0839 3.671.0885-.698-1.7548-3.549-3.576-5.88l-4.4284-1.707c-.4689 1.272-.8321 2.589-1.085 3.934z"/><path d="m86.1337 66.9863s8.7185 39.6237 10.8884 54.7057l-6.6426 3.415s-9.571-26.3103-12.8979-35.6533c0 0-2.9449 25.1593-6.6427 32.4283l-7.2571-1.224s3.421-18.845 4.0133-33.8108c.5923-14.966.4041-18.4536.4041-18.4536z"/><path d="m90.3738 125.413c-.0348.006-.0704.006-.1052 0-.0354-.015-.0675-.038-.0942-.068-.0268-.029-.0475-.065-.0608-.104-.0886-.257-8.9123-24.535-12.5048-34.5635-.6311 5.0906-3.266 24.9455-6.5431 31.3695-.028.054-.0698.097-.1201.124-.0502.028-.1067.038-.1622.029l-7.2571-1.223c-.0376-.007-.0736-.021-.106-.043-.0323-.022-.0603-.052-.0822-.086-.0398-.071-.0555-.156-.0443-.239.0332-.183 3.4265-18.967 4.0077-33.7617.5813-14.7947.4041-18.3924.4041-18.423-.003-.0399.0013-.08.0125-.1181.0112-.038.0293-.0732.053-.1034s.0527-.0549.0852-.0726c.0325-.0176.0678-.0279.104-.0302l18.1511-1.4195c.0658-.0052.1311.0152.1847.0576.0536.0425.092.1044.1087.1749.083.3977 8.7462 39.807 10.8884 54.731.0103.065.0007.132-.0274.191-.028.059-.0729.105-.1276.133l-6.6426 3.42c-.0386.018-.0801.026-.1218.025zm-12.8979-36.2713c.0561.0004.1107.0193.1571.0541.0463.0349.0822.0842.1031.1417 3.0944 8.6762 11.7132 32.4285 12.7816 35.3535l6.1998-3.188c-2.1035-14.434-10.0581-50.8148-10.7998-54.2045l-17.653 1.3828c.0332 1.1258.0831 5.6596-.4096 18.1843-.5536 13.7664-3.5151 31.0094-3.9635 33.5484l6.7811 1.156c3.5981-7.342 6.5043-31.8837 6.532-32.1285.007-.067.0344-.1295.0776-.1773.0432-.0477.0997-.0779.1604-.0858z"/></g><path d="m98.6218 41.4168s2.0262-2.5453 2.2142-2.7472.349-2.0558 1.318-2.631c.43-.2895.902-.4964 1.394-.6118 0 0 2.696-2.839 3.062-2.3496.365.4895-1.523 2.7779-1.523 2.7779s.952 1.6764.443 3.151-1.234 2.4474-2.07 2.6555c-.836.208-3.056 3.8302-3.056 3.8302z" fill="#fff"/><path d="m100.415 45.767c-.048-.003-.095-.0205-.135-.0507s-.071-.0719-.092-.1206l-1.7986-4.0566c-.0251-.0543-.0343-.1158-.0264-.1761s.0326-.1164.0707-.1604c.2048-.2631 2.0373-2.5637 2.2143-2.7718l.105-.3977c.183-.673.487-1.8355 1.268-2.2761.437-.273.907-.4788 1.395-.6118.758-.7954 2.457-2.4474 3.094-2.4474.061.0021.12.0184.175.048.054.0295.102.0716.141.1233.404.5506-.504 1.9028-1.401 3.0103.255.4813.418 1.0149.48 1.5683.062.5533.021 1.1147-.12 1.6501-.554 1.6336-1.345 2.6126-2.264 2.8451-.509.1285-1.993 2.2394-2.884 3.6711-.023.0437-.055.0805-.094.1072-.038.0267-.082.0424-.128.0458zm-1.461-4.283 1.506 3.4019c.669-1.0585 2.186-3.3285 2.95-3.5243s1.384-1.0524 1.871-2.4474c.454-1.3155-.409-2.8635-.421-2.8818-.03-.0572-.043-.1236-.037-.1896s.031-.1282.071-.1775c.6-.6715 1.101-1.4438 1.483-2.2884-.961.6382-1.845 1.4092-2.629 2.2945-.045.0447-.101.0726-.161.0795-.456.1276-.891.3341-1.289.6119-.582.3426-.842 1.3277-1.002 1.9151-.035.2458-.127.4776-.266.673-.127.0612-1.2955 1.5174-2.076 2.5025z" fill="#231f20"/><path d="m73.0975 31.9875c-1.0545.4612-2.2032.5946-3.3214.3855-.5052-.0745-.9771-.3203-1.3506-.7037-.1814-.1957-.3008-.4507-.3407-.7273-.0399-.2767.0019-.5601.1192-.8084-.2788.0174-.5574-.0391-.8125-.1647-.2552-.1255-.4795-.3166-.6544-.5573-.3479-.484-.5698-1.0636-.6421-1.6765-.0936-.387-.0954-.7941-.0052-1.182.0902-.388.2693-.7437.52-1.0329-.5536-.3121-1.1569-.7098-1.2953-1.3767-.0487-.3385-.0221-.685.0775-1.0096.1506-.6568.3583-1.2961.62-1.909.1383-.3242.3542-.6913.6808-.6913-.224-.6025-.2909-1.2623-.193-1.9047.0978-.6423.3565-1.2416.7466-1.7298.3811-.4933.902-.8297 1.478-.9545.6148-.017 1.2298.026 1.8378.1285.3061-.4331.7001-.7806 1.1501-1.0144.45-.2339.9435-.3475 1.4405-.3317.3855.0667.7477.2466 1.0486.5211.301.2745.5296.6335.6619 1.0392.6872-.1147 1.3888-.0582 2.0537.1652.3316.111.6365.3027.8923.5611.2557.2583.4559.5767.5857.9318.1211.36.1296.7543.0242 1.1203-.1053.3659-.3184.6824-.6054.8988.4007.0685.765.2968 1.024.6417s.3949.7826.382 1.2306c-.0332.4451-.1858.8692-.4383 1.218-.2524.3487-.5932.6064-.9788.7399-.1116.0253-.216.0798-.3044.1591-.0835.1255-.1351.2734-.1495.4283-.1218.4773-.5203.6914-.7141 1.0953-.2301.6106-.4152 1.2408-.5536 1.8845-.1781.604-.387 1.1964-.6255 1.7744-.1928.6878-.4527 1.3504-.7749 1.9763-.3377.5139-.7197.5078-1.2289.7158z" fill="#fff"/><path d="m70.7723 32.7895c-.3513-.0008-.7017-.0397-1.0462-.1163-.5628-.0815-1.0879-.3578-1.5001-.7893-.1668-.1916-.2911-.4234-.3632-.6772-.072-.2537-.0898-.5225-.052-.7851-.5018-.0903-.9576-.3769-1.2842-.8076-.3821-.5298-.627-1.1642-.7086-1.8356-.0765-.3714-.0851-.756-.0252-1.1311s.187-.7332.3739-1.0532c-.262-.1316-.4961-.3227-.6869-.561-.1907-.2383-.3339-.5183-.4202-.8218-.0597-.3884-.035-.7868.072-1.1626.1594-.671.3743-1.3243.6421-1.9518.1107-.3107.3036-.5773.5536-.7648-.1696-.622-.1931-1.2816-.0681-1.9164.1249-.6348.3941-1.224.7822-1.7119.4287-.5499 1.0147-.9213 1.6606-1.0524.5936-.0249 1.1881.0058 1.777.0918.3401-.4375.7665-.783 1.2463-1.01.4798-.2269 1.0003-.3294 1.5214-.2994.3987.0681.7761.2432 1.0994.5098.3233.2667.5825.6168.755 1.0199.6589-.0827 1.326-.014 1.9596.2019.3743.1244.7182.341 1.0059.6335.2876.2925.5115.6533.6548 1.0552.104.3296.1327.6825.0834 1.0273-.0492.3448-.1749.6708-.3657.949.3402.1856.6252.4749.8214.8337.1961.3589.2953.7724.2857 1.1915-.0331.5092-.2046.9955-.492 1.3952-.2875.3996-.6774.6939-1.1188.8442-.0663.015-.1299.0419-.1883.0796-.0311.0604-.0518.1269-.0608.1958v.0979c-.0909.2997-.249.5691-.4595.7831-.1079.1115-.2011.2392-.2768.3794-.1612.3922-.2837.8025-.3653 1.2237-.0498.2203-.0997.4344-.155.6118-.1837.6235-.3962 1.2362-.6366 1.8356-.0886.2142-.155.4406-.227.6669-.1254.4833-.3118.9447-.5535 1.3706-.2505.3658-.6159.6146-1.0241.6975l-.3321.1224-.3931.153c-.7992.3165-1.6419.4779-2.491.4772zm-2.5685-2.9614c.0474-.0015.0943.0106.136.0353.0418.0247.077.0611.1021.1054.0286.0493.0438.1067.0438.1652 0 .0586-.0152.1159-.0438.1652-.0831.1911-.1095.4062-.0758.6149.0338.2087.1262.4003.264.5477.3347.3379.7566.5518 1.2067.6118 1.0707.1934 2.1688.0623 3.1774-.3793l.3765-.1469c.1328-.055.2546-.0917.3708-.1346.2889-.0489.5501-.2173.7307-.4711.2184-.3794.3862-.7915.4982-1.2237.0775-.2448.155-.4834.2436-.7098.2317-.5692.4368-1.1513.6145-1.7438.0553-.1896.1051-.3916.1549-.6118.0887-.4601.2242-.9076.4041-1.3339.1029-.1903.2275-.3651.3709-.52.1427-.1406.2528-.3168.3211-.514v-.0857c.0238-.1768.093-.3424.1993-.4772.1086-.111.2426-.1872.3875-.2203.3371-.1074.638-.3228.8646-.619.2265-.2962.3687-.6599.4085-1.0452.0103-.3681-.0999-.728-.3104-1.0135s-.5072-.4775-.8354-.5406c-.0582-.0066-.113-.0334-.1566-.0765-.0435-.0431-.0736-.1004-.0859-.1636s-.0062-.129.0175-.1881c.0237-.0592.0637-.1085.1143-.1409.2289-.1824.3977-.4425.4807-.7407.0829-.2982.0754-.6182-.0213-.9113-.1151-.3125-.2922-.5924-.5183-.819-.2262-.2267-.4955-.3942-.7881-.4903-.6262-.206-1.2855-.2582-1.9319-.153-.0624.0081-.1254-.0074-.1787-.0441s-.0937-.0924-.1147-.1578c-.116-.3549-.3167-.6685-.5807-.9076-.2641-.2391-.5818-.3949-.9194-.4507-.4477-.0096-.8912.096-1.2957.3083-.4044.2124-.7587.5258-1.0348.9154-.0398.059-.0971.1006-.162.1174-.0648.0168-.1329.0077-.1923-.0257-.5514-.067-1.1059-.0997-1.6606-.0979-.5154.1138-.9812.4155-1.323.8566-.3604.4399-.603.9818-.7007 1.5653-.0978.5834-.0468 1.1855.1471 1.7388.0205.0456.0312.0959.0312.1468 0 .051-.0107.1012-.0312.1469-.0255.0411-.0592.0752-.0986.0997-.0393.0244-.0833.0384-.1283.041-.1772 0-.3377.2814-.4374.5201-.2506.5905-.4525 1.2049-.6033 1.8355-.0868.279-.1115.5771-.072.8689.1107.5384.6532.8872 1.1514 1.1747.0412.0226.0765.0563.1026.098.0261.0418.0423.0901.0469.1407.0049.0504-.0017.1015-.0191.1485s-.0451.0885-.0806.1207c-.5535.5078-.4816 1.5174-.4207 1.9212.0649.5605.2657 1.0911.5813 1.5358.1459.2027.3336.364.5473.4704.2138.1064.4474.1549.6816.1414z" fill="#231f20"/><path d="m77.7529 24.3647s2.2807 1.8723 2.1478 2.5087c-.1328.6363-1.2344.6975-1.2344.6975" fill="#fff"/><path d="m78.666 27.8761c-.071.0017-.1398-.0275-.1916-.0813-.0517-.0538-.0823-.1278-.0852-.2063-.0022-.0402.0027-.0805.0146-.1185.0118-.0381.0304-.0732.0546-.1033.0241-.0302.0535-.0547.0862-.0723.0328-.0176.0684-.0278.1048-.0302.3709 0 .9466-.1835 1.0074-.465.0609-.2814-.9908-1.291-2.0703-2.1904-.029-.0241-.0535-.0543-.072-.0889-.0186-.0346-.0307-.0728-.0359-.1126-.0051-.0398-.0031-.0803.0059-.1192s.0249-.0755.0467-.1076c.044-.0649.1096-.1078.1823-.1193.0726-.0115.1464.0094.2052.0581.9078.7465 2.408 2.0987 2.2474 2.8207-.1771.8321-1.3783.93-1.5112.9361z" fill="#231f20"/><path d="m75.5109 19.1699c.169.0329.323.1278.4373.2692.4249.4786.7647 1.0411 1.0019 1.6582.5131 1.1904.9551 2.4168 1.323 3.6711.5277 1.6316 1.0204 3.2857 1.478 4.9622.2879 1.0585-2.1312 2.0558-2.6626 1.9212l1.7271 3.9465s-1.0517.8199-3.3213.6118c-2.2696-.208-2.48-.722-2.48-.722l-1.3949-4.7969s1.6108-.6119 1.8655-3.1266c-.0264-.4409-.0134-.8836.0387-1.3216.1329-.4528.4982-.6853.5536-1.2237.0146-.2484-.0233-.4972-.1107-.7266-.0875-.2294-.222-.4331-.3931-.595-.0775-.0673-.1716-.153-.1494-.2631.0152-.0611.0483-.1149.0941-.153.11-.1322.1952-.2873.2504-.4563s.0794-.3485.0711-.5279c-.0082-.1795-.0487-.3553-.1191-.5172-.0705-.1619-.1694-.3067-.291-.426.6145-.2508.7971-1.0891.8912-1.8049-.0276.2202.9798-.3365.9964-.3427.0628-.0217.128-.0341.1938-.0367z" fill="#fff"/><path d="m76.2195 36.5215c-.2381 0-.4927 0-.7695-.0367-2.1367-.2019-2.6128-.6608-2.7069-.9116l-1.4005-4.8215c-.023-.0746-.0185-.1563.0126-.2273s.0862-.1257.1535-.152c.0609 0 1.4559-.6119 1.6607-2.8757.0111-.1609.0111-.3225 0-.4834-.026-.3001-.0016-.603.0719-.8933.0701-.2012.1652-.3906.2824-.5629.1371-.1701.2207-.3848.238-.6119.0127-.2006-.0179-.4017-.0891-.5867-.0712-.1851-.181-.3489-.3206-.4779-.0686-.0394-.1273-.097-.1707-.1678-.0434-.0707-.0701-.1523-.0778-.2373-.0077-.0851.0039-.1709.0338-.2497.0298-.0789.077-.1482.1373-.2018.0845-.1011.1501-.2197.193-.349.043-.1292.0625-.2665.0573-.4041-.0051-.1375-.0348-.2726-.0872-.3975-.0525-.1248-.1267-.237-.2185-.3301-.0377-.0343-.0667-.0789-.0842-.1293-.0174-.0504-.0228-.1049-.0154-.1583.0071-.0538.0274-.1044.0586-.1464.0312-.0421.0722-.0739.1185-.0922.4761-.1897.631-.9361.7141-1.5602.0047-.0402.0167-.0789.0352-.1137.0186-.0349.0434-.0653.0729-.0893s.0631-.0412.0987-.0505c.0357-.0092.0726-.0105.1087-.0035.0312.0067.0611.0191.0886.0367.2401-.0894.4733-.1999.6975-.3304l.0885-.0367c.1055-.037.2163-.0515.3266-.0428.2295.0344.442.1528.6034.3365.4516.5047.8139 1.0982 1.0684 1.7499.4699 1.0879.8766 2.2079 1.2178 3.353l.1162.361c.5536 1.6336 1.0241 3.3101 1.4836 4.9743.0452.1949.0407.3999-.0131.5921-.0537.1923-.1546.3643-.2914.497-.6189.6306-1.3865 1.0549-2.2142 1.2238l1.5444 3.5304c.0289.0644.0358.1382.0195.2078-.0162.0697-.0546.1305-.1081.1715-.8309.521-1.7811.7633-2.7345.6975zm-2.9726-1.2237c.0775.0734.5259.3977 2.2529.5629 1.0005.1399 2.0167-.0076 2.9505-.4283l-1.6108-3.6711c-.0234-.0519-.033-.1101-.0276-.1678s.0255-.1125.058-.158.076-.0799.1255-.0991c.0495-.0193.1029-.0226.154-.0095.8005-.0838 1.5563-.4458 2.1589-1.0341.155-.1896.2159-.3548.1771-.4956-.4539-1.6581-.9521-3.3223-1.4724-4.9499l-.1163-.361c-.3354-1.1131-.7329-2.2023-1.1901-3.2612-.2288-.5801-.5493-1.1105-.9466-1.5663-.1439-.1407-.2048-.1836-.2712-.1897-.0665-.0061 0 0 0 0-.0404-.0072-.0815-.0072-.1218 0-.2672.1552-.5471.2822-.8359.3794-.0535.592-.297 1.1433-.6864 1.5541.1497.2541.2356.5476.2491.8505.0128.2133-.0135.4272-.0772.6291-.0637.2018-.1636.3874-.2937.5456.2045.192.3655.4342.4703.7072s.1504.5693.1331.8653c-.0276.3288-.1454.6405-.3377.8933-.0876.1225-.1584.2586-.2103.4038-.0348.2227-.0348.4504 0 .6731.012.2037.012.4081 0 .6118-.0341.6651-.2168 1.3106-.5317 1.8786s-.7522 1.0409-1.2729 1.3765z" fill="#231f20"/><path d="m79.3136 28.525c-.3781.2528-.8253.3485-1.2614.27-.4362-.0785-.8328-.326-1.1189-.6983" fill="#fff"/><path d="m78.3673 29.1308c-.3131-.002-.6225-.0759-.9083-.217-.2859-.1412-.5421-.3465-.7524-.6029-.0514-.0584-.0797-.137-.0786-.2185.001-.0814.0313-.1591.0841-.2159.0529-.0568.124-.0881.1977-.0869.0737.0011.144.0346.1953.093.2396.3223.5757.539.9474.6109.3717.0718.7544-.006 1.0787-.2193.0296-.023.0631-.0392.0985-.0477.0355-.0085.072-.009.1076-.0016s.0695.0226.0997.0448c.0302.0221.0561.0507.0761.084.021.0333.0358.0708.0435.1104.0077.0397.0083.0806.0016.1204-.0067.0399-.0205.0779-.0406.1118s-.0461.063-.0764.0857c-.3219.2239-.6937.3447-1.0739.3488z" fill="#231f20"/><path d="m75.2563 26.5546c-.1765-.391-.4464-.7211-.7805-.9545-.237-.2175-.5019-.3948-.7861-.5262-.1417-.0649-.2946-.0941-.4478-.0857-.1532.0085-.3027.0545-.4379.1347-.1117.0844-.206.194-.2766.3216s-.1159.2703-.133.4187c-.0354.2984-.0089.6018.0775.8872.1781.6257.5021 1.1887.9393 1.6322.4373.4436.9724.7522 1.5517.8948l-.1107-.0673" fill="#fff"/><g fill="#231f20"><path d="m74.963 29.5833h-.0554c-.6272-.1559-1.2063-.4912-1.6794-.9722-.4731-.4811-.8236-1.0911-1.0164-1.7689-.1018-.3282-.134-.6777-.0941-1.0218.0257-.1926.0884-.3769.1839-.5404.0955-.1636.2215-.3027.3696-.408.1672-.1047.3536-.1663.5453-.1801.1918-.0137.3838.0206.5618.1006.3112.1389.6007.3309.8581.569.3782.2651.6813.6425.8746 1.0891.0264.0763.0243.161-.0058.2356s-.0858.1329-.1548.1621c-.0341.0145-.0705.0213-.1071.0203-.0366-.0011-.0726-.0102-.106-.0267-.0675-.0332-.1202-.0948-.1467-.171-.1567-.3395-.3964-.6235-.6919-.8199-.2116-.2016-.4507-.3647-.7086-.4834-.1-.0536-.2098-.0815-.321-.0815s-.221.0279-.3211.0815c-.0795.0595-.1465.1374-.1962.2282s-.0809.1925-.0916.298c-.025.2537-.0004.5103.0719.7526.1512.5338.4177 1.0188.7765 1.4133.3587.3944.799.6863 1.2828.8506.0608-.0238.1273-.0238.1882 0l.1107.0611c.0595.0353.1056.0929.13.1625s.0254.1466.0028.2169c-.0144.0648-.0477.1226-.0947.1646s-.1051.0658-.1654.0679z"/><path d="m77.0885 31.6265c-.803.0435-1.6003-.1689-2.2972-.6119 0 0 .9023 2.4475 3.0722 2.4046z"/><path d="m77.7859 33.7135c-2.2751 0-3.2162-2.4842-3.2549-2.5943-.0246-.0608-.0298-.129-.0147-.1935s.0495-.1214.0977-.1614c.0479-.0397.1062-.0612.1661-.0612s.1182.0215.1661.0612c.6443.4211 1.3829.6332 2.1312.6119.0539-.0042.1078.01.1543.0406.0465.0307.0834.0762.1058.1307l.775 1.7254c.0218.0452.0332.0956.0332.1469 0 .0512-.0114.1016-.0332.1468-.0222.045-.055.0824-.095.1083s-.0856.0392-.132.0386zm-2.3083-2.0008c.2237.3561.5092.6596.8399.8928.3307.2331.7.3914 1.0865.4655l-.4872-1.1136c-.4881-.0018-.9732-.0842-1.4392-.2447z"/><path d="m76.399 24.0282c.1164-.0414.1333-.3409.0378-.669s-.2673-.5605-.3837-.5191c-.1165.0414-.1334.3409-.0378.669.0955.3281.2673.5605.3837.5191z"/></g><path d="m80.7863 33.8729c-.6919-.5445-8.5801-2.6922-10.7279 1.1319s-4.6222 29.002-3.2826 35.1145l20.4096-3.1327s-2.574-30.1278-6.3991-33.1137z" fill="#9a4dff"/><path d="m79.8562 46.3548s4.1904 6.4673 9.5156 6.2287 13.4572-9.0983 13.4572-9.0983l-3.1278-4.0689s-4.8768 4.7358-7.8826 4.283c-4.196-.6546-9.9641-8.6822-9.9641-8.6822z" fill="#9a4dff"/><g fill="#231f20"><path d="m89.3167 53.0423c-2.1201 0-4.5004-1.0096-7.0136-2.992-1.7166-1.3774-3.2875-2.9639-4.6831-4.7297-.0283-.0296-.0506-.0655-.0655-.1053s-.0221-.0827-.0209-.1257c.0011-.0431.0104-.0854.0274-.1243.0169-.0388.0411-.0732.0709-.1009.0299-.0278.0647-.0483.1021-.0601.0375-.0119.0769-.0149.1154-.0088.0386.0061.0756.0212.1086.0442s.0612.0535.0827.0894c.0775.0979 7.6114 9.912 13.7338 6.9506 6.3382-3.0592 9.3605-7.0975 9.4105-7.1342.021-.0357.049-.066.082-.089.032-.023.069-.0383.107-.0447.039-.0064.078-.0038.115.0075s.072.0312.102.0583c.03.027.054.0608.072.099.017.0382.027.08.029.1227s-.004.0854-.018.1253-.035.0762-.063.1064c-.122.1713-3.1274 4.1789-9.5985 7.3055-.8502.4087-1.7687.6151-2.6958.6058z"/><path d="m89.7816 43.0442c-.0399.012-.0819.012-.1218 0-1.0407-.569-6.2718-5.0723-7.5394-7.0119-.5551-.9759-1.4296-1.6774-2.4412-1.9579-.072-.0121-.137-.0546-.1813-.1184-.0444-.0639-.0647-.1442-.0567-.2242.0038-.0428.0157-.0841.035-.1214.0192-.0373.0454-.0697.0767-.0951s.0671-.0432.1051-.0523.0773-.0093.1153-.0005c1.1621.2838 2.1752 1.0648 2.8176 2.1721 1.2178 1.8356 6.4046 6.3083 7.3346 6.8222.0328.0177.062.0423.0862.0724.0241.0302.0426.0653.0545.1034.0118.0381.0167.0784.0144.1186-.0023.0401-.0117.0794-.0278.1156-.0241.056-.0628.1028-.1111.1344s-.1041.0466-.1601.043z"/><path d="m66.9584 64.1168c-.0685-.001-.1343-.0294-.1853-.0801-.0509-.0506-.0834-.12-.0914-.1952-.764-8.566 1.1403-23.1649 1.1624-23.3117.0103-.0812.0493-.1545.1085-.2038.0592-.0494.1336-.0707.207-.0593.0735.0113.1398.0544.1844.1198.0447.0654.0639.1478.0537.2289 0 .1469-1.9153 14.6846-1.157 23.1649.0039.0402.0004.0808-.01.1196-.0105.0387-.0278.0748-.051.1061s-.0517.0572-.084.0762-.0676.0308-.1041.0346z"/><path d="m109.782 81.977c-.039-.0005-.078-.01-.113-.0279s-.067-.0438-.092-.0761l-2.358-2.8941c-.045-.0608-.066-.138-.061-.2157.006-.0778.038-.1503.091-.2026.052-.0524.12-.0807.191-.0791.07.0016.138.0329.188.0875l2.358 2.9002c.027.0275.048.0606.062.0975.015.0368.022.0765.022.1166 0 .0402-.007.0799-.022.1167-.014.0369-.035.07-.062.0975-.026.0291-.059.0513-.094.0651-.035.0137-.073.0187-.11.0144z"/><path d="m59.2307 48.5691c-.0337.0008-.0672-.0059-.0986-.0195-.0314-.0137-.0599-.0341-.0841-.06-.0265-.0275-.0476-.0607-.062-.0975s-.0219-.0765-.0219-.1167c0-.0401.0075-.0798.0219-.1167.0144-.0368.0355-.07.062-.0974l4.8934-6.0084c.0236-.0326.053-.0594.0864-.0789.0333-.0195.0699-.0313.1075-.0346s.0755.002.1112.0154c.0357.0135.0685.0348.0965.0628s.0505.062.0661.1c.0156.0379.0241.079.0249.1207.0007.0417-.0063.0831-.0205.1217-.0143.0386-.0355.0736-.0624.1028l-4.8935 6.0084c-.0283.0348-.0636.0617-.103.0787s-.0818.0236-.1239.0192z"/></g></svg>