<svg fill="none" height="133" viewBox="0 0 177 133" width="177" xmlns="http://www.w3.org/2000/svg"><path d="m9.55664 45.6781s-29.81704 67.0619 48.68936 68.0019c78.506.939 114.396-9.361 114.751-43.4622.354-34.1013-27.919-65.98601-77.2028-66.33913-49.284-.35313-75.9366 12.47903-86.23756 41.79943z" fill="#e6e6e6" opacity=".3"/><path d="m125.432 22.3066h-49.2518l.6765 48.0797h67.6053v-29.1303c0-5.0257-2.005-9.8455-5.574-13.3992s-8.409-5.5502-13.456-5.5502z" fill="#9a4dff"/><path d="m76.1804 22.3066c5.0473 0 9.8878 1.9965 13.4567 5.5502s5.5739 8.3735 5.5739 13.3992v29.1303h-38.0611v-29.1303c0-5.0257 2.005-9.8455 5.5739-13.3992s8.4094-5.5502 13.4566-5.5502z" fill="#24285b"/><path d="m76.1804 118.467c-5.0472 0-9.8877-1.997-13.4566-5.55-3.5689-3.554-5.574-8.374-5.574-13.3996v-29.1303h38.0611v29.1303c0 5.0256-2.005 9.8456-5.5739 13.3996-3.5689 3.553-8.4094 5.55-13.4566 5.55z" fill="#9a4dff"/><path d="m76.1804 118.467c-5.0472 0-9.8877-1.997-13.4566-5.55-3.5689-3.554-5.574-8.374-5.574-13.3996v-29.1303h38.0611v29.1303c0 5.0256-2.005 9.8456-5.5739 13.3996-3.5689 3.553-8.4094 5.55-13.4566 5.55z" fill="#000" opacity=".09"/><path d="m111.699 1c.289 0 .567.11448.772.31824.204.20377.319.48014.319.76831v40.01205h-2.231v-39.99032c0-.28817.115-.56454.319-.76831.205-.20376.482-.31824.772-.31824z" fill="#9a4dff"/><path d="m111.699 1c.289 0 .567.11448.772.31824.204.20377.319.48014.319.76831v40.01205h-2.231v-39.99032c0-.28817.115-.56454.319-.76831.205-.20376.482-.31824.772-.31824z" fill="#fff" opacity=".44"/><path d="m111.765 46.3469c2.344 0 4.245-1.8924 4.245-4.2267s-1.901-4.2266-4.245-4.2266c-2.345 0-4.245 1.8923-4.245 4.2266s1.9 4.2267 4.245 4.2267z" fill="#ffd200"/><path d="m112.812 2.10742h10.448v4.09628l-10.448 2.63488z" fill="#ffd200"/><path d="m120.799 70.3867h-18.386v6.6551h18.386z" fill="#24285b"/><path d="m116.003 77.0415h-8.947v52.9585h8.947z" fill="#9a4dff"/><path d="m116.003 77.0415h-8.947v52.9585h8.947z" fill="#fff" opacity=".44"/><path d="m107.056 77.0415v17.7488l8.947-5.6773v-12.0715z" fill="#000" opacity=".09"/><path d="m30.4915 41.7835c10.9261 0 19.7835-8.3964 19.7835-18.7538 0-10.3575-8.8574-18.75382-19.7835-18.75382s-19.7835 8.39632-19.7835 18.75382c0 10.3574 8.8574 18.7538 19.7835 18.7538z" fill="#ffd200"/><path d="m39.8491 36.8558 12.4015 6.0955-9.0897-11.463z" fill="#ffd200"/><path d="m40.0289 22.8171c.7077-.3986 1.2862-.9904 1.6671-1.7056s.5483-1.524.4826-2.331c-.0524-.8635-.3841-1.687-.9458-2.347-.5616-.6601-1.3228-1.1213-2.1696-1.3146-1.5277-.3912-4.5503-.3369-5.2269 1.4342-.8566 2.2274 1.7459 3.7595 1.735 5.8782.0041.5318-.1074 1.0581-.3268 1.543-.2193.4848-.5414.9167-.944 1.266-.4027.3494-.8764.6079-1.3888.7579-.5124.1499-1.0512.1879-1.5797.1111-1.2428-.2616-2.3922-.8508-3.3281-1.7059-.7421-.6248-1.4241-1.6624-2.4061-1.9286-.9821-.2662-1.9642.5922-2.6517 1.2441-.8358.7087-1.4115 1.6737-1.6368 2.7435-.3655 2.2383 1.4186 3.5476 3.4373 3.8464 1.2105.1732 2.4429.1198 3.6337-.1576.8893-.2064 1.9696-.5432 2.5262-1.3147.6165-.8801.1636-1.8091-.3983-2.586-.6546-.9163-1.4004-1.7645-2.2261-2.5316-.8401-.7616-1.7539-1.4386-2.728-2.021-.997-.5479-2.0223-1.0429-3.0717-1.4831-2.4225-1.13-.8839-4.7265.5128-6.1173.7857-.7823 1.9697-1.5266 3.1263-1.4016 1.3095.1412 1.5059 1.456 1.2167 2.5099-.6383 2.298-2.9135 3.6997-5.0304 4.4277-4.3212 1.4777-3.6119 7.345-1.3858 10.2787 2.6843 3.5693 7.6384 4.4114 11.6813 2.749 1.7677-.7335 3.8846-2.2057 3.028-4.3897-.4564-1.0224-1.0531-1.9768-1.7732-2.8359-.6405-.8663-1.4403-1.6037-2.3569-2.1731-1.5332-.9072-3.6447-1.043-5.1396.0326-1.9642 1.4234-1.1512 3.7269-1.424 5.7533-.12.8801-.6329 2.1351-1.6368 2.2274-.6602.0598-1.2276-.4455-1.6859-.8529-.481-.4256-.9399-.8752-1.3749-1.3473-.8308-.9249-1.5622-1.9336-2.1824-3.0098-.6384-1.0865-1.3804-2.4012-1.3204-3.716.1146-2.423 3.1809-3.8355 5.1287-4.5852 2.6079-1.005 5.2159-.6791 7.8675-.038 1.2822.3097 2.5534.6628 3.8192.9073 1.1239.2118 2.417.478 3.5137 0 1.735-.7389 2.4606-3.0478 2.6407-4.7646.1492-.8867-.0586-1.7963-.5784-2.5316-.6601-.8095-1.6859-.9507-2.6734-.9888-2.1824-.0923-4.774-.0597-6.2362 1.8526-1.2985 1.695-.4638 3.5095.5456 5.085.5456.8584 1.2003 1.7765 1.2603 2.8305.0249.5609-.0961 1.1187-.3513 1.6194-.2552.5006-.636.9271-1.1054 1.2382-.7257.4727-1.7678.5433-2.2479 1.3636-.4801.8204.0546 2.0101.4256 2.8196.8764 1.8577 2.3099 3.399 4.1029 4.4114 1.926 1.0865 4.4521 1.6787 6.3835.2934 1.8387-1.3202 3.1318-3.5965 3.7374-5.737.3055-1.0866.3219-2.1731-.502-2.988-.8672-.7904-1.8709-1.4181-2.9626-1.8526-1.7186-.766-4.2011-.9561-5.4123.7932-.2481.3593-.4097.7707-.4721 1.2022-.0625.4315-.0241.8716.112 1.286.1713.4102.4471.7687.8002 1.0403.3531.2715.7712.4466 1.213.508 2.1824.4672 4.9104.7171 7.0055-.2227 1.6859-.7552 3.0718-2.4502 2.8644-4.3462-.0545-.5161-.8729-.5433-.8184 0 .2401 2.1731-1.8004 3.6997-3.7701 4.0311-1.171.163-2.359.163-3.53 0-.933-.1032-2.3952-.0924-2.908-1.0485-.2066-.4651-.228-.9909-.0598-1.471.1681-.4802.5133-.8787.9654-1.115.4702-.2295.9832-.3592 1.5064-.3807.5231-.0215 1.0451.0656 1.5326.2557 1.0595.3781 2.0549.9148 2.9517 1.5918.286.176.5184.4264.6722.7241s.2233.6315.2008.9655c-.0783.6341-.2511 1.253-.5129 1.8363-.7584 1.9286-2.3024 4.5363-4.5339 4.922-2.0624.3586-4.3648-.8584-5.7943-2.222-.6984-.649-1.2911-1.4023-1.7568-2.2328-.2399-.4267-.4408-.874-.6002-1.3365-.2128-.6084-.371-1.2332.2565-1.6298.7583-.4618 1.5767-.603 2.2315-1.2604.5897-.5931.9837-1.3512 1.1294-2.1731.3219-1.7982-.7802-3.2053-1.6368-4.6558-.4693-.7606-.9221-1.6298-.753-2.548.1227-.4877.3604-.9393.6935-1.3172.3331-.378.7518-.6714 1.2216-.8559 1.1799-.4236 2.4404-.5777 3.6882-.4509 1.0912 0 2.3734 0 2.7935 1.2115.2368.8978.1891 1.8466-.1364 2.7164-.2205.9509-.72 1.8151-1.4349 2.4827-.9875.7932-2.4607.4455-3.5955.2228-1.1349-.2228-2.2479-.5433-3.3664-.7932-2.1442-.5433-4.3648-.9833-6.5472-.6302-2.0783.3751-4.0378 1.2352-5.7179 2.5099-1.4949 1.1246-2.4224 2.6892-1.9805 4.6015.4419 1.9124 1.7296 3.8356 2.979 5.3676.6894.8512 1.4585 1.6352 2.297 2.3415.2887.2991.6408.5303 1.0306.6769s.8075.2049 1.2227.1706c1.5713-.2825 2.2424-2.1351 2.2697-3.5313 0-1.0865-.191-2.1731.1091-3.2216.1337-.4449.3817-.8473.7195-1.1674.3378-.3202.7537-.547 1.2065-.658 2.0187-.5433 3.8192.5922 5.085 2.0753.6753.8012 1.2659 1.6696 1.7623 2.5914.6656 1.2387.1691 2.26-.9276 3.0098-3.41 2.336-8.6586 2.0318-11.5449-.9888-1.3628-1.413-2.1586-3.2742-2.2369-5.2317-.0531-.9807.1342-1.9596.5456-2.8522.5456-1.0865 1.3967-1.4505 2.4879-1.8308 1.8224-.6154 3.387-1.8178 4.4467-3.4172.7693-1.1735 1.2712-3.0532.2127-4.2158-1.2658-1.4017-3.4209-.5867-4.6812.3857-1.3692 1.0714-2.2686 2.629-2.5098 4.3462-.12.8747-.1364 1.9286.3983 2.6838.5347.7551 1.3531.9724 2.1497 1.2821 2.0016.8194 3.8137 2.0378 5.325 3.5802.7865.7125 1.4468 1.5518 1.9533 2.4827.5838 1.2821-1.2112 1.7602-2.106 1.9667-1.7678.4129-5.4178.5813-6.0016-1.7276-.3001-1.1681.3273-2.3035 1.1239-3.113.382-.4018.8148-.7525 1.2876-1.0431.7093-.4129 1.2167-.0434 1.7241.4618 1.3968 1.3853 3.0063 2.7164 5.025 3.0043.7981.0906 1.606-.0324 2.3405-.3562.7344-.3238 1.3689-.8367 1.8381-1.4859.4691-.6493.7559-1.4113.8308-2.2076.075-.7964-.0647-1.5982-.4045-2.3229-.4802-.9725-1.3859-1.858-1.4295-2.9934-.0546-1.2767 1.0912-1.581 2.1497-1.7385 1.8659-.2825 4.1083.3368 4.6157 2.3741.198.742.145 1.5284-.1509 2.2374-.2958.709-.8181 1.3012-1.4859 1.685-.4637.2391-.0545.9453.4147.7009z" fill="#fff"/></svg>