<svg width="178" height="158" viewBox="0 0 178 158" fill="none" xmlns="http://www.w3.org/2000/svg">
<g clip-path="url(#clip0_4616_36753)">
<path opacity="0.18" d="M88.0146 159.15C88.7037 155.268 85.7325 154.193 83.2892 151.113C80.8458 148.033 77.9138 145.178 76.5065 141.482C75.7001 139.345 75.3679 136.861 73.6575 135.346C72.5042 134.324 70.8965 133.928 69.7726 132.872C67.4123 130.653 68.1942 126.81 69.0152 123.676C69.8361 120.542 70.1977 116.509 67.4856 114.739C65.6873 113.57 63.2782 113.986 61.2991 113.165C58.6847 112.07 57.3897 109.014 57.3066 106.183C57.2236 103.353 58.069 100.581 58.4697 97.7743C60.5465 83.3518 50.9539 69.169 52.9233 54.7514C51.682 54.6781 50.0841 54.5559 48.8478 54.4874C48.9797 64.7542 49.1068 75.1042 47.1521 85.1852C45.1974 95.2662 40.9802 105.181 33.5768 112.294C30.7377 115.018 27.1508 118.068 27.7128 121.965C28.0451 124.36 29.9753 126.658 29.1788 128.936C28.8074 129.988 27.918 130.755 27.102 131.518C24.582 133.852 22.5289 136.644 21.0522 139.746C18.257 145.701 16.3121 155.391 10.7902 158.974C35.5901 160.402 63.2 157.713 88.0146 159.15Z" fill="#C599FF"/>
<path d="M44.2543 32.2623C44.4391 30.7771 45.0159 29.3681 45.9256 28.18C46.0874 27.9587 46.3097 27.7889 46.5658 27.6911C47.2059 27.5004 47.7874 28.1066 48.1539 28.6689C50.2748 31.9396 51.1739 35.8263 52.0046 39.6348C52.9918 44.1913 53.9691 48.7869 53.9691 53.4461C53.9933 53.7098 53.9513 53.9753 53.8469 54.2186C53.6181 54.5552 53.2678 54.79 52.8696 54.8737C51.3401 55.3626 48.3543 55.9688 47.157 54.507C46.0966 53.2115 46.1259 50.1803 45.7937 48.6403C44.6502 43.2673 43.2917 37.7526 44.2543 32.2623Z" fill="#C599FF"/>
<path d="M98.1741 19.4531C98.7654 19.5509 128.301 32.0471 128.301 32.0471C128.301 32.0471 128.99 44.0055 128.892 43.7073C128.794 43.409 49.3853 51.1189 49.4879 50.4296C49.5905 49.7402 48.3982 35.3911 48.3982 35.3911L74.2244 22.3474L98.1741 19.4531Z" fill="#C599FF"/>
<path d="M96.4003 22.323C96.9916 22.4257 127.045 35.3179 127.045 35.3179C127.045 35.3179 128.999 44.0055 128.892 43.7073C128.784 43.4091 49.3854 51.119 49.488 50.4296C49.5906 49.7403 48.5938 38.6521 48.5938 38.6521L74.4932 25.315L96.4003 22.323Z" fill="url(#paint0_linear_4616_36753)"/>
<path d="M70.5299 49.7257C71.4339 50.4297 72.2549 51.4319 73.4033 51.5004C73.952 51.4912 74.4929 51.368 74.9915 51.1386C75.6183 50.9795 76.1677 50.6015 76.5405 50.0728C76.6609 49.8104 76.7353 49.5293 76.7604 49.2417C77.0855 46.7176 76.7137 44.1527 75.6854 41.8251C75.3237 41.0038 75.5241 38.6326 74.708 38.2415C73.8919 37.8504 72.2647 39.5029 71.3606 39.6349C71.2693 39.6449 71.1802 39.6696 71.0968 39.7082C70.8036 39.8695 70.828 40.29 70.8866 40.6175C71.2574 42.6297 71.4342 44.6729 71.4144 46.719C71.3606 46.0443 70.5837 45.6532 69.9093 45.6581C68.8538 45.6581 67.207 46.6847 67.6468 47.9656C67.7982 48.3959 68.2576 48.5083 68.6241 48.6697C69.302 48.9385 69.9425 49.2935 70.5299 49.7257Z" fill="url(#paint1_linear_4616_36753)"/>
<path d="M73.1541 45.1985C73.3328 45.2506 73.5227 45.2506 73.7014 45.1985C74.0777 45.0665 74.1901 44.5971 74.2194 44.2207C74.2169 43.7056 74.1678 43.1918 74.0728 42.6856L73.6134 39.7913C73.6111 39.7244 73.589 39.6598 73.5499 39.6055C73.5118 39.5714 73.4667 39.5458 73.4178 39.5306C73.3689 39.5154 73.3173 39.511 73.2665 39.5175C72.4287 39.5271 71.6001 39.6929 70.8231 40.0064L71.087 42.1233C71.0939 42.2205 71.1154 42.3161 71.1505 42.4069C71.1963 42.4928 71.2469 42.576 71.302 42.6562C71.6441 43.194 71.302 43.8345 71.605 44.338C71.908 44.8416 72.6703 45.0811 73.1541 45.1985Z" fill="url(#paint2_linear_4616_36753)"/>
<path d="M81.0658 0.415569C82.8834 -0.183989 84.853 -0.132136 86.6366 0.562238C87.0558 0.711351 87.4534 0.915191 87.8192 1.16847C89.2217 2.11204 90.5118 3.3685 90.9858 4.98675C91.1861 5.66631 91.2301 6.38988 91.45 7.06456C91.5367 7.40959 91.7055 7.72853 91.942 7.99415C92.1786 8.25976 92.4759 8.46416 92.8085 8.58991C92.6229 8.84971 92.3733 9.05698 92.0838 9.1915C91.7943 9.32602 91.475 9.3832 91.1568 9.35748C91.6271 10.0998 92.1671 10.7955 92.7694 11.4353C92.0412 11.5866 91.2845 11.5185 90.5948 11.2397C90.8057 11.7422 90.9073 12.2838 90.8929 12.8286C90.2948 12.7765 89.7149 12.5964 89.1924 12.3006C89.1365 12.485 89.0181 12.644 88.8574 12.7503C88.6968 12.8565 88.5042 12.9032 88.3128 12.8824C87.9306 12.83 87.5659 12.6894 87.2475 12.4717L85.5762 11.494C84.3009 10.8322 83.1314 9.98352 82.1067 8.97614C81.4931 8.27659 80.9694 7.50302 80.5478 6.67344C80.152 5.94009 78.0214 5.18231 77.9578 4.33163C77.8259 2.58627 79.59 0.704018 81.0658 0.415569Z" fill="#3E3E54"/>
<path d="M74.5665 39.0677L75.2751 41.9278C75.4171 42.5428 75.5966 43.1485 75.8126 43.7416C76.5114 45.526 77.9041 47.0367 78.2559 48.919C78.3195 49.2368 78.3879 49.6132 78.686 49.7403C78.8704 49.7988 79.0684 49.7988 79.2528 49.7403C81.012 49.3492 82.8446 49.5643 84.6282 49.3981C85.9685 49.2291 87.2959 48.9694 88.6011 48.6207C92.6488 47.6742 96.7593 47.0206 100.901 46.6652C101.321 46.626 101.824 46.538 101.981 46.1469C102.033 45.9895 102.048 45.8222 102.025 45.658C101.785 41.8984 100.07 38.4273 98.8827 34.8534C98.8333 34.7628 98.8054 34.6621 98.801 34.5591C98.7967 34.456 98.816 34.3533 98.8575 34.2588C98.8991 34.1644 98.9617 34.0807 99.0406 34.0143C99.1195 33.9479 99.2126 33.9004 99.3127 33.8756C101.992 32.5311 104.532 30.9264 106.897 29.0845L103.896 24.5084C102.162 21.8586 100.271 19.0719 97.3825 17.7616C95.5793 16.9501 93.5513 16.7838 91.5771 16.7838C89.4514 16.7838 87.3305 16.9843 85.2244 17.175C83.8841 17.2295 82.5513 17.4029 81.2417 17.6932C77.6695 18.671 72.26 21.5212 70.9797 24.352C67.559 31.8663 69.2156 38.9895 68.9077 39.4246C68.7737 39.5655 68.669 39.7317 68.5998 39.9135C68.4972 40.3144 68.9272 40.6909 69.3377 40.7104C69.7527 40.6864 70.1547 40.5568 70.5056 40.334C71.7711 39.711 73.1487 39.3486 74.5567 39.2682C74.5372 39.3611 74.5372 38.9553 74.5665 39.0677Z" fill="white"/>
<path d="M89.5149 32.9467C89.5279 33.9056 89.4773 34.8643 89.3634 35.8165C89.3599 35.9905 89.3074 36.16 89.2119 36.3054C88.9952 36.5032 88.7135 36.6146 88.4202 36.6183C85.0875 37.0437 81.7059 36.9361 78.339 36.8334C78.1934 36.8373 78.0486 36.8106 77.9138 36.7552C77.7668 36.6655 77.6534 36.5298 77.5913 36.369C77.2835 35.7139 76.8974 34.4134 77.6597 33.8805C78.4221 33.3476 80.2106 33.5774 81.0804 33.5187L89.5149 32.9467Z" fill="#C599FF"/>
<path d="M89.5149 32.9467C89.5279 33.9056 89.4773 34.8643 89.3634 35.8165C89.3599 35.9905 89.3074 36.16 89.2119 36.3054C88.9952 36.5032 88.7135 36.6146 88.4202 36.6183C85.0875 37.0437 81.7059 36.9361 78.339 36.8334C78.1934 36.8373 78.0486 36.8106 77.9138 36.7552C77.7668 36.6655 77.6534 36.5298 77.5913 36.369C77.2835 35.7139 76.8974 34.4134 77.6597 33.8805C78.4221 33.3476 80.2106 33.5774 81.0804 33.5187L89.5149 32.9467Z" fill="url(#paint3_linear_4616_36753)"/>
<path d="M79.8684 48.7577C79.8684 48.5279 79.5117 48.5719 79.3211 48.6941C73.4571 52.4293 67.8471 56.5164 62.2176 60.5547C60.9012 61.4404 59.6781 62.4576 58.5673 63.5908C57.4922 64.769 56.6126 66.2455 56.6126 67.8393C56.6323 68.7143 56.8146 69.5781 57.1501 70.3864C59.3198 76.1945 64.5779 80.1643 68.3358 85.112C70.2123 87.5564 71.7907 90.3676 74.322 92.1472C74.8107 92.4943 75.3726 92.8414 75.5632 93.4134C75.5046 93.4721 76.135 93.2619 76.0763 93.3205C78.0815 92.1006 79.9168 90.6211 81.5348 88.9205C79.7651 87.4095 78.13 85.7476 76.6481 83.9533C75.8466 83.0439 75.0452 82.1346 74.3318 81.1568C73.1257 79.4225 72.054 77.5985 71.1261 75.7007C70.4175 74.3416 69.3473 73.2562 69.7823 71.7895C70.4029 69.6922 75.9639 66.8175 79.1647 64.945C82.2629 63.1263 87.4721 60.32 87.3402 60.3787C87.3402 60.3787 84.4521 73.1487 91.3228 83.3568C98.1935 93.565 107.493 109.009 108.021 108.833C108.548 108.657 113.308 101.954 113.308 101.954L100.265 79.7341C100.265 79.7341 104.009 52.2533 100.901 46.5967L79.8684 48.7577Z" fill="#3E3E54"/>
<path d="M79.8684 48.7577C79.8684 48.5279 79.5117 48.5719 79.3211 48.6941C73.4571 52.4293 67.8471 56.5164 62.2176 60.5547C60.9012 61.4404 59.6781 62.4576 58.5673 63.5908C57.4922 64.769 56.6126 66.2455 56.6126 67.8393C56.6323 68.7143 56.8146 69.5781 57.1501 70.3864C59.3198 76.1945 64.5779 80.1643 68.3358 85.112C70.2123 87.5564 71.7907 90.3676 74.322 92.1472C74.8107 92.4943 75.3726 92.8414 75.5632 93.4134C75.5046 93.4721 76.135 93.2619 76.0763 93.3205C78.0815 92.1006 79.9168 90.6211 81.5348 88.9205C79.7651 87.4095 78.13 85.7476 76.6481 83.9533C75.8466 83.0439 75.0452 82.1346 74.3318 81.1568C73.1257 79.4225 72.054 77.5985 71.1261 75.7007C70.4175 74.3416 69.3473 73.2562 69.7823 71.7895C70.4029 69.6922 75.9639 66.8175 79.1647 64.945C82.2629 63.1263 87.4721 60.32 87.3402 60.3787C87.3402 60.3787 84.4521 73.1487 91.3228 83.3568C98.1935 93.565 107.493 109.009 108.021 108.833C108.548 108.657 113.308 101.954 113.308 101.954L100.265 79.7341C100.265 79.7341 104.009 52.2533 100.901 46.5967L79.8684 48.7577Z" fill="url(#paint4_linear_4616_36753)"/>
<path d="M79.0524 95.5498C79.2316 97.9356 79.4825 100.315 79.805 102.688C79.8734 103.177 79.9907 103.749 80.4256 103.983C80.6421 104.067 80.8767 104.093 81.1063 104.059C81.3359 104.025 81.5526 103.931 81.7353 103.788C82.6142 103.177 83.2683 102.294 83.5971 101.275C83.9173 100.263 84.1239 99.2183 84.2128 98.1605L84.7406 93.9218C84.8139 93.3058 84.8627 92.6018 84.4327 92.1569C84.0027 91.712 83.2795 91.7364 82.6735 91.5751C81.745 91.3258 81.0413 90.5973 80.3865 89.8933C79.8588 90.5044 78.1875 91.7071 78.2217 92.5187C78.2217 92.9538 78.6811 93.4622 78.8032 93.8876C78.9422 94.4318 79.0257 94.9888 79.0524 95.5498Z" fill="#3E3E54"/>
<path d="M110.596 108.857C110.78 109.301 110.898 109.769 110.948 110.246C111.227 111.784 111.587 113.307 112.028 114.807C112.131 115.291 112.315 115.753 112.57 116.176C112.7 116.388 112.88 116.564 113.094 116.689C113.308 116.814 113.549 116.885 113.797 116.895C114.618 116.895 115.131 116.015 115.449 115.262C116.09 113.868 116.515 112.384 116.709 110.862C116.895 109.34 116.59 107.799 115.839 106.462C115.716 106.229 115.534 106.032 115.312 105.89C115.006 105.778 114.688 105.705 114.364 105.675C113.494 105.46 112.966 104.575 112.189 104.135C112.115 104.082 112.026 104.053 111.935 104.052C111.792 104.076 111.664 104.155 111.578 104.272C110.881 105.024 110.259 105.843 109.721 106.716C109.365 107.298 109.262 107.376 109.765 107.836C110.104 108.121 110.386 108.468 110.596 108.857Z" fill="#3E3E54"/>
<path d="M123.096 25.9164C123.282 24.4324 123.857 23.0241 124.763 21.8341C124.926 21.6124 125.15 21.4427 125.408 21.3452C126.048 21.1496 126.629 21.7607 126.996 22.323C129.117 25.5888 130.016 29.4804 130.847 33.2889C131.824 37.8405 132.801 42.441 132.831 47.1002C132.853 47.3622 132.811 47.6257 132.708 47.8678C132.481 48.2062 132.13 48.4416 131.731 48.5229C130.202 49.0118 127.211 49.618 126.019 48.1611C124.958 46.8606 124.987 43.8344 124.65 42.2944C123.487 36.9214 122.129 31.4067 123.096 25.9164Z" fill="#C599FF"/>
<path opacity="0.18" d="M203.351 161.223C194.466 159.58 188.51 151.343 184.038 143.491C182.919 141.535 181.766 139.477 179.904 138.201C178.042 136.925 175.237 136.705 173.693 138.353C172.523 133.971 170.688 129.795 168.254 125.969C166.075 122.547 163.192 119.276 159.297 118.147C155.402 117.017 150.452 118.885 149.47 122.816C146.137 123.011 143.606 119.662 142.883 116.406C142.159 113.15 142.545 109.703 141.656 106.486C141.065 104.33 139.907 102.297 139.804 100.067C139.594 95.3151 144.202 90.8613 142.668 86.3781C141.754 83.6892 138.944 82.1296 137.463 79.7096C136.486 78.0913 136.124 76.17 135.792 74.2975L131.086 47.5305C129.943 47.7993 128.389 49.0265 127.245 49.2954C129.268 71.2321 131.11 94.3373 121.977 114.382C120.091 118.518 117.638 122.591 113.86 125.138C111.51 126.712 108.778 127.582 106.149 128.648C101.917 130.325 97.7343 132.559 94.9342 136.148C92.1342 139.736 91.0249 144.948 93.2483 148.923C94.8561 151.802 92.9111 156.06 93.1017 159.351C128.105 158.759 168.347 161.771 203.351 161.223Z" fill="#C599FF"/>
<path d="M87.6872 17.4682C87.3437 19.5361 86.2641 21.4098 84.6477 22.7434C84.0722 23.2493 83.3859 23.6127 82.6442 23.8043C82.275 23.8971 81.8901 23.9094 81.5157 23.8402C81.1413 23.771 80.7862 23.6221 80.4745 23.4034C79.9557 22.9517 79.5761 22.3616 79.3799 21.7021C79.3359 21.5799 79.2919 21.4527 79.2528 21.3305C79.1267 20.8949 79.1298 20.432 79.2617 19.998C79.3935 19.5641 79.6485 19.1778 79.9956 18.886C80.0912 18.7996 80.175 18.701 80.2448 18.5927C80.2874 18.5173 80.3202 18.4368 80.3426 18.3531C80.6455 17.2776 80.1227 16.4513 80.02 15.5176C80.0204 15.2679 80.0738 15.0211 80.1765 14.7935C80.2793 14.566 80.4292 14.3628 80.6162 14.1975C81.4836 13.1623 82.6464 12.4169 83.9489 12.0611C84.1192 12.0148 84.2955 11.995 84.4718 12.0024C85.5371 12.0513 85.7326 12.9802 85.8498 13.7526C85.9378 14.3295 86.0258 14.9015 86.1088 15.4784C86.1505 15.9524 86.2832 16.4139 86.4998 16.8376C86.6153 17.0465 86.7891 17.2174 86.9999 17.3293C87.2107 17.4413 87.4495 17.4896 87.6872 17.4682Z" fill="url(#paint5_linear_4616_36753)"/>
<path d="M85.0045 12.2859C84.9179 13.4484 84.6439 14.5892 84.1933 15.6642C82.8592 18.5584 80.2546 18.5975 80.2546 18.5975C80.2972 18.5221 80.33 18.4416 80.3524 18.358C80.6553 17.2824 80.1325 16.4562 80.0298 15.5224L85.0045 12.2859Z" fill="url(#paint6_linear_4616_36753)"/>
<path d="M76.008 10.3891C75.7004 11.0058 75.4863 11.6649 75.3727 12.3447C75.3261 12.8222 75.378 13.3041 75.5251 13.7608C75.6721 14.2174 75.9114 14.639 76.2279 14.9994C76.5484 15.357 76.9399 15.6439 77.3774 15.8417C77.815 16.0395 78.2889 16.1439 78.769 16.1483C79.4033 16.1347 80.0295 16.0037 80.6162 15.762C82.2615 15.1394 83.7224 14.11 84.8627 12.77C85.0133 12.9725 85.2178 13.1285 85.4529 13.2201C85.688 13.3118 85.9441 13.3354 86.1919 13.2882C86.6861 13.181 87.1381 12.9312 87.4918 12.5696C87.6613 12.441 87.7995 12.2757 87.896 12.086C87.9925 11.8963 88.0448 11.6872 88.0488 11.4744C87.9853 10.8242 87.2279 10.5211 86.5828 10.3549C87.1231 9.91558 87.5715 9.37397 87.9022 8.76105C88.1642 8.13064 88.2381 7.43782 88.1149 6.7663C87.9918 6.09479 87.6769 5.47332 87.2083 4.977C86.7278 4.49188 86.154 4.10921 85.5216 3.85209C84.8891 3.59497 84.2112 3.46872 83.5286 3.48098C82.781 3.48098 82.0382 3.6032 81.2905 3.66676C80.6292 3.68194 79.9725 3.7805 79.3359 3.9601C78.51 4.25343 78.3976 4.86455 78.0702 5.62234L76.008 10.3891Z" fill="url(#paint7_linear_4616_36753)"/>
<path d="M93.3266 47.3105H91.0738C90.8348 47.1031 90.6346 46.8548 90.4825 46.5772C87.487 41.3949 87.9268 17.8008 88.8259 16.7545C89.6224 15.8061 92.447 15.899 93.3217 15.9527H93.5856L94.9294 16.779C91.8996 23.1933 93.3266 47.3105 93.3266 47.3105Z" fill="#C599FF"/>
<path d="M91.8996 46.5772H90.4825C87.487 41.3949 87.9268 17.8008 88.8259 16.7545C89.6224 15.8061 92.447 15.899 93.3217 15.9527L93.4976 16.0603C90.4678 22.4551 91.8996 46.5772 91.8996 46.5772Z" fill="url(#paint8_linear_4616_36753)"/>
<path d="M95.9948 51.4562C95.2701 51.4549 94.5582 51.2654 93.9287 50.9063C93.2991 50.5473 92.7734 50.0309 92.4031 49.4078L83.8709 35.0782C83.7733 34.8954 83.7499 34.682 83.8053 34.4823C83.8608 34.2826 83.9909 34.112 84.1688 34.0057C84.3466 33.8994 84.5586 33.8657 84.7606 33.9116C84.9626 33.9574 85.1392 34.0793 85.2538 34.252L93.8104 48.5913C94.0672 49.0263 94.4469 49.3754 94.9018 49.5947C95.3566 49.8139 95.8662 49.8935 96.3662 49.8233C102.196 49.0362 105.104 48.4691 106.003 48.1757C106.003 47.5108 106.003 46.4842 106.003 46.0735C105.999 45.9676 106.016 45.8619 106.053 45.7625C106.09 45.6632 106.146 45.5721 106.218 45.4945C106.29 45.4169 106.377 45.3542 106.473 45.3101C106.57 45.266 106.674 45.2413 106.78 45.2375C106.886 45.2336 106.991 45.2507 107.091 45.2877C107.19 45.3246 107.281 45.3808 107.358 45.453C107.436 45.5252 107.499 45.6119 107.543 45.7083C107.587 45.8047 107.611 45.9089 107.615 46.0148C107.615 46.2153 107.679 47.9704 107.615 48.7135C107.552 49.4566 107.166 49.7402 103.12 50.4442C100.979 50.8158 98.3942 51.1824 96.6056 51.422C96.4031 51.4476 96.199 51.459 95.9948 51.4562Z" fill="#C599FF"/>
<path d="M71.7518 54.0768C71.4775 54.0752 71.2081 54.0028 70.97 53.8666C70.6246 53.6322 70.329 53.3319 70.1 52.9829C69.8711 52.6338 69.7134 52.243 69.6359 51.8328L65.6777 37.5081C65.6206 37.3013 65.6481 37.0803 65.7539 36.8937C65.8598 36.7071 66.0354 36.5703 66.2421 36.5132C66.4488 36.4561 66.6697 36.4836 66.8562 36.5895C67.0427 36.6954 67.1795 36.8711 67.2365 37.0779L71.1899 51.4025C71.3951 52.1456 71.6785 52.4145 71.7616 52.4585C74.3711 51.6959 75.5635 51.1825 75.9544 50.9479C76.0375 49.7647 76.36 46.2349 76.3746 46.0589C76.3843 45.9533 76.4146 45.8506 76.4639 45.7567C76.5132 45.6628 76.5805 45.5796 76.6619 45.5117C76.7434 45.4438 76.8374 45.3927 76.9386 45.3612C77.0398 45.3296 77.1462 45.3184 77.2518 45.328C77.3574 45.3376 77.46 45.368 77.5538 45.4173C77.6477 45.4666 77.7309 45.5339 77.7987 45.6154C77.8666 45.6969 77.9177 45.791 77.9492 45.8922C77.9807 45.9935 77.992 46.0999 77.9824 46.2056C77.8455 47.7211 77.5768 50.7327 77.5523 51.2803C77.523 51.9452 76.9659 52.3656 75.2556 53.011C74.244 53.3874 73.0321 53.759 72.1916 53.9888C72.0502 54.0397 71.902 54.0694 71.7518 54.0768Z" fill="#C599FF"/>
<path d="M95.9947 51.5247C95.2702 51.5253 94.558 51.3372 93.9283 50.9789C93.2985 50.6206 92.7728 50.1044 92.4029 49.4812L83.8659 35.1516C83.7639 34.9692 83.7367 34.7543 83.79 34.5522C83.8433 34.35 83.9729 34.1765 84.1515 34.0681C84.3302 33.9598 84.5439 33.925 84.7477 33.9712C84.9515 34.0173 85.1294 34.1408 85.2439 34.3156L93.781 48.6452C94.0388 49.0779 94.418 49.4254 94.8715 49.6444C95.325 49.8634 95.8328 49.9444 96.3318 49.8772C102.167 49.09 105.074 48.5229 105.973 48.2296C105.973 47.5647 105.973 46.538 105.973 46.1224C105.966 45.9085 106.044 45.7005 106.19 45.5442C106.337 45.3878 106.539 45.296 106.753 45.2889C106.967 45.2817 107.174 45.3599 107.331 45.5061C107.487 45.6524 107.579 45.8547 107.586 46.0687C107.586 46.2691 107.654 48.0243 107.586 48.7674C107.517 49.5105 107.136 49.7941 103.09 50.4981C100.945 50.8696 98.3647 51.2363 96.5762 51.4759C96.3839 51.5073 96.1895 51.5237 95.9947 51.5247Z" fill="url(#paint9_linear_4616_36753)"/>
<path d="M95.9946 51.3927C95.2703 51.3923 94.5585 51.2038 93.9289 50.8456C93.2993 50.4873 92.7735 49.9717 92.4029 49.3491L83.8707 35.0196C83.8104 34.9286 83.7691 34.8264 83.7493 34.719C83.7296 34.6116 83.7319 34.5013 83.7561 34.3948C83.7802 34.2883 83.8257 34.1878 83.8898 34.0995C83.9539 34.0111 84.0353 33.9367 84.129 33.8807C84.2227 33.8247 84.3268 33.7883 84.4349 33.7738C84.5431 33.7592 84.6531 33.7668 84.7583 33.796C84.8634 33.8253 84.9615 33.8756 85.0467 33.9439C85.1319 34.0121 85.2023 34.097 85.2537 34.1933L93.7907 48.518C94.0482 48.9525 94.4279 49.3015 94.8824 49.5215C95.3369 49.7415 95.8461 49.8227 96.3465 49.7549C102.176 48.9629 105.084 48.3958 105.983 48.1024C105.983 47.4375 105.983 46.4157 105.983 46.0002C105.976 45.7895 106.052 45.5845 106.195 45.4292C106.337 45.2738 106.535 45.1805 106.745 45.1691C106.959 45.1637 107.167 45.2428 107.323 45.3891C107.479 45.5354 107.572 45.7373 107.581 45.9513C107.581 46.1469 107.644 47.9069 107.581 48.65C107.517 49.3931 107.131 49.6718 103.085 50.3758C100.945 50.7474 98.3598 51.114 96.5712 51.3536C96.3801 51.3793 96.1875 51.3923 95.9946 51.3927Z" fill="url(#paint10_linear_4616_36753)"/>
<path d="M71.7371 54.0768C71.4626 54.0759 71.1931 54.0035 70.9552 53.8666C70.2578 53.3923 69.7764 52.6611 69.6163 51.8328L65.663 37.5081C65.6326 37.4054 65.6231 37.2977 65.6348 37.1913C65.6465 37.0848 65.6794 36.9818 65.7313 36.8881C65.7833 36.7945 65.8534 36.7121 65.9375 36.6459C66.0216 36.5796 66.118 36.5308 66.2212 36.5022C66.3244 36.4737 66.4322 36.466 66.5384 36.4795C66.6446 36.4931 66.747 36.5277 66.8397 36.5813C66.9324 36.6348 67.0135 36.7064 67.0782 36.7916C67.143 36.8769 67.1901 36.9742 67.2169 37.0779L71.1751 51.4026C71.2397 51.8084 71.4395 52.1805 71.742 52.4586C74.3564 51.6959 75.5487 51.1826 75.9396 50.9479C76.0227 49.7648 76.3452 46.2349 76.3599 46.0589C76.3793 45.8456 76.4827 45.6488 76.6472 45.5117C76.8117 45.3747 77.0239 45.3086 77.2371 45.328C77.4503 45.3475 77.647 45.4509 77.784 45.6154C77.921 45.78 77.9871 45.9923 77.9676 46.2056C77.8308 47.7212 77.5571 50.7328 77.5376 51.2803C77.5083 51.9452 76.9512 52.3657 75.236 53.011C74.2293 53.3875 73.0174 53.759 72.1769 53.9888C72.0354 54.0398 71.8872 54.0694 71.7371 54.0768Z" fill="url(#paint11_linear_4616_36753)"/>
<g opacity="0.69">
<path opacity="0.69" d="M71.83 54.0475C71.5556 54.046 71.2863 53.9735 71.0481 53.8373C70.3518 53.3618 69.8708 52.6312 69.7091 51.8035L65.7558 37.4739C65.7029 37.2691 65.7326 37.0517 65.8384 36.8685C65.9441 36.6854 66.1176 36.5511 66.3214 36.4947C66.5252 36.4383 66.743 36.4642 66.9279 36.5669C67.1127 36.6696 67.2499 36.8408 67.3098 37.0437L71.268 51.3732C71.3344 51.7785 71.5339 52.15 71.8348 52.4293C74.4492 51.6617 75.6416 51.1532 76.0325 50.9137C76.1156 49.7305 76.4381 46.2007 76.4528 46.0247C76.4624 45.9191 76.4927 45.8164 76.542 45.7225C76.5913 45.6286 76.6586 45.5454 76.74 45.4775C76.8215 45.4096 76.9155 45.3585 77.0167 45.327C77.1179 45.2954 77.2244 45.2842 77.3299 45.2938C77.4355 45.3034 77.5381 45.3338 77.632 45.3831C77.7258 45.4324 77.809 45.4997 77.8769 45.5812C77.9447 45.6627 77.9958 45.7568 78.0274 45.858C78.0589 45.9593 78.0701 46.0658 78.0605 46.1714C77.9237 47.687 77.65 50.6986 77.6305 51.2461C77.6011 51.911 77.0441 52.3315 75.3337 52.9719C74.3222 53.3533 73.1103 53.7248 72.2698 53.9497C72.1288 54.004 71.9806 54.0369 71.83 54.0475Z" fill="url(#paint12_linear_4616_36753)"/>
</g>
<path d="M69.3181 40.2508C69.6989 40.2536 70.0756 40.33 70.4274 40.4757C70.6022 40.5501 70.7574 40.6638 70.8811 40.8079C71.0049 40.9521 71.0938 41.1228 71.1409 41.3068C71.2093 41.6539 71.0822 42.0255 71.2044 42.3579C71.3266 42.6904 71.5563 42.8468 71.6442 43.1108C71.8104 43.5997 71.3803 44.1669 71.522 44.6802C71.5856 44.91 71.7566 45.1006 71.8152 45.3353C71.8602 45.558 71.8328 45.7893 71.7371 45.9953C71.2484 47.2665 69.714 47.8531 68.3457 47.814C67.5443 47.8353 66.765 47.5504 66.1662 47.0171C65.7241 46.4983 65.4392 45.8639 65.3453 45.1886C65.1631 44.3385 65.0681 43.4719 65.0618 42.6024C65.0423 40.2068 67.3781 40.1579 69.3181 40.2508Z" fill="url(#paint13_linear_4616_36753)"/>
<path d="M105.846 29.9351C105.846 29.9351 112.58 42.7833 110.664 44.8562C108.749 46.9291 93.4193 45.4233 93.4193 45.4233C92.0266 45.3548 90.932 46.5624 89.554 46.7531C89.0527 46.8169 88.5435 46.7406 88.0829 46.5326C87.6223 46.3246 87.2283 45.9931 86.9445 45.5748C86.7983 45.2711 86.5823 45.0064 86.3141 44.8024C86.1675 44.7193 85.9916 44.6899 85.8254 44.6166C85.1999 44.3233 85.0924 43.4824 85.112 42.7881C85.1322 42.6554 85.1081 42.5196 85.0435 42.4019C84.9895 42.3365 84.9251 42.2803 84.853 42.2357C84.6543 42.0452 84.5233 41.795 84.4801 41.5231C84.4368 41.2512 84.4837 40.9726 84.6135 40.7299C84.8933 40.2478 85.3348 39.8806 85.8596 39.6934C86.3483 39.4832 86.9103 39.3756 87.4283 39.2045C88.1191 38.9672 88.7626 38.6097 89.3292 38.1485C89.7006 37.8454 90.155 37.4738 90.6046 37.6596C90.7684 37.7366 90.9135 37.8484 91.0297 37.9872L92.4958 39.493C92.6643 39.7181 92.8873 39.8967 93.1437 40.0122C93.4001 40.1276 93.6815 40.1761 93.9618 40.153L99.0977 40.3388C100.213 40.4478 101.339 40.3449 102.416 40.0357L98.78 34.9707C98.6481 34.7849 98.5113 34.5551 98.6041 34.3449C98.6711 34.2325 98.7697 34.1424 98.8876 34.0858C101.238 32.6533 103.525 31.3431 105.846 29.9351Z" fill="url(#paint14_linear_4616_36753)"/>
<path d="M86.5388 11.0636C86.6074 11.0447 86.679 11.0398 86.7495 11.049C86.82 11.0582 86.8879 11.0815 86.9493 11.1174C87.1298 11.1849 87.2769 11.3199 87.3598 11.4939C87.3841 11.6276 87.3744 11.7652 87.3318 11.8942C87.2891 12.0232 87.2147 12.1394 87.1155 12.2321C87.0065 12.3892 86.8658 12.5217 86.7025 12.621C86.5392 12.7204 86.357 12.7844 86.1674 12.809C86.01 12.812 85.8554 12.7668 85.7244 12.6794C85.5934 12.592 85.4922 12.4667 85.4344 12.3201C85.3843 12.1714 85.3928 12.0092 85.4582 11.8665C85.5236 11.7239 85.6409 11.6116 85.7863 11.5525C85.928 11.5134 86.0502 11.5525 86.1821 11.445C86.314 11.3374 86.3727 11.1321 86.5388 11.0636Z" fill="url(#paint15_linear_4616_36753)"/>
<path d="M79.8685 48.7576L78.7788 48.9581L78.1044 49.0803L75.2262 39.4491C69.9437 30.4632 72.0645 20.871 72.9001 19.8932C73.2422 19.4874 74.1902 19.1745 75.1773 18.9497C76.114 18.7347 77.0618 18.5715 78.0165 18.4608C75.3728 24.2884 79.8685 48.7576 79.8685 48.7576Z" fill="#C599FF"/>
<path d="M78.7886 48.9581L78.1142 49.0803L75.236 39.4491C69.9534 30.4632 72.0742 20.871 72.9099 19.8932C73.2519 19.4874 74.2 19.1746 75.1871 18.9497C76.1742 18.7248 76.9414 18.6954 76.9414 18.6954C74.327 24.4204 78.6615 48.2687 78.7886 48.9581Z" fill="url(#paint16_linear_4616_36753)"/>
<path d="M100.881 32.761C100.881 32.761 105.47 38.8233 104.693 39.6055C103.916 40.3878 101.922 40.2949 101.922 40.2949C102.01 40.1068 102.044 39.8982 102.02 39.6921C101.997 39.486 101.917 39.2903 101.79 39.1264C101.355 38.4762 98.3256 34.2374 98.3256 34.2374L100.881 32.761Z" fill="url(#paint17_linear_4616_36753)"/>
</g>
<defs>
<linearGradient id="paint0_linear_4616_36753" x1="85.5518" y1="12.6184" x2="96.0825" y2="112.201" gradientUnits="userSpaceOnUse">
<stop stop-opacity="0"/>
<stop offset="0.99"/>
</linearGradient>
<linearGradient id="paint1_linear_4616_36753" x1="67.5783" y1="44.8416" x2="76.8728" y2="44.8416" gradientUnits="userSpaceOnUse">
<stop stop-color="#E5C5D5"/>
<stop offset="0.42" stop-color="#EAD4D1"/>
<stop offset="1" stop-color="#F0E9CB"/>
</linearGradient>
<linearGradient id="paint2_linear_4616_36753" x1="69.3815" y1="39.5664" x2="94.366" y2="58.6957" gradientUnits="userSpaceOnUse">
<stop stop-color="#E5C5D5"/>
<stop offset="0.42" stop-color="#EAD4D1"/>
<stop offset="1" stop-color="#F0E9CB"/>
</linearGradient>
<linearGradient id="paint3_linear_4616_36753" x1="83.0986" y1="31.7783" x2="84.3116" y2="41.6489" gradientUnits="userSpaceOnUse">
<stop stop-opacity="0"/>
<stop offset="0.99"/>
</linearGradient>
<linearGradient id="paint4_linear_4616_36753" x1="77.4935" y1="89.2236" x2="105.292" y2="71.3026" gradientUnits="userSpaceOnUse">
<stop stop-opacity="0"/>
<stop offset="0.99"/>
</linearGradient>
<linearGradient id="paint5_linear_4616_36753" x1="79.1551" y1="17.9327" x2="87.6823" y2="17.9327" gradientUnits="userSpaceOnUse">
<stop stop-color="#E5C5D5"/>
<stop offset="0.42" stop-color="#EAD4D1"/>
<stop offset="1" stop-color="#F0E9CB"/>
</linearGradient>
<linearGradient id="paint6_linear_4616_36753" x1="82.3315" y1="15.185" x2="70.9471" y2="36.389" gradientUnits="userSpaceOnUse">
<stop stop-color="#E5C5D5"/>
<stop offset="0.42" stop-color="#EAD4D1"/>
<stop offset="1" stop-color="#F0E9CB"/>
</linearGradient>
<linearGradient id="paint7_linear_4616_36753" x1="75.3581" y1="9.84151" x2="88.2003" y2="9.84151" gradientUnits="userSpaceOnUse">
<stop stop-color="#E5C5D5"/>
<stop offset="0.42" stop-color="#EAD4D1"/>
<stop offset="1" stop-color="#F0E9CB"/>
</linearGradient>
<linearGradient id="paint8_linear_4616_36753" x1="93.61" y1="22.7826" x2="82.3467" y2="53.4379" gradientUnits="userSpaceOnUse">
<stop stop-opacity="0"/>
<stop offset="0.99"/>
</linearGradient>
<linearGradient id="paint9_linear_4616_36753" x1="87.2866" y1="47.5011" x2="111.835" y2="30.6204" gradientUnits="userSpaceOnUse">
<stop stop-opacity="0"/>
<stop offset="0.99"/>
</linearGradient>
<linearGradient id="paint10_linear_4616_36753" x1="92.2465" y1="43.4579" x2="88.527" y2="45.4512" gradientUnits="userSpaceOnUse">
<stop offset="0.02" stop-color="white" stop-opacity="0"/>
<stop offset="0.58" stop-color="white" stop-opacity="0.39"/>
<stop offset="0.68" stop-color="white" stop-opacity="0.68"/>
<stop offset="1" stop-color="white"/>
</linearGradient>
<linearGradient id="paint11_linear_4616_36753" x1="63.7376" y1="47.907" x2="88.4143" y2="36.8763" gradientUnits="userSpaceOnUse">
<stop stop-opacity="0"/>
<stop offset="0.99"/>
</linearGradient>
<linearGradient id="paint12_linear_4616_36753" x1="70.3835" y1="44.9443" x2="67.7885" y2="45.633" gradientUnits="userSpaceOnUse">
<stop offset="0.02" stop-color="white" stop-opacity="0"/>
<stop offset="0.58" stop-color="white" stop-opacity="0.39"/>
<stop offset="0.68" stop-color="white" stop-opacity="0.68"/>
<stop offset="1" stop-color="white"/>
</linearGradient>
<linearGradient id="paint13_linear_4616_36753" x1="65.0618" y1="44.0202" x2="71.8397" y2="44.0202" gradientUnits="userSpaceOnUse">
<stop stop-color="#E5C5D5"/>
<stop offset="0.42" stop-color="#EAD4D1"/>
<stop offset="1" stop-color="#F0E9CB"/>
</linearGradient>
<linearGradient id="paint14_linear_4616_36753" x1="84.4767" y1="38.3587" x2="111.007" y2="38.3587" gradientUnits="userSpaceOnUse">
<stop stop-color="#E5C5D5"/>
<stop offset="0.42" stop-color="#EAD4D1"/>
<stop offset="1" stop-color="#F0E9CB"/>
</linearGradient>
<linearGradient id="paint15_linear_4616_36753" x1="87.2767" y1="10.2227" x2="84.416" y2="15.5457" gradientUnits="userSpaceOnUse">
<stop stop-color="#E5C5D5"/>
<stop offset="0.42" stop-color="#EAD4D1"/>
<stop offset="1" stop-color="#F0E9CB"/>
</linearGradient>
<linearGradient id="paint16_linear_4616_36753" x1="85.3563" y1="28.0725" x2="53.7499" y2="49.106" gradientUnits="userSpaceOnUse">
<stop stop-opacity="0"/>
<stop offset="0.99"/>
</linearGradient>
<linearGradient id="paint17_linear_4616_36753" x1="99.3714" y1="36.8188" x2="109.761" y2="35.5244" gradientUnits="userSpaceOnUse">
<stop stop-color="#E5C5D5"/>
<stop offset="0.42" stop-color="#EAD4D1"/>
<stop offset="1" stop-color="#F0E9CB"/>
</linearGradient>
<clipPath id="clip0_4616_36753">
<rect width="177.888" height="158" fill="white" transform="translate(0.111938)"/>
</clipPath>
</defs>
</svg>
