<?xml version="1.0" encoding="UTF-8"?>
<svg width="17px" height="17px" viewBox="0 0 478 478" version="1.1" xmlns="http://www.w3.org/2000/svg" xmlns:xlink="http://www.w3.org/1999/xlink">
    <title>check</title>
    <g id="Page-1" stroke="none" stroke-width="1" fill="none" fill-rule="evenodd">
        <g id="check" fill="#11CF72" fill-rule="nonzero">
            <path d="M238.933,0 C106.974,0 0,106.974 0,238.933 C0,370.892 106.974,477.866 238.933,477.866 C370.892,477.866 477.866,370.892 477.866,238.933 C477.726,107.033 370.834,0.141 238.933,0 Z M238.933,443.733 C125.825,443.733 34.133,352.041 34.133,238.933 C34.133,125.825 125.825,34.133 238.933,34.133 C352.041,34.133 443.733,125.825 443.733,238.933 C443.611,351.991 351.991,443.611 238.933,443.733 Z" id="Shape"></path>
            <path d="M370.046,141.534 C363.432,135.146 352.947,135.146 346.334,141.534 L346.334,141.534 L187.733,300.134 L131.532,243.933 C124.984,237.153 114.179,236.966 107.4,243.514 C100.62,250.062 100.433,260.867 106.981,267.646 C107.118,267.788 107.258,267.928 107.4,268.065 L175.667,336.332 C182.331,342.995 193.135,342.995 199.799,336.332 L370.466,165.665 C377.014,158.886 376.826,148.082 370.046,141.534 Z" id="Path"></path>
        </g>
    </g>
</svg>