<svg fill="none" height="24" viewBox="0 0 24 24" width="24" xmlns="http://www.w3.org/2000/svg"><path d="m12 8v4zm0 8h.01zm9-4c0 1.1819-.2328 2.3522-.6851 3.4442-.4523 1.0919-1.1152 2.084-1.9509 2.9198-.8358.8357-1.8279 1.4986-2.9198 1.9509-1.092.4523-2.2623.6851-3.4442.6851s-2.35222-.2328-3.44415-.6851-2.08408-1.1152-2.91981-1.9509c-.83573-.8358-1.49866-1.8279-1.95096-2.9198-.45229-1.092-.68508-2.2623-.68508-3.4442 0-2.38695.94821-4.67613 2.63604-6.36396s3.97701-2.63604 6.36396-2.63604c2.3869 0 4.6761.94821 6.364 2.63604 1.6878 1.68783 2.636 3.97701 2.636 6.36396z" stroke="currentColor" stroke-linecap="round" stroke-linejoin="round" stroke-width="1.8"/></svg>