<svg fill="none" height="24" viewBox="0 0 24 24" width="24" xmlns="http://www.w3.org/2000/svg"><path d="m9 11 3-3zm3-3 3 3zm0 0v8zm0-5c1.1819 0 2.3522.23279 3.4442.68508 1.0919.4523 2.084 1.11523 2.9198 1.95096.8357.83573 1.4986 1.82788 1.9509 2.91981s.6851 2.26225.6851 3.44415-.2328 2.3522-.6851 3.4442c-.4523 1.0919-1.1152 2.084-1.9509 2.9198-.8358.8357-1.8279 1.4986-2.9198 1.9509-1.092.4523-2.2623.6851-3.4442.6851-2.38695 0-4.67613-.9482-6.36396-2.636-1.68783-1.6879-2.63604-3.9771-2.63604-6.364 0-2.38695.94821-4.67613 2.63604-6.36396s3.97701-2.63604 6.36396-2.63604z" stroke="currentColor" stroke-linecap="round" stroke-linejoin="round" stroke-width="2"/></svg>