<svg fill="none" height="24" viewBox="0 0 24 24" width="24" xmlns="http://www.w3.org/2000/svg"><path d="m9 7h6zm6 10v-3zm-3 0h.01zm-3 0h.01zm0-3h.01zm3 0h.01zm3-3h.01zm-3 0h.01zm-3 0h.01zm-2 10h10c.5304 0 1.0391-.2107 1.4142-.5858s.5858-.8838.5858-1.4142v-14c0-.53043-.2107-1.03914-.5858-1.41421-.3751-.37508-.8838-.58579-1.4142-.58579h-10c-.53043 0-1.03914.21071-1.41421.58579-.37508.37507-.58579.88378-.58579 1.41421v14c0 .5304.21071 1.0391.58579 1.4142.37507.3751.88378.5858 1.41421.5858z" stroke="currentColor" stroke-linecap="round" stroke-linejoin="round" stroke-width="1.8"/></svg>