<svg fill="none" height="24" viewBox="0 0 24 24" width="24" xmlns="http://www.w3.org/2000/svg"><path d="m10 6h-5c-.53043 0-1.03914.21071-1.41421.58579-.37508.37507-.58579.88378-.58579 1.41421v9c0 .5304.21071 1.0391.58579 1.4142.37507.3751.88378.5858 1.41421.5858h14c.5304 0 1.0391-.2107 1.4142-.5858s.5858-.8838.5858-1.4142v-9c0-.53043-.2107-1.03914-.5858-1.41421-.3751-.37508-.8838-.58579-1.4142-.58579h-5m-4 0v-1c0-.53043.2107-1.03914.5858-1.41421.3751-.37508.8838-.58579 1.4142-.58579s1.0391.21071 1.4142.58579c.3751.37507.5858.88378.5858 1.41421v1m-4 0c0 .53043.2107 1.03914.5858 1.41421.3751.37508.8838.58579 1.4142.58579s1.0391-.21071 1.4142-.58579c.3751-.37507.5858-.88378.5858-1.41421m-5 8c.53043 0 1.0391-.2107 1.4142-.5858s.5858-.8838.5858-1.4142-.2107-1.0391-.5858-1.4142-.88377-.5858-1.4142-.5858-1.03914.2107-1.41421.5858c-.37508.3751-.58579.8838-.58579 1.4142s.21071 1.0391.58579 1.4142c.37507.3751.88378.5858 1.41421.5858zm0 0c1.306 0 2.417.835 2.83 2m-2.83-2c-.62062-.0002-1.22603.1921-1.73285.5502-.50683.3582-.89014.8647-1.09715 1.4498m8.83-5h3m-3 4h2" stroke="currentColor" stroke-linecap="round" stroke-linejoin="round" stroke-width="1.8"/></svg>