<svg height="137" viewBox="0 0 137 137" width="137" xmlns="http://www.w3.org/2000/svg"><g fill="none"><path d="m129.439393 137c4.175299 0 7.560607-3.385796 7.560607-7.561063v-121.87787366c0-4.17680736-3.385821-7.56106334-7.560607-7.56106334h-121.878273c-4.17683866 0-7.56112 3.38476929-7.56112 7.56106334v121.87735966c0 4.175781 3.38428134 7.561064 7.56112 7.561064h121.878273z" fill="#485a96"/><path d="m93.9458476 137v-52.9130172h17.6897714l2.648468-20.6213121h-20.3387493v-13.1657965c0-5.9703511 1.6510861-10.038811 10.1788083-10.038811l10.875854-.0051195v-18.4434804c-1.881055-.2508551-8.337526-.8124633-15.8479791-.8124633-15.6812387 0-26.4168678 9.6097976-26.4168678 27.258221v15.2074497h-17.7351531v20.6213121h17.7351531v52.9125052h21.2106945z" fill="#fff"/></g></svg>