<svg fill="none" height="24" viewBox="0 0 24 24" width="24" xmlns="http://www.w3.org/2000/svg"><path d="m4 12 1.77778-1.7778m0 0 6.22222-6.2222 6.2222 6.2222m-12.44442 0v8.8889c0 .2358.09365.4619.26035.6286s.39279.2603.62854.2603h2.66666m8.88887-9.7778 1.7778 1.7778m-1.7778-1.7778v8.8889c0 .2358-.0936.4619-.2603.6286s-.3928.2603-.6286.2603h-2.6666m-5.33337 0c.23575 0 .46184-.0936.62854-.2603.16673-.1667.26033-.3928.26033-.6286v-3.5555c0-.2358.0937-.4619.2604-.6286s.3928-.2603.6285-.2603h1.7778c.2357 0 .4618.0936.6285.2603s.2604.3928.2604.6286v3.5555c0 .2358.0936.4619.2603.6286s.3928.2603.6286.2603m-5.33337 0h5.33337" stroke="currentColor" stroke-linecap="round" stroke-linejoin="round" stroke-width="1.8"/></svg>