<svg fill="none" height="24" viewBox="0 0 24 24" width="24" xmlns="http://www.w3.org/2000/svg"><path d="m10 21h4m5 0v-16c0-.53043-.2107-1.03914-.5858-1.41421-.3751-.37508-.8838-.58579-1.4142-.58579h-10c-.53043 0-1.03914.21071-1.41421.58579-.37508.37507-.58579.88378-.58579 1.41421v16zm0 0h2zm0 0h-5zm-14 0h-2zm0 0h5zm4-14h1zm0 4h1zm5-4h1zm0 4h1zm-4 10v-5c0-.2652.1054-.5196.2929-.7071s.4419-.2929.7071-.2929h2c.2652 0 .5196.1054.7071.2929s.2929.4419.2929.7071v5z" stroke="currentColor" stroke-linecap="round" stroke-linejoin="round" stroke-width="1.7"/></svg>