<svg fill="none" height="24" viewBox="0 0 24 24" width="24" xmlns="http://www.w3.org/2000/svg"><path clip-rule="evenodd" fill="currentColor" d="m14.025 4.08811c-.0918.04848-.2176.1601-.2796.2481-.1018.14444-.1127.18819-.1127.45101 0 .25617.0123.30864.1027.43802.0564.08086.1651.18929.2413.24093l.1387.09389 1.5786.01059 1.5787.01059-3.3675 3.36949c-3.5536 3.55567-3.5195 3.51817-3.5195 3.85777 0 .1575.1081.4366.2164.5586.0993.1119.4236.2481.5894.2476.3401-.001.3029.033 3.8578-3.5199l3.3695-3.36752.0106 1.57868.0105 1.57869.0939.13865c.0517.0762.1601.1849.241.2413.129.0902.1821.1027.4351.1027.2529 0 .306-.0125.435-.1027.0809-.0564.1893-.1651.241-.2414l.0939-.13863v-2.69126-2.69126l-.1027-.14699c-.0565-.08086-.1651-.18929-.2414-.24093l-.1386-.09389-2.6526-.0101-2.6526-.01014zm-7.81457 1.53035c-1.03088.15432-1.87789.92362-2.13839 1.94208-.06993.27337-.07252.46397-.07199 5.24456.0006 5.5366-.01619 5.1761.26894 5.7683.1263.2623.21467.3802.49605.6616.28137.2813.39922.3697.66159.496.59215.2851.23169.2684 5.76827.269 4.7788.0005 4.9713-.0021 5.2443-.072.9175-.2346 1.6094-.9166 1.8927-1.8657.06-.2013.0673-.4939.0801-3.2446.0078-1.6628.0034-3.1119-.0098-3.2202-.0473-.3888-.3428-.6773-.7321-.7147-.3153-.0303-.5786.1075-.7585.3968l-.0866.1393-.0188 3.1359c-.0187 3.1284-.0189 3.1364-.1002 3.2882-.1102.2059-.2968.3854-.5007.4816l-.169.0798h-4.8448-4.84474l-.1773-.0881c-.20168-.1003-.42041-.3252-.51175-.5264-.05671-.1248-.06208-.5561-.06208-4.9814v-4.84483l.07977-.169c.09622-.20382.27571-.39044.48159-.50063.15124-.08097.16964-.08161 2.9154-.10028l2.76321-.01877.1565-.10362c.2252-.14906.3476-.35277.3706-.61683.0263-.30117-.1167-.58013-.3812-.74369l-.1831-.11324-2.68827-.0054c-1.47852-.00297-2.78342.00886-2.8997.02625z" fill-rule="evenodd"/></svg>
