<svg width="24" height="24" viewBox="0 0 24 24" fill="none" xmlns="http://www.w3.org/2000/svg">
<path fill-rule="evenodd" clip-rule="evenodd" d="M12.1165 4.05206C12.023 4.08012 11.8794 4.16424 11.7975 4.23897C11.7155 4.31387 11.1611 5.36115 10.5639 6.56911C9.50973 8.70159 9.47394 8.76415 9.28824 8.79771C9.18316 8.81667 8.15359 8.96631 7.00034 9.13024C5.84709 9.29417 4.79939 9.45675 4.67216 9.49148C4.37477 9.57271 4.13638 9.81326 4.0424 10.1271C3.90466 10.5867 4.00147 10.7133 5.90763 12.5659C6.84972 13.4815 7.62862 14.2765 7.63854 14.3325C7.64846 14.3885 7.48237 15.4518 7.26938 16.6954C7.05645 17.9391 6.88233 19.0518 6.88245 19.1682C6.88292 19.6109 7.29047 19.9996 7.75443 20C7.96771 20.0002 8.34313 19.8235 10.1938 18.8518L12.381 17.7033L14.5614 18.8518C16.4128 19.827 16.7799 20.0002 16.995 20C17.4602 19.9996 17.8677 19.6114 17.8681 19.1682C17.8683 19.0518 17.6941 17.9391 17.4812 16.6954C17.2682 15.4518 17.1021 14.3891 17.112 14.3339C17.122 14.2787 17.9009 13.4835 18.8429 12.567C20.6384 10.8203 20.8096 10.6092 20.7381 10.2312C20.6861 9.95587 20.4967 9.6804 20.2836 9.57023C20.1665 9.50962 19.1955 9.34084 17.7264 9.12563C16.4239 8.93482 15.3399 8.7781 15.3176 8.77739C15.2954 8.77662 14.7956 7.79911 14.2071 6.60503C13.6185 5.41101 13.0668 4.36078 12.981 4.27122C12.8952 4.18167 12.7304 4.08212 12.6149 4.04999C12.3736 3.98294 12.347 3.98306 12.1165 4.05206ZM13.1463 8.46358C13.8604 9.93903 14.0447 10.2529 14.2664 10.3716C14.325 10.4029 15.1129 10.5359 16.0173 10.6671C16.9217 10.7982 17.7255 10.9197 17.8036 10.937C17.9307 10.9653 17.8083 11.102 16.639 12.2384C15.6007 13.2475 15.32 13.5531 15.2722 13.7266C15.2224 13.9065 15.2641 14.2493 15.5094 15.6797C15.6731 16.634 15.7942 17.4276 15.7784 17.4433C15.7626 17.4591 15.0503 17.1039 14.1954 16.6539C12.8597 15.951 12.6037 15.8361 12.3753 15.837C12.149 15.8379 11.8788 15.9594 10.5558 16.6557C9.70122 17.1053 8.98889 17.46 8.97283 17.444C8.9567 17.4279 9.07743 16.634 9.24116 15.6797C9.48634 14.2502 9.5281 13.9064 9.47849 13.7267C9.43076 13.5537 9.14879 13.2464 8.11284 12.2383C6.95043 11.1072 6.82285 10.9646 6.94819 10.937C7.02562 10.92 7.75342 10.8113 8.56557 10.6955C9.37772 10.5798 10.1317 10.4691 10.2411 10.4497C10.6301 10.3806 10.775 10.171 11.579 8.51362C11.9977 7.65071 12.3562 6.94471 12.3757 6.94471C12.3952 6.94471 12.742 7.6282 13.1463 8.46358Z" fill="currentColor"/>
</svg>
