<svg fill="none" height="24" viewBox="0 0 24 24" width="24" xmlns="http://www.w3.org/2000/svg"><path d="m17 20h5v-2c0-.6235-.1943-1.2314-.5559-1.7394-.3615-.5079-.8723-.8906-1.4614-1.0948-.589-.2043-1.2271-.2199-1.8254-.0448-.5984.1752-1.1273.5324-1.5133 1.022m.356 3.857h-10m10 0v-2c0-.656-.126-1.283-.356-1.857m0 0c-.3714-.928-1.0122-1.7235-1.84-2.2839-.8278-.5603-1.8044-.8598-2.804-.8598s-1.9762.2995-2.804.8598c-.82775.5604-1.46864 1.3559-1.84 2.2839m-.356 3.857h-5v-2c.00005-.6235.19434-1.2314.55586-1.7394.36153-.5079.87233-.8906 1.46139-1.0948.58907-.2043 1.22713-.2199 1.82549-.0448.59836.1752 1.12729.5324 1.51326 1.022m-.356 3.857v-2c0-.656.126-1.283.356-1.857m7.644-9.143c0 .79565-.3161 1.55871-.8787 2.12132s-1.3257.87868-2.1213.87868-1.5587-.31607-2.12132-.87868c-.56261-.56261-.87868-1.32567-.87868-2.12132s.31607-1.55871.87868-2.12132c.56262-.56261 1.32572-.87868 2.12132-.87868s1.5587.31607 2.1213.87868.8787 1.32567.8787 2.12132zm6 3c0 .5304-.2107 1.0391-.5858 1.4142s-.8838.5858-1.4142.5858-1.0391-.2107-1.4142-.5858-.5858-.8838-.5858-1.4142c0-.53043.2107-1.03914.5858-1.41421.3751-.37508.8838-.58579 1.4142-.58579s1.0391.21071 1.4142.58579c.3751.37507.5858.88378.5858 1.41421zm-14 0c0 .5304-.21071 1.0391-.58579 1.4142-.37507.3751-.88378.5858-1.41421.5858s-1.03914-.2107-1.41421-.5858c-.37508-.3751-.58579-.8838-.58579-1.4142 0-.53043.21071-1.03914.58579-1.41421.37507-.37508.88378-.58579 1.41421-.58579s1.03914.21071 1.41421.58579c.37508.37507.58579.88378.58579 1.41421z" stroke="currentColor" stroke-linecap="round" stroke-linejoin="round" stroke-width="1.7"/></svg>