<?xml version="1.0" encoding="utf-8"?>
<!-- Generator: Adobe Illustrator 24.1.2, SVG Export Plug-In . SVG Version: 6.00 Build 0)  -->
<svg version="1.1" id="Layer_1" xmlns="http://www.w3.org/2000/svg" xmlns:xlink="http://www.w3.org/1999/xlink" x="0px" y="0px"
	 viewBox="0 0 1300 236.83" style="enable-background:new 0 0 1300 236.83;" xml:space="preserve">
<style type="text/css">
	.st0{fill:#262D40;}
</style>
<g id="XMLID_49_">
	<g id="XMLID_55_">
		<g>
			<path id="XMLID_258_" class="st0" d="M344.14,49.6c1.79,1.66,2.69,3.9,2.69,6.71v118.54c0,2.94-0.86,5.24-2.59,6.91
				c-1.73,1.66-4.06,2.49-7,2.49c-2.94,0-5.27-0.83-7-2.49c-1.73-1.66-2.59-3.96-2.59-6.91v-7.67c-2.81,5.63-6.91,9.94-12.28,12.95
				c-5.37,3.01-11.58,4.51-18.61,4.51c-8.06,0-15.25-2.04-21.58-6.14c-6.33-4.09-11.25-9.85-14.77-17.26
				c-3.52-7.42-5.27-15.92-5.27-25.51c0-9.72,1.76-18.22,5.27-25.51c3.52-7.29,8.41-12.92,14.67-16.88
				c6.26-3.96,13.49-5.95,21.68-5.95c7.03,0,13.2,1.5,18.51,4.51c5.3,3.01,9.37,7.26,12.18,12.76V55.93c0-2.69,0.86-4.83,2.59-6.43
				c1.73-1.6,4.06-2.4,7-2.4C339.99,47.1,342.35,47.94,344.14,49.6z M320.74,160.66c4.6-5.75,6.91-13.94,6.91-24.55
				c0-10.61-2.27-18.8-6.81-24.55c-4.54-5.75-11.03-8.63-19.47-8.63c-8.44,0-14.99,2.85-19.66,8.54c-4.67,5.69-7,13.78-7,24.26
				c0,10.49,2.37,18.7,7.1,24.65c4.73,5.95,11.25,8.92,19.56,8.92C309.68,169.29,316.14,166.41,320.74,160.66z"/>
			<path id="XMLID_255_" class="st0" d="M374.83,65.9c-2.18-2.04-3.26-4.73-3.26-8.06c0-3.32,1.09-5.98,3.26-7.96
				c2.17-1.98,5.11-2.97,8.82-2.97c3.58,0,6.49,0.99,8.73,2.97c2.24,1.98,3.36,4.64,3.36,7.96c0,3.33-1.09,6.01-3.26,8.06
				c-2.18,2.05-5.12,3.07-8.82,3.07C379.95,68.97,377.01,67.95,374.83,65.9z M376.65,181.95c-1.86-1.54-2.78-3.84-2.78-6.91V97.17
				c0-3.07,0.93-5.4,2.78-7c1.85-1.6,4.19-2.4,7-2.4c2.81,0,5.11,0.8,6.91,2.4c1.79,1.6,2.69,3.93,2.69,7v77.88
				c0,3.07-0.9,5.37-2.69,6.91c-1.79,1.53-4.09,2.3-6.91,2.3C380.84,184.25,378.51,183.48,376.65,181.95z"/>
			<path id="XMLID_253_" class="st0" d="M490.21,89.3c1.47-0.89,3.04-1.34,4.7-1.34c2.43,0,4.57,0.83,6.43,2.49
				c1.85,1.66,2.78,3.64,2.78,5.95c0,1.28-0.26,2.49-0.77,3.64l-36.64,77.69c-0.9,2.05-2.27,3.62-4.12,4.7
				c-1.85,1.09-3.81,1.63-5.85,1.63c-2.05,0-4-0.54-5.85-1.63c-1.86-1.08-3.23-2.65-4.12-4.7l-36.64-77.69
				c-0.51-1.02-0.77-2.24-0.77-3.64c0-2.3,1.02-4.28,3.07-5.95c2.04-1.66,4.35-2.49,6.91-2.49c3.71,0,6.46,1.79,8.25,5.37
				l29.73,65.98l29.54-65.79C487.62,91.6,488.74,90.2,490.21,89.3z"/>
			<path id="XMLID_250_" class="st0" d="M535.09,178.69c-6.97-3.96-12.34-9.62-16.11-16.98c-3.77-7.35-5.66-15.89-5.66-25.61
				c0-9.84,1.88-18.44,5.66-25.8c3.77-7.35,9.14-13.01,16.11-16.97c6.97-3.96,15.06-5.95,24.26-5.95c9.21,0,17.29,1.98,24.27,5.95
				c6.97,3.96,12.34,9.62,16.11,16.97c3.77,7.36,5.66,15.95,5.66,25.8c0,9.72-1.89,18.26-5.66,25.61
				c-3.77,7.36-9.14,13.01-16.11,16.98c-6.97,3.97-15.06,5.95-24.27,5.95C550.15,184.64,542.06,182.66,535.09,178.69z
				 M579.02,160.85c4.54-5.63,6.81-13.87,6.81-24.74c0-10.74-2.3-18.96-6.91-24.65c-4.6-5.69-11.13-8.54-19.57-8.54
				c-8.44,0-14.96,2.85-19.56,8.54c-4.6,5.69-6.91,13.91-6.91,24.65c0,10.87,2.27,19.12,6.81,24.74c4.54,5.63,11.09,8.44,19.66,8.44
				C567.92,169.29,574.48,166.48,579.02,160.85z"/>
			<path id="XMLID_248_" class="st0" d="M685.19,95.63c0,2.81-0.7,4.92-2.11,6.33c-1.41,1.41-3.84,2.24-7.29,2.49l-5.75,0.58
				c-8.06,0.77-14.04,3.58-17.93,8.44c-3.9,4.86-5.85,10.74-5.85,17.65v43.93c0,3.07-0.9,5.37-2.69,6.91
				c-1.79,1.53-4.09,2.3-6.91,2.3c-2.81,0-5.15-0.77-7-2.3c-1.86-1.54-2.78-3.84-2.78-6.91V96.97c0-2.94,0.93-5.21,2.78-6.81
				c1.85-1.6,4.19-2.4,7-2.4c2.56,0,4.7,0.8,6.43,2.4c1.73,1.6,2.59,3.81,2.59,6.62v9.21c2.56-5.63,6.26-9.91,11.13-12.85
				c4.86-2.94,10.36-4.67,16.5-5.18l2.69-0.19C682.12,87.38,685.19,90.01,685.19,95.63z"/>
			<path id="XMLID_246_" class="st0" d="M711.37,178.69c-6.84-3.96-12.15-9.59-15.92-16.88c-3.77-7.29-5.66-15.73-5.66-25.32
				c0-9.72,1.95-18.29,5.85-25.7c3.9-7.42,9.37-13.17,16.4-17.26c7.03-4.09,15.09-6.14,24.17-6.14c4.86,0,9.75,0.7,14.67,2.11
				c4.92,1.41,9.3,3.33,13.14,5.75c4.09,2.81,6.14,6.08,6.14,9.78c0,2.18-0.58,4-1.73,5.47c-1.15,1.47-2.62,2.21-4.41,2.21
				c-1.15,0-2.3-0.29-3.45-0.86c-1.15-0.58-2.62-1.44-4.41-2.59c-3.2-2.04-6.17-3.61-8.92-4.7c-2.75-1.08-6.04-1.63-9.88-1.63
				c-8.7,0-15.44,2.94-20.24,8.82c-4.8,5.88-7.19,14.07-7.19,24.55c0,10.49,2.36,18.58,7.1,24.26c4.73,5.69,11.44,8.54,20.14,8.54
				c3.84,0,7.22-0.58,10.17-1.73c2.94-1.15,5.95-2.69,9.02-4.6c1.41-0.89,2.81-1.66,4.22-2.3c1.41-0.64,2.69-0.96,3.84-0.96
				c1.79,0,3.26,0.74,4.41,2.21c1.15,1.47,1.73,3.29,1.73,5.47c0,1.79-0.48,3.42-1.44,4.89c-0.96,1.47-2.59,2.97-4.89,4.51
				c-3.84,2.56-8.31,4.54-13.43,5.95c-5.12,1.4-10.3,2.11-15.54,2.11C726.17,184.64,718.21,182.66,711.37,178.69z"/>
			<path id="XMLID_243_" class="st0" d="M865.49,161.81c1.15,1.41,1.73,3.2,1.73,5.37c0,3.71-2.3,6.84-6.91,9.4
				c-4.48,2.56-9.37,4.54-14.67,5.95c-5.31,1.4-10.39,2.11-15.25,2.11c-14.84,0-26.54-4.32-35.1-12.95
				c-8.57-8.63-12.85-20.43-12.85-35.39c0-9.59,1.88-18.09,5.66-25.51c3.77-7.42,9.08-13.17,15.92-17.26
				c6.84-4.09,14.61-6.14,23.31-6.14c12.53,0,22.44,4.03,29.73,12.08c7.29,8.06,10.93,18.93,10.93,32.61c0,5.12-2.3,7.67-6.91,7.67
				h-59.27c1.28,19.82,10.8,29.73,28.58,29.73c4.73,0,8.82-0.64,12.28-1.92c3.45-1.28,7.1-2.94,10.93-4.99
				c0.38-0.25,1.44-0.8,3.17-1.63c1.73-0.83,3.17-1.25,4.32-1.25C862.87,159.7,864.34,160.4,865.49,161.81z M809.87,108.68
				c-4.48,4.73-7.16,11.38-8.06,19.95h49.49c-0.38-8.69-2.59-15.38-6.62-20.05c-4.03-4.67-9.69-7-16.98-7
				C820.29,101.58,814.34,103.95,809.87,108.68z"/>
			<path id="XMLID_240_" class="st0" d="M966.87,93.04c6.33,4.16,11.25,9.98,14.77,17.46c3.52,7.48,5.27,16.08,5.27,25.8
				c0,9.72-1.76,18.26-5.27,25.61c-3.52,7.36-8.41,13.01-14.67,16.98c-6.27,3.96-13.49,5.95-21.68,5.95
				c-6.4,0-12.18-1.31-17.36-3.93c-5.18-2.62-9.18-6.3-11.99-11.03v36.25c0,3.84-1.28,6.91-3.84,9.21
				c-2.56,2.3-5.95,3.45-10.17,3.45c-4.48,0-8.09-1.22-10.84-3.64c-2.75-2.43-4.12-5.63-4.12-9.59V100.81
				c0-4.09,1.31-7.38,3.93-9.88c2.62-2.49,6.11-3.74,10.45-3.74c4.35,0,7.8,1.25,10.36,3.74c2.56,2.49,3.84,5.79,3.84,9.88v1.54
				c2.81-4.86,6.84-8.66,12.08-11.41c5.24-2.75,11.13-4.12,17.65-4.12C953.35,86.81,960.54,88.89,966.87,93.04z M952.58,155.96
				c3.71-4.54,5.56-11.09,5.56-19.66c0-8.69-1.85-15.44-5.56-20.24c-3.71-4.79-8.95-7.19-15.73-7.19c-6.78,0-12.02,2.34-15.73,7
				c-3.71,4.67-5.56,11.35-5.56,20.04c0,8.57,1.85,15.19,5.56,19.85c3.71,4.67,8.95,7,15.73,7
				C943.63,162.77,948.87,160.5,952.58,155.96z"/>
			<path id="XMLID_237_" class="st0" d="M1077.64,96.88c6.65,6.71,9.97,16.98,9.97,30.79v43.35c0,4.22-1.22,7.51-3.64,9.88
				c-2.43,2.37-5.82,3.55-10.17,3.55c-4.09,0-7.38-1.25-9.88-3.74c-2.49-2.49-3.74-5.72-3.74-9.69v-1.34
				c-1.92,4.73-5.12,8.44-9.59,11.13c-4.48,2.69-9.72,4.03-15.73,4.03c-6.4,0-12.18-1.28-17.36-3.84
				c-5.18-2.56-9.27-6.14-12.28-10.74c-3.01-4.6-4.51-9.72-4.51-15.35c0-6.91,1.76-12.34,5.28-16.31c3.52-3.96,9.17-6.84,16.98-8.63
				c7.8-1.79,18.48-2.69,32.03-2.69h4.99v-3.45c0-5.37-1.18-9.27-3.55-11.7c-2.37-2.43-6.3-3.64-11.8-3.64
				c-5.5,0-13.43,1.92-23.79,5.75c-2.94,1.41-5.44,2.11-7.48,2.11c-2.81,0-5.05-0.99-6.71-2.97c-1.66-1.98-2.49-4.57-2.49-7.77
				c0-2.56,0.58-4.67,1.73-6.33c1.15-1.66,3-3.2,5.56-4.6c4.47-2.43,9.94-4.35,16.4-5.75c6.46-1.4,12.82-2.11,19.09-2.11
				C1060.76,86.81,1070.99,90.17,1077.64,96.88z M1054.82,159.22c3.45-3.77,5.18-8.66,5.18-14.67v-3.26h-3.26
				c-10.36,0-17.62,0.83-21.77,2.49c-4.16,1.66-6.23,4.67-6.23,9.02c0,3.58,1.18,6.49,3.55,8.73c2.36,2.24,5.34,3.36,8.92,3.36
				C1046.82,164.88,1051.36,162.99,1054.82,159.22z"/>
			<path id="XMLID_235_" class="st0" d="M1170.1,166.22c1.79,1.66,2.69,4.09,2.69,7.29c0,3.71-1.47,6.52-4.41,8.44
				c-2.94,1.92-7.16,2.69-12.66,2.3l-5.37-0.38c-22.38-1.79-33.57-13.49-33.57-35.1v-37.98h-7.67c-4.22,0-7.42-0.93-9.59-2.78
				c-2.17-1.85-3.26-4.51-3.26-7.96c0-3.58,1.09-6.3,3.26-8.15c2.17-1.85,5.37-2.78,9.59-2.78h7.67V74.15
				c0-4.22,1.31-7.54,3.93-9.98c2.62-2.43,6.17-3.64,10.65-3.64c4.47,0,7.99,1.22,10.55,3.64c2.56,2.43,3.84,5.76,3.84,9.98v14.96
				h13.43c8.69,0,13.04,3.64,13.04,10.93c0,3.45-1.09,6.11-3.26,7.96c-2.18,1.86-5.44,2.78-9.78,2.78h-13.43v40.09
				c0,3.84,0.89,6.75,2.69,8.73c1.79,1.98,4.41,3.1,7.86,3.36l5.37,0.38C1165.49,163.6,1168.3,164.56,1170.1,166.22z"/>
			<path id="XMLID_233_" class="st0" d="M1275.98,126.51v44.31c0,4.22-1.31,7.55-3.93,9.98c-2.62,2.43-6.17,3.64-10.65,3.64
				c-4.48,0-7.99-1.21-10.55-3.64c-2.56-2.43-3.84-5.75-3.84-9.98v-44.69c0-5.63-1.18-9.81-3.55-12.57
				c-2.37-2.75-6.04-4.12-11.03-4.12c-6.01,0-10.84,1.92-14.48,5.75c-3.64,3.84-5.47,8.95-5.47,15.35v40.28
				c0,4.22-1.28,7.55-3.84,9.98c-2.56,2.43-6.08,3.64-10.55,3.64c-4.48,0-8.03-1.21-10.65-3.64c-2.62-2.43-3.93-5.75-3.93-9.98
				V60.34c0-3.96,1.37-7.16,4.12-9.59c2.75-2.43,6.36-3.64,10.84-3.64c4.22,0,7.61,1.15,10.17,3.45c2.56,2.3,3.84,5.37,3.84,9.21
				v41.82c3.32-4.86,7.61-8.54,12.85-11.03c5.24-2.49,11.19-3.74,17.84-3.74C1265.04,86.81,1275.98,100.04,1275.98,126.51z"/>
		</g>
	</g>
	<g id="XMLID_50_">
		<polygon id="XMLID_54_" class="st0" points="202.52,95.99 61.69,95.99 61.69,39.31 202.52,39.31 227.91,67.65 		"/>
		<polygon id="XMLID_53_" class="st0" points="49.41,106.96 190.24,106.96 190.24,163.64 49.41,163.64 24.02,135.3 		"/>
		<g id="XMLID_51_">
			<path id="XMLID_52_" class="st0" d="M135.1,215.77V28.1c0-5.55-4.5-10.04-10.04-10.04c-5.55,0-10.04,4.5-10.04,10.04v187.68
				H135.1z"/>
		</g>
	</g>
</g>
</svg>
